<svg width="380" height="301" viewBox="0 0 380 301" fill="none" xmlns="http://www.w3.org/2000/svg">
<path d="M0.469971 0.5625H379.299V292.562C379.299 296.981 375.717 300.562 371.299 300.562H8.46996C4.05168 300.562 0.469971 296.981 0.469971 292.562V0.5625Z" fill="white"/>
<path d="M89.3095 221.468V220.513L92.2626 217.453C92.5779 217.121 92.8379 216.83 93.0424 216.58C93.2498 216.327 93.4046 216.087 93.5069 215.86C93.6092 215.632 93.6603 215.391 93.6603 215.135C93.6603 214.845 93.5921 214.595 93.4558 214.385C93.3194 214.172 93.1333 214.009 92.8975 213.895C92.6617 213.779 92.3961 213.72 92.1007 213.72C91.7882 213.72 91.5154 213.784 91.2825 213.912C91.0495 214.04 90.8705 214.22 90.7455 214.453C90.6205 214.686 90.558 214.959 90.558 215.272H89.3009C89.3009 214.74 89.4231 214.276 89.6674 213.878C89.9117 213.48 90.247 213.172 90.6731 212.953C91.0992 212.732 91.5836 212.621 92.1262 212.621C92.6745 212.621 93.1575 212.73 93.5751 212.949C93.9955 213.165 94.3237 213.46 94.5595 213.835C94.7953 214.208 94.9132 214.628 94.9132 215.097C94.9132 215.421 94.8521 215.737 94.7299 216.047C94.6106 216.357 94.4018 216.702 94.1035 217.083C93.8052 217.46 93.3904 217.919 92.8592 218.459L91.1248 220.274V220.338H95.0538V221.468H89.3095ZM99.5708 212.621C99.96 212.624 100.344 212.695 100.721 212.834C101.099 212.973 101.44 213.2 101.744 213.516C102.051 213.831 102.295 214.257 102.477 214.794C102.662 215.328 102.755 215.993 102.758 216.789C102.758 217.553 102.682 218.233 102.528 218.83C102.375 219.423 102.155 219.925 101.868 220.334C101.584 220.743 101.238 221.054 100.832 221.267C100.426 221.48 99.9686 221.587 99.46 221.587C98.9401 221.587 98.4785 221.485 98.0751 221.28C97.6717 221.075 97.3436 220.793 97.0907 220.432C96.8379 220.068 96.6802 219.651 96.6177 219.179H97.9174C98.0026 219.554 98.1759 219.858 98.4373 220.091C98.7015 220.321 99.0424 220.436 99.46 220.436C100.099 220.436 100.598 220.158 100.956 219.601C101.314 219.041 101.494 218.26 101.497 217.257H101.429C101.281 217.502 101.096 217.712 100.875 217.888C100.656 218.064 100.41 218.2 100.138 218.297C99.8649 218.394 99.5737 218.442 99.264 218.442C98.7612 218.442 98.3038 218.318 97.8918 218.071C97.4799 217.824 97.1518 217.485 96.9075 217.053C96.6632 216.621 96.541 216.128 96.541 215.574C96.541 215.023 96.666 214.523 96.916 214.074C97.1688 213.625 97.5211 213.27 97.9728 213.009C98.4274 212.745 98.96 212.615 99.5708 212.621ZM99.5751 213.729C99.2427 213.729 98.943 213.811 98.6759 213.976C98.4117 214.138 98.2029 214.358 98.0495 214.637C97.8961 214.912 97.8194 215.219 97.8194 215.557C97.8194 215.895 97.8933 216.202 98.041 216.477C98.1916 216.75 98.3961 216.968 98.6546 217.129C98.916 217.289 99.2143 217.368 99.5495 217.368C99.7995 217.368 100.032 217.32 100.248 217.223C100.464 217.127 100.653 216.993 100.815 216.823C100.977 216.649 101.103 216.453 101.194 216.235C101.285 216.016 101.331 215.786 101.331 215.544C101.331 215.223 101.254 214.925 101.101 214.649C100.95 214.374 100.743 214.152 100.478 213.985C100.214 213.814 99.9132 213.729 99.5751 213.729ZM104.357 221.468L108.167 213.933V213.87H103.761V212.74H109.531V213.908L105.734 221.468H104.357ZM113.776 221.587C113.242 221.587 112.762 221.485 112.336 221.28C111.912 221.073 111.574 220.789 111.322 220.428C111.069 220.067 110.934 219.655 110.917 219.192H112.195C112.226 219.567 112.393 219.875 112.694 220.117C112.995 220.358 113.356 220.479 113.776 220.479C114.111 220.479 114.408 220.402 114.667 220.249C114.928 220.093 115.133 219.878 115.28 219.605C115.431 219.333 115.506 219.022 115.506 218.672C115.506 218.317 115.429 218 115.276 217.722C115.123 217.443 114.911 217.225 114.641 217.066C114.374 216.906 114.067 216.825 113.721 216.823C113.456 216.823 113.191 216.868 112.924 216.959C112.657 217.05 112.441 217.169 112.276 217.317L111.07 217.138L111.56 212.74H116.358V213.87H112.655L112.378 216.311H112.429C112.6 216.147 112.826 216.009 113.107 215.898C113.391 215.787 113.695 215.732 114.019 215.732C114.55 215.732 115.023 215.858 115.438 216.111C115.856 216.364 116.184 216.709 116.422 217.147C116.664 217.581 116.783 218.081 116.78 218.647C116.783 219.212 116.655 219.716 116.397 220.159C116.141 220.602 115.786 220.952 115.331 221.208C114.88 221.46 114.361 221.587 113.776 221.587ZM118.456 221.468V212.74H123.868V213.874H119.773V216.533H123.48V217.662H119.773V221.468H118.456ZM128.313 221.468H125.487V212.74H128.402C129.257 212.74 129.992 212.915 130.605 213.264C131.219 213.611 131.689 214.11 132.016 214.76C132.345 215.408 132.51 216.185 132.51 217.091C132.51 218 132.344 218.781 132.012 219.435C131.682 220.088 131.205 220.591 130.58 220.943C129.955 221.293 129.199 221.468 128.313 221.468ZM126.804 220.317H128.24C128.905 220.317 129.458 220.192 129.898 219.942C130.338 219.689 130.668 219.324 130.887 218.847C131.105 218.367 131.215 217.781 131.215 217.091C131.215 216.406 131.105 215.825 130.887 215.348C130.671 214.871 130.348 214.509 129.919 214.262C129.49 214.014 128.958 213.891 128.321 213.891H126.804V220.317Z" fill="#1E1E1E"/>
<path d="M168.621 212.74V221.468H167.3V214.061H167.248L165.16 215.425V214.164L167.338 212.74H168.621ZM174.028 221.587C173.639 221.581 173.255 221.51 172.878 221.374C172.503 221.237 172.162 221.01 171.855 220.692C171.548 220.374 171.302 219.946 171.118 219.409C170.936 218.872 170.845 218.202 170.845 217.398C170.845 216.637 170.92 215.96 171.071 215.37C171.224 214.779 171.444 214.28 171.731 213.874C172.018 213.465 172.365 213.154 172.771 212.941C173.177 212.727 173.633 212.621 174.139 212.621C174.659 212.621 175.121 212.723 175.524 212.928C175.927 213.132 176.254 213.415 176.504 213.776C176.757 214.137 176.917 214.547 176.986 215.007H175.686C175.598 214.644 175.423 214.347 175.162 214.117C174.9 213.887 174.559 213.772 174.139 213.772C173.5 213.772 173.001 214.05 172.643 214.607C172.288 215.164 172.109 215.938 172.106 216.929H172.17C172.321 216.682 172.505 216.472 172.724 216.298C172.946 216.122 173.193 215.987 173.466 215.894C173.741 215.797 174.031 215.749 174.335 215.749C174.841 215.749 175.298 215.872 175.707 216.12C176.119 216.364 176.447 216.702 176.692 217.134C176.936 217.566 177.058 218.06 177.058 218.617C177.058 219.173 176.932 219.678 176.679 220.129C176.429 220.581 176.077 220.939 175.622 221.203C175.167 221.465 174.636 221.593 174.028 221.587ZM174.024 220.479C174.359 220.479 174.659 220.397 174.923 220.232C175.187 220.067 175.396 219.845 175.55 219.567C175.703 219.289 175.78 218.977 175.78 218.634C175.78 218.298 175.704 217.993 175.554 217.718C175.406 217.442 175.202 217.223 174.94 217.061C174.682 216.899 174.386 216.818 174.054 216.818C173.801 216.818 173.567 216.867 173.351 216.963C173.138 217.06 172.95 217.193 172.788 217.364C172.626 217.534 172.498 217.73 172.405 217.952C172.314 218.171 172.268 218.402 172.268 218.647C172.268 218.973 172.344 219.276 172.494 219.554C172.648 219.833 172.856 220.057 173.121 220.227C173.388 220.395 173.689 220.479 174.024 220.479ZM179.467 221.468H178.069L181.21 212.74H182.731L185.872 221.468H184.474L182.007 214.325H181.938L179.467 221.468ZM179.701 218.05H184.235V219.158H179.701V218.05ZM189.893 221.587C189.359 221.587 188.879 221.485 188.453 221.28C188.03 221.073 187.692 220.789 187.439 220.428C187.186 220.067 187.051 219.655 187.034 219.192H188.312C188.344 219.567 188.51 219.875 188.811 220.117C189.112 220.358 189.473 220.479 189.893 220.479C190.228 220.479 190.525 220.402 190.784 220.249C191.045 220.093 191.25 219.878 191.398 219.605C191.548 219.333 191.623 219.022 191.623 218.672C191.623 218.317 191.547 218 191.393 217.722C191.24 217.443 191.028 217.225 190.758 217.066C190.491 216.906 190.184 216.825 189.838 216.823C189.574 216.823 189.308 216.868 189.041 216.959C188.774 217.05 188.558 217.169 188.393 217.317L187.187 217.138L187.677 212.74H192.476V213.87H188.773L188.496 216.311H188.547C188.717 216.147 188.943 216.009 189.224 215.898C189.508 215.787 189.812 215.732 190.136 215.732C190.667 215.732 191.14 215.858 191.555 216.111C191.973 216.364 192.301 216.709 192.54 217.147C192.781 217.581 192.9 218.081 192.898 218.647C192.9 219.212 192.773 219.716 192.514 220.159C192.258 220.602 191.903 220.952 191.449 221.208C190.997 221.46 190.478 221.587 189.893 221.587ZM197.399 221.468H194.573V212.74H197.488C198.343 212.74 199.078 212.915 199.691 213.264C200.305 213.611 200.775 214.11 201.102 214.76C201.431 215.408 201.596 216.185 201.596 217.091C201.596 218 201.43 218.781 201.097 219.435C200.768 220.088 200.291 220.591 199.666 220.943C199.041 221.293 198.285 221.468 197.399 221.468ZM195.89 220.317H197.326C197.991 220.317 198.543 220.192 198.984 219.942C199.424 219.689 199.754 219.324 199.972 218.847C200.191 218.367 200.301 217.781 200.301 217.091C200.301 216.406 200.191 215.825 199.972 215.348C199.757 214.871 199.434 214.509 199.005 214.262C198.576 214.014 198.043 213.891 197.407 213.891H195.89V220.317ZM210.482 215.578H209.152C209.101 215.294 209.006 215.044 208.867 214.828C208.728 214.612 208.557 214.429 208.356 214.279C208.154 214.128 207.928 214.014 207.678 213.938C207.431 213.861 207.168 213.823 206.89 213.823C206.387 213.823 205.937 213.949 205.539 214.202C205.144 214.455 204.831 214.825 204.601 215.314C204.374 215.803 204.26 216.399 204.26 217.104C204.26 217.814 204.374 218.414 204.601 218.902C204.831 219.391 205.145 219.76 205.543 220.01C205.941 220.26 206.388 220.385 206.885 220.385C207.161 220.385 207.422 220.348 207.67 220.274C207.92 220.198 208.145 220.085 208.347 219.938C208.549 219.79 208.719 219.61 208.858 219.397C209.001 219.181 209.099 218.933 209.152 218.655L210.482 218.659C210.411 219.088 210.273 219.483 210.069 219.844C209.867 220.202 209.607 220.512 209.289 220.773C208.974 221.031 208.613 221.232 208.206 221.374C207.8 221.516 207.357 221.587 206.877 221.587C206.121 221.587 205.448 221.408 204.857 221.05C204.266 220.689 203.8 220.173 203.459 219.503C203.121 218.833 202.952 218.033 202.952 217.104C202.952 216.172 203.123 215.372 203.464 214.705C203.804 214.034 204.27 213.52 204.861 213.162C205.452 212.801 206.124 212.621 206.877 212.621C207.34 212.621 207.772 212.688 208.172 212.821C208.576 212.952 208.938 213.145 209.259 213.401C209.58 213.654 209.846 213.963 210.056 214.33C210.266 214.693 210.408 215.11 210.482 215.578Z" fill="#1E1E1E"/>
<path d="M246.348 221.612C245.675 221.61 245.099 221.432 244.622 221.08C244.145 220.727 243.78 220.215 243.527 219.541C243.274 218.868 243.148 218.057 243.148 217.108C243.148 216.162 243.274 215.354 243.527 214.683C243.782 214.013 244.149 213.502 244.626 213.149C245.106 212.797 245.68 212.621 246.348 212.621C247.015 212.621 247.588 212.798 248.065 213.154C248.542 213.506 248.907 214.017 249.16 214.688C249.416 215.355 249.544 216.162 249.544 217.108C249.544 218.06 249.417 218.872 249.165 219.546C248.912 220.216 248.547 220.729 248.069 221.084C247.592 221.436 247.018 221.612 246.348 221.612ZM246.348 220.475C246.939 220.475 247.4 220.186 247.733 219.61C248.068 219.033 248.236 218.199 248.236 217.108C248.236 216.384 248.159 215.772 248.005 215.272C247.855 214.769 247.638 214.388 247.353 214.129C247.072 213.868 246.737 213.737 246.348 213.737C245.76 213.737 245.298 214.027 244.963 214.607C244.628 215.186 244.459 216.02 244.456 217.108C244.456 217.835 244.531 218.45 244.682 218.953C244.835 219.453 245.052 219.833 245.334 220.091C245.615 220.347 245.953 220.475 246.348 220.475ZM251.056 221.468V220.513L254.009 217.453C254.324 217.121 254.584 216.83 254.789 216.58C254.996 216.327 255.151 216.087 255.253 215.86C255.355 215.632 255.406 215.391 255.406 215.135C255.406 214.845 255.338 214.595 255.202 214.385C255.065 214.172 254.879 214.009 254.644 213.895C254.408 213.779 254.142 213.72 253.847 213.72C253.534 213.72 253.262 213.784 253.029 213.912C252.796 214.04 252.617 214.22 252.492 214.453C252.367 214.686 252.304 214.959 252.304 215.272H251.047C251.047 214.74 251.169 214.276 251.414 213.878C251.658 213.48 251.993 213.172 252.419 212.953C252.845 212.732 253.33 212.621 253.872 212.621C254.421 212.621 254.904 212.73 255.321 212.949C255.742 213.165 256.07 213.46 256.306 213.835C256.541 214.208 256.659 214.628 256.659 215.097C256.659 215.421 256.598 215.737 256.476 216.047C256.357 216.357 256.148 216.702 255.85 217.083C255.551 217.46 255.137 217.919 254.605 218.459L252.871 220.274V220.338H256.8V221.468H251.056ZM261.36 221.468H258.534V212.74H261.449C262.304 212.74 263.039 212.915 263.652 213.264C264.266 213.611 264.736 214.11 265.063 214.76C265.392 215.408 265.557 216.185 265.557 217.091C265.557 218 265.391 218.781 265.058 219.435C264.729 220.088 264.252 220.591 263.627 220.943C263.002 221.293 262.246 221.468 261.36 221.468ZM259.851 220.317H261.287C261.952 220.317 262.504 220.192 262.945 219.942C263.385 219.689 263.715 219.324 263.933 218.847C264.152 218.367 264.262 217.781 264.262 217.091C264.262 216.406 264.152 215.825 263.933 215.348C263.717 214.871 263.395 214.509 262.966 214.262C262.537 214.014 262.004 213.891 261.368 213.891H259.851V220.317ZM270.02 221.468H267.194V212.74H270.109C270.964 212.74 271.699 212.915 272.312 213.264C272.926 213.611 273.396 214.11 273.723 214.76C274.052 215.408 274.217 216.185 274.217 217.091C274.217 218 274.051 218.781 273.719 219.435C273.389 220.088 272.912 220.591 272.287 220.943C271.662 221.293 270.906 221.468 270.02 221.468ZM268.511 220.317H269.947C270.612 220.317 271.165 220.192 271.605 219.942C272.045 219.689 272.375 219.324 272.594 218.847C272.812 218.367 272.922 217.781 272.922 217.091C272.922 216.406 272.812 215.825 272.594 215.348C272.378 214.871 272.055 214.509 271.626 214.262C271.197 214.014 270.665 213.891 270.028 213.891H268.511V220.317ZM275.855 221.468V212.74H279.051C279.67 212.74 280.183 212.843 280.589 213.047C280.995 213.249 281.299 213.523 281.501 213.87C281.703 214.213 281.803 214.601 281.803 215.033C281.803 215.397 281.737 215.703 281.603 215.953C281.47 216.2 281.291 216.399 281.066 216.55C280.845 216.698 280.6 216.806 280.333 216.874V216.959C280.623 216.973 280.906 217.067 281.181 217.24C281.46 217.411 281.69 217.654 281.872 217.969C282.053 218.284 282.144 218.668 282.144 219.12C282.144 219.566 282.039 219.966 281.829 220.321C281.622 220.673 281.301 220.953 280.866 221.161C280.431 221.365 279.876 221.468 279.2 221.468H275.855ZM277.171 220.338H279.072C279.703 220.338 280.154 220.216 280.427 219.972C280.7 219.727 280.836 219.422 280.836 219.056C280.836 218.78 280.766 218.527 280.627 218.297C280.488 218.067 280.289 217.884 280.031 217.747C279.775 217.611 279.471 217.543 279.119 217.543H277.171V220.338ZM277.171 216.516H278.936C279.231 216.516 279.497 216.459 279.732 216.345C279.971 216.232 280.16 216.073 280.299 215.868C280.441 215.661 280.512 215.416 280.512 215.135C280.512 214.774 280.386 214.472 280.133 214.227C279.88 213.983 279.492 213.861 278.97 213.861H277.171V216.516ZM286.489 212.621C286.878 212.624 287.262 212.695 287.639 212.834C288.017 212.973 288.358 213.2 288.662 213.516C288.969 213.831 289.213 214.257 289.395 214.794C289.58 215.328 289.673 215.993 289.676 216.789C289.676 217.553 289.6 218.233 289.446 218.83C289.293 219.423 289.073 219.925 288.786 220.334C288.502 220.743 288.156 221.054 287.75 221.267C287.344 221.48 286.887 221.587 286.378 221.587C285.858 221.587 285.396 221.485 284.993 221.28C284.59 221.075 284.262 220.793 284.009 220.432C283.756 220.068 283.598 219.651 283.536 219.179H284.835C284.921 219.554 285.094 219.858 285.355 220.091C285.619 220.321 285.96 220.436 286.378 220.436C287.017 220.436 287.516 220.158 287.874 219.601C288.232 219.041 288.412 218.26 288.415 217.257H288.347C288.199 217.502 288.014 217.712 287.793 217.888C287.574 218.064 287.328 218.2 287.056 218.297C286.783 218.394 286.492 218.442 286.182 218.442C285.679 218.442 285.222 218.318 284.81 218.071C284.398 217.824 284.07 217.485 283.825 217.053C283.581 216.621 283.459 216.128 283.459 215.574C283.459 215.023 283.584 214.523 283.834 214.074C284.087 213.625 284.439 213.27 284.891 213.009C285.345 212.745 285.878 212.615 286.489 212.621ZM286.493 213.729C286.161 213.729 285.861 213.811 285.594 213.976C285.33 214.138 285.121 214.358 284.967 214.637C284.814 214.912 284.737 215.219 284.737 215.557C284.737 215.895 284.811 216.202 284.959 216.477C285.11 216.75 285.314 216.968 285.573 217.129C285.834 217.289 286.132 217.368 286.467 217.368C286.717 217.368 286.95 217.32 287.166 217.223C287.382 217.127 287.571 216.993 287.733 216.823C287.895 216.649 288.021 216.453 288.112 216.235C288.203 216.016 288.249 215.786 288.249 215.544C288.249 215.223 288.172 214.925 288.019 214.649C287.868 214.374 287.661 214.152 287.396 213.985C287.132 213.814 286.831 213.729 286.493 213.729Z" fill="#1E1E1E"/>
<circle cx="126.253" cy="150.562" r="50.7694" fill="#2975FD"/>
<circle cx="189.884" cy="150.562" r="50.7694" fill="#16A5DC"/>
<circle cx="253.515" cy="150.562" r="50.7694" fill="#02DDB9"/>
<path d="M113.414 300.562C113.414 272.775 93.9592 211.393 0.469978 211.393" stroke="#02DDB9" stroke-width="5"/>
<path d="M266.325 0.582764C266.325 28.3702 285.78 89.7519 379.269 89.7519" stroke="#2975FD" stroke-width="5"/>
</svg>
