<svg width="61" height="61" viewBox="0 0 61 61" fill="none" xmlns="http://www.w3.org/2000/svg">
<path d="M44.225 11.3176C42.0251 11.311 39.8533 11.8114 37.8781 12.7801C28.8031 -4.67614 2.58125 1.53011 2.32812 21.2176C2.34296 26.1859 4.32317 30.9464 7.83626 34.4595C11.3494 37.9726 16.1099 39.9528 21.0781 39.9676C21.5754 39.9676 22.0523 39.7701 22.404 39.4184C22.7556 39.0668 22.9531 38.5899 22.9531 38.0926C22.9531 37.5953 22.7556 37.1184 22.404 36.7668C22.0523 36.4151 21.5754 36.2176 21.0781 36.2176C17.0999 36.2176 13.2846 34.6373 10.4715 31.8242C7.65848 29.0112 6.07813 25.1959 6.07813 21.2176C6.30313 5.17698 27.7813 0.48011 34.7375 14.9082C33.3875 16.277 30.05 19.1457 32.5344 20.9176C32.7465 21.0499 32.983 21.1383 33.2298 21.1779C33.4767 21.2174 33.7289 21.2072 33.9718 21.1478C34.2146 21.0884 34.4431 20.981 34.6438 20.832C34.8446 20.683 35.0135 20.4954 35.1406 20.2801C40.6531 11.0832 54.8281 14.9645 54.8281 25.6989C54.8207 28.507 53.7006 31.1977 51.7132 33.1815C49.7258 35.1654 47.0331 36.2808 44.225 36.2832C43.7277 36.2832 43.2508 36.4808 42.8992 36.8324C42.5475 37.184 42.35 37.661 42.35 38.1582C42.35 38.6555 42.5475 39.1324 42.8992 39.4841C43.2508 39.8357 43.7277 40.0332 44.225 40.0332C63.2656 39.2457 63.2656 12.1051 44.225 11.3176Z" fill="#1C9842"/>
<path d="M32.6563 27.7801C31.55 26.8426 30.425 25.1176 28.7844 25.577C28.5495 25.6534 28.332 25.7755 28.1445 25.9362C27.9569 26.0969 27.803 26.2931 27.6914 26.5135C27.5799 26.7339 27.5131 26.9742 27.4947 27.2205C27.4763 27.4668 27.5068 27.7143 27.5844 27.9488C30.7625 33.4051 30.8281 39.6863 27.3875 43.6145L24.95 41.177C24.6942 40.9215 24.37 40.7454 24.0164 40.6699C23.6628 40.5945 23.2949 40.6228 22.9571 40.7516C22.6193 40.8804 22.3259 41.1041 22.1123 41.3958C21.8987 41.6875 21.7739 42.0348 21.7531 42.3957L20.9656 56.4582C20.9492 56.7235 20.9893 56.9892 21.0834 57.2378C21.1774 57.4864 21.3233 57.7122 21.5112 57.9001C21.6992 58.0881 21.9249 58.2339 22.1735 58.328C22.4221 58.422 22.6879 58.4622 22.9531 58.4457L37.0156 57.6582C37.3766 57.6374 37.7238 57.5127 38.0155 57.2991C38.3072 57.0854 38.5309 56.7921 38.6597 56.4542C38.7885 56.1164 38.8169 55.7485 38.7414 55.395C38.666 55.0414 38.4899 54.7171 38.2344 54.4613L35.7031 51.9301C41.0375 45.4613 39.8281 34.9238 32.6563 27.7801ZM24.8281 54.5832L25.2594 46.7926C25.8125 47.3457 26.5063 48.1895 27.3781 48.1332C27.8148 48.1259 28.2367 47.9742 28.5781 47.702C30.3036 46.2287 31.6651 44.3764 32.5563 42.2899C33.4475 40.2034 33.8443 37.9391 33.7156 35.6738C36.1813 40.9051 35.7688 46.6801 32.1781 50.2801C31.7426 50.5617 31.4317 50.9998 31.3096 51.5039C31.1875 52.008 31.2635 52.5397 31.5219 52.9895C31.8628 53.4025 32.2291 53.7939 32.6188 54.1613L24.8281 54.5832Z" fill="#1C9842"/>
</svg>
