<svg width="80" height="81" viewBox="0 0 80 81" fill="none" xmlns="http://www.w3.org/2000/svg">
<g clip-path="url(#clip0_351_826)">
<path d="M69.8771 10.431H68.9279C70.7373 7.48524 70.0691 3.53047 67.1653 1.37599C64.0364 -0.94522 59.5901 -0.198047 57.4066 3.06501L52.4776 10.4311H10.1352C6.65475 10.4311 3.82324 13.2626 3.82324 16.743V57.0976C3.82324 60.578 6.65475 63.4095 10.1352 63.4095H34.6525L32.8 71.1901H28.8018C26.1961 71.1901 24.0761 73.3099 24.0761 75.9156V76.9023H19.1473C18.2844 76.9023 17.5848 77.602 17.5848 78.4648C17.5848 79.3276 18.2844 80.0273 19.1473 80.0273H60.8651C61.7281 80.0273 62.4276 79.3276 62.4276 78.4648C62.4276 77.602 61.7281 76.9023 60.8651 76.9023H55.9363V75.9156C55.9363 73.3099 53.8163 71.1901 51.2106 71.1901H47.2124L45.3599 63.4095H69.8773C73.3577 63.4095 76.1892 60.578 76.1892 57.0976V48.218V16.7429C76.1892 13.2625 73.3577 10.431 69.8771 10.431ZM47.4897 37.899C45.0468 39.6091 40.4702 37.2847 36.0996 39.6168C35.0333 34.0771 35.7056 28.867 41.2563 27.717C41.9736 27.5675 42.7459 27.4999 43.4034 27.513C45.2821 28.9069 47.1824 30.3167 49.0558 31.7068C49.8759 34.0924 49.5681 36.4442 47.4897 37.899ZM49.0644 21.1512L53.4873 24.4327L50.0859 28.5797C48.6856 27.5408 47.4819 26.6477 46.0816 25.6086C46.3724 25.1741 48.7986 21.5483 49.0644 21.1512ZM60.0039 4.80295C61.1873 3.03408 63.6008 2.62252 65.3033 3.88578C67.0064 5.14919 67.3114 7.57821 65.9619 9.22364C63.5674 12.1428 57.8747 19.0835 55.4711 22.0139L50.804 18.5511L60.0039 4.80295ZM52.8112 75.9156V76.9023H27.2011V75.9156C27.2011 75.0331 27.9192 74.315 28.8018 74.315H51.2104C52.0931 74.315 52.8112 75.0331 52.8112 75.9156ZM44 71.1901H36.0123L37.8648 63.4095H42.1475L44 71.1901ZM73.0642 57.0976C73.0642 58.8549 71.6346 60.2845 69.8773 60.2845C67.397 60.2845 12.924 60.2845 10.1353 60.2845C8.378 60.2845 6.94834 58.8549 6.94834 57.0976V49.7805H11.4133C12.2762 49.7805 12.9757 49.0808 12.9757 48.218C12.9757 47.3552 12.2762 46.6556 11.4133 46.6556H6.94802V16.7429C6.94802 14.9856 8.37768 13.5559 10.135 13.5559H50.3866C48.8897 15.7929 44.5228 22.319 43.1395 24.386C40.0775 24.4137 37.0206 25.4804 35.0194 27.8166C32.2961 30.9954 31.8177 35.9903 33.5973 42.6624C33.9016 43.8033 35.3251 44.212 36.1865 43.3892C40.2266 39.5288 45.2584 43.7397 49.7644 40.0926C52.5149 37.8661 53.1659 34.3264 52.1287 31.0165C53.5307 29.3072 65.0447 15.2693 66.45 13.5559H69.877C71.6343 13.5559 73.0639 14.9856 73.0639 16.7429V46.6554H23.9127C23.0497 46.6554 22.3502 47.3551 22.3502 48.2179C22.3502 49.0807 23.0497 49.7804 23.9127 49.7804H73.0642V57.0976Z" fill="#00C71C"/>
<path d="M17.3607 46.685C16.6086 46.8387 16.1045 47.4889 16.1045 48.218C16.1045 49.1953 16.9981 49.9438 17.9717 49.7492C18.8368 49.5736 19.3639 48.7398 19.1982 47.9117C19.0243 47.057 18.1953 46.517 17.3607 46.685Z" fill="#00C71C"/>
</g>
<defs>
<clipPath id="clip0_351_826">
<rect width="80" height="80" fill="white" transform="translate(0.00683594 0.0274658)"/>
</clipPath>
</defs>
</svg>
