<svg width="80" height="81" viewBox="0 0 80 81" fill="none" xmlns="http://www.w3.org/2000/svg">
<g clip-path="url(#clip0_351_853)">
<path d="M58.0511 80.0271C45.9464 80.0271 36.0933 70.1833 36.0933 58.0693C36.0933 45.9552 45.937 36.1115 58.0511 36.1115C70.1651 36.1115 80.0089 45.9646 80.0089 58.0693C80.0089 70.174 70.1651 80.0271 58.0511 80.0271ZM58.0511 39.2365C54.3263 39.2365 50.6852 40.341 47.5881 42.4103C44.4911 44.4797 42.0772 47.421 40.6518 50.8623C39.2264 54.3035 38.8535 58.0902 39.5801 61.7434C40.3068 65.3966 42.1005 68.7523 44.7343 71.3861C47.3681 74.0199 50.7238 75.8135 54.377 76.5402C58.0302 77.2669 61.8168 76.8939 65.2581 75.4685C68.6993 74.0431 71.6406 71.6293 73.71 68.5322C75.7794 65.4352 76.8839 61.794 76.8839 58.0693C76.8781 53.0763 74.8921 48.2894 71.3615 44.7588C67.8309 41.2283 63.0441 39.2422 58.0511 39.2365Z" fill="#00C71C"/>
<path d="M58.8616 65.8328C57.1908 65.8331 55.5575 65.3378 54.1682 64.4097C52.7789 63.4815 51.696 62.1622 51.0566 60.6186C50.4172 59.075 50.2499 57.3764 50.5759 55.7377C50.902 54.099 51.7066 52.5938 52.8882 51.4125C58.2866 46.0141 66.9195 47.6625 67.2851 47.7391C67.6526 47.8135 67.9812 48.0177 68.2107 48.3143C68.4401 48.611 68.5553 48.9802 68.5351 49.3547C68.5351 49.4641 68.3866 52.0469 67.9101 55.0078C67.2163 59.2578 66.2116 61.9906 64.8413 63.361C64.0569 64.147 63.1247 64.7701 62.0984 65.1943C61.0722 65.6185 59.9721 65.8356 58.8616 65.8328ZM63.8195 50.5781C61.2976 50.5781 57.6351 51.0844 55.0976 53.6219C54.5899 54.1133 54.185 54.7009 53.9067 55.3503C53.6283 55.9998 53.482 56.6981 53.4762 57.4047C53.4705 58.1113 53.6054 58.8119 53.8732 59.4658C54.1409 60.1197 54.5361 60.7138 55.0357 61.2134C55.5354 61.7131 56.1294 62.1083 56.7833 62.376C57.4372 62.6437 58.1379 62.7787 58.8445 62.7729C59.551 62.7672 60.2494 62.6208 60.8988 62.3425C61.5483 62.0641 62.1358 61.6593 62.6273 61.1516C64.0101 59.7688 64.9616 54.6 65.3132 50.6375C64.8898 50.6031 64.3835 50.5781 63.8195 50.5781Z" fill="#00C71C"/>
<path d="M49.1232 68.6894C49.08 68.6917 49.0367 68.6917 48.9935 68.6894C48.5806 68.6552 48.1981 68.4584 47.9303 68.1422C47.6625 67.826 47.5312 67.4164 47.5654 67.0035C47.806 64.0847 50.2404 61.5691 53.6216 60.7457C54.0145 60.672 54.4207 60.7516 54.7567 60.9683C55.0926 61.185 55.3327 61.5222 55.4276 61.9105C55.5225 62.2989 55.4649 62.7088 55.2668 63.056C55.0686 63.4031 54.7449 63.6612 54.3623 63.7769C52.2888 64.2816 50.8091 65.68 50.6794 67.2566C50.6469 67.6471 50.4689 68.011 50.1807 68.2764C49.8924 68.5418 49.515 68.6892 49.1232 68.6894Z" fill="#00C71C"/>
<path d="M33.7323 33.9025C24.912 33.9025 16.5964 32.2493 10.3198 29.2462C3.66826 26.0681 0.00732422 21.7072 0.00732422 16.965C0.00732422 12.2228 3.66826 7.86184 10.3198 4.68372C16.5964 1.68059 24.912 0.0274658 33.7323 0.0274658C42.5526 0.0274658 50.8667 1.68059 57.1479 4.68372C63.7948 7.86184 67.4604 12.2228 67.4604 16.965C67.4604 21.7072 63.7995 26.0681 57.1479 29.2462C50.8667 32.2493 42.5511 33.9025 33.7323 33.9025ZM33.7323 3.15247C25.3698 3.15247 17.5323 4.69778 11.6636 7.50247C6.2417 10.0947 3.13232 13.5431 3.13232 16.965C3.13232 20.3868 6.2417 23.84 11.6636 26.4275C17.5323 29.2322 25.3698 30.7775 33.7323 30.7775C42.0948 30.7775 49.9308 29.2322 55.7995 26.4337C61.2214 23.8415 64.3308 20.3931 64.3308 16.9712C64.3308 13.5493 61.2214 10.0962 55.7995 7.50872C49.9308 4.69778 42.0948 3.15247 33.7323 3.15247Z" fill="#00C71C"/>
<path d="M33.7323 49.2775C24.912 49.2775 16.5964 47.6243 10.3151 44.6212C3.66826 41.4431 0.00732422 37.0822 0.00732422 32.34C0.00732422 31.9256 0.171944 31.5281 0.46497 31.2351C0.757995 30.9421 1.15542 30.7775 1.56982 30.7775C1.98423 30.7775 2.38165 30.9421 2.67468 31.2351C2.9677 31.5281 3.13232 31.9256 3.13232 32.34C3.13232 35.7618 6.2417 39.215 11.6636 41.8025C17.5323 44.6072 25.3698 46.1525 33.7323 46.1525C36.0025 46.1537 38.2712 46.0364 40.5292 45.8009C40.7365 45.7726 40.9474 45.7861 41.1493 45.8408C41.3513 45.8955 41.5402 45.9902 41.7048 46.1193C41.8695 46.2484 42.0065 46.4092 42.1079 46.5922C42.2092 46.7753 42.2728 46.9768 42.2947 47.1849C42.3167 47.3929 42.2967 47.6033 42.2358 47.8035C42.175 48.0036 42.0745 48.1895 41.9405 48.3502C41.8064 48.5108 41.6415 48.6429 41.4554 48.7386C41.2693 48.8342 41.066 48.8916 40.8573 48.9072C38.4904 49.1551 36.1122 49.2787 33.7323 49.2775Z" fill="#00C71C"/>
<path d="M33.7323 64.6525C24.912 64.6525 16.5964 62.9962 10.3198 59.9962C3.66826 56.8181 0.00732422 52.4572 0.00732422 47.715C0.00732422 47.3006 0.171944 46.9031 0.46497 46.6101C0.757996 46.3171 1.15542 46.1525 1.56982 46.1525C1.98423 46.1525 2.38165 46.3171 2.67468 46.6101C2.9677 46.9031 3.13232 47.3006 3.13232 47.715C3.13232 51.1368 6.2417 54.59 11.6636 57.1775C17.5323 59.9822 25.3698 61.5275 33.7323 61.5275C35.1901 61.5275 36.673 61.479 38.137 61.3822C38.5439 61.3663 38.941 61.5099 39.2436 61.7824C39.5462 62.0549 39.7305 62.4347 39.7571 62.8411C39.7838 63.2474 39.6508 63.6481 39.3864 63.9579C39.1221 64.2676 38.7472 64.4619 38.3417 64.4993C36.8105 64.6009 35.2589 64.6525 33.7323 64.6525Z" fill="#00C71C"/>
<path d="M33.7323 80.0275C24.912 80.0275 16.5964 78.3743 10.3198 75.3712C3.66826 72.1931 0.00732422 67.84 0.00732422 63.09V18.8478C0.00732422 18.4334 0.171944 18.0359 0.46497 17.7429C0.757995 17.4499 1.15542 17.2853 1.56982 17.2853C1.98423 17.2853 2.38165 17.4499 2.67468 17.7429C2.9677 18.0359 3.13232 18.4334 3.13232 18.8478V63.09C3.13232 66.5118 6.2417 69.965 11.6636 72.5525C17.5323 75.3572 25.3698 76.9025 33.7323 76.9025C39.0729 76.9025 44.3401 76.2509 48.9636 75.0197C49.1635 74.9614 49.373 74.9436 49.5799 74.9675C49.7868 74.9913 49.9868 75.0563 50.1682 75.1586C50.3496 75.2608 50.5087 75.3983 50.6362 75.5629C50.7638 75.7276 50.8571 75.916 50.9107 76.1172C50.9643 76.3185 50.9772 76.5284 50.9486 76.7346C50.9199 76.9409 50.8503 77.1393 50.7439 77.3183C50.6375 77.4973 50.4963 77.6532 50.3288 77.7769C50.1612 77.9005 49.9707 77.9894 49.7683 78.0384C44.8854 79.34 39.3401 80.0275 33.7323 80.0275Z" fill="#00C71C"/>
<path d="M65.894 40.8087C65.4796 40.8087 65.0822 40.6441 64.7892 40.3511C64.4962 40.058 64.3315 39.6606 64.3315 39.2462V16.965C64.3315 16.5506 64.4962 16.1531 64.7892 15.8601C65.0822 15.5671 65.4796 15.4025 65.894 15.4025C66.3084 15.4025 66.7059 15.5671 66.9989 15.8601C67.2919 16.1531 67.4565 16.5506 67.4565 16.965V39.2462C67.4565 39.6606 67.2919 40.058 66.9989 40.3511C66.7059 40.6441 66.3084 40.8087 65.894 40.8087Z" fill="#00C71C"/>
<path d="M7.84516 34.5302C7.74281 34.5299 7.64074 34.5195 7.54047 34.4989C7.44042 34.4788 7.34257 34.4489 7.24828 34.4099C7.15379 34.3707 7.06327 34.3226 6.97797 34.2661C6.89237 34.2099 6.81279 34.1449 6.74047 34.0724C6.57702 33.909 6.45185 33.7113 6.37401 33.4937C6.29616 33.2761 6.26756 33.0439 6.29028 32.8138C6.313 32.5838 6.38646 32.3617 6.50538 32.1635C6.6243 31.9653 6.7857 31.796 6.97797 31.6677C7.06327 31.6112 7.15379 31.5631 7.24828 31.5239C7.34257 31.4849 7.44042 31.455 7.54047 31.4349C7.74209 31.3943 7.94978 31.3943 8.15141 31.4349C8.25134 31.4555 8.34915 31.4853 8.44359 31.5239C8.68139 31.6218 8.89137 31.7768 9.05491 31.9752C9.21845 32.1736 9.33049 32.4093 9.38109 32.6614C9.43057 32.913 9.41739 33.1728 9.34273 33.4181C9.26807 33.6633 9.13421 33.8864 8.95297 34.0677C8.88065 34.1402 8.80106 34.2052 8.71547 34.2614C8.63071 34.3179 8.54071 34.366 8.44672 34.4052C8.35228 34.4438 8.25447 34.4736 8.15453 34.4943C8.05286 34.5165 7.94922 34.5285 7.84516 34.5302Z" fill="#00C71C"/>
<path d="M14.1203 37.6673C14.0153 37.6674 13.9106 37.6569 13.8078 37.6361C13.7078 37.6157 13.61 37.5858 13.5156 37.547C13.4216 37.5078 13.3316 37.4597 13.2469 37.4032C13.1637 37.3481 13.0862 37.2848 13.0156 37.2142C12.8344 37.0329 12.7005 36.8098 12.6258 36.5645C12.5512 36.3193 12.538 36.0595 12.5875 35.8079C12.6081 35.708 12.6379 35.6102 12.6765 35.5157C12.8351 35.1331 13.1392 34.829 13.5219 34.6704C13.6162 34.6316 13.7141 34.6018 13.814 34.5814C14.0157 34.5407 14.2234 34.5407 14.425 34.5814C14.525 34.6015 14.6229 34.6314 14.7172 34.6704C14.8117 34.7096 14.9022 34.7577 14.9875 34.8142C15.0725 34.8719 15.152 34.9373 15.225 35.0095C15.2975 35.0818 15.3625 35.1614 15.4187 35.247C15.4752 35.3318 15.5233 35.4218 15.5625 35.5157C15.6011 35.6102 15.6309 35.708 15.6515 35.8079C15.7131 36.1111 15.6828 36.4258 15.5645 36.7116C15.4462 36.9975 15.2453 37.2416 14.9875 37.4126C14.9022 37.4691 14.8117 37.5172 14.7172 37.5564C14.6229 37.5954 14.525 37.6253 14.425 37.6454C14.3244 37.6628 14.2223 37.6701 14.1203 37.6673Z" fill="#00C71C"/>
<path d="M7.8452 50.2181C7.43083 50.218 7.03347 50.0533 6.74051 49.7603C6.66796 49.6879 6.60304 49.6084 6.54676 49.5228C6.43322 49.3528 6.35412 49.1622 6.31395 48.9618C6.2723 48.7603 6.2723 48.5524 6.31395 48.3509C6.33412 48.2508 6.36395 48.153 6.40301 48.0587C6.4425 47.9644 6.49062 47.8739 6.54676 47.7884C6.6034 47.7031 6.6683 47.6235 6.74051 47.5509C6.81283 47.4783 6.89242 47.4134 6.97801 47.3571C7.06312 47.3004 7.15367 47.2522 7.24832 47.2134C7.34261 47.1743 7.44046 47.1445 7.54051 47.1243C7.74213 47.0837 7.94983 47.0837 8.15145 47.1243C8.25197 47.1454 8.35031 47.1757 8.4452 47.215C8.53919 47.2541 8.62919 47.3023 8.71395 47.3587C8.79954 47.415 8.87913 47.4799 8.95145 47.5525C9.02412 47.6251 9.08954 47.7046 9.14676 47.79C9.2029 47.8754 9.25102 47.9659 9.29051 48.0603C9.32958 48.1546 9.3594 48.2524 9.37957 48.3525C9.41917 48.5542 9.41917 48.7617 9.37957 48.9634C9.3394 49.1638 9.26031 49.3544 9.14676 49.5243C9.03199 49.6954 8.88498 49.8424 8.71395 49.9571C8.62919 50.0136 8.53919 50.0617 8.4452 50.1009C8.35076 50.1395 8.25295 50.1694 8.15301 50.19C8.05159 50.2095 7.94848 50.2189 7.8452 50.2181Z" fill="#00C71C"/>
<path d="M14.1222 53.3568C14.0172 53.3569 13.9125 53.3464 13.8097 53.3255C13.7097 53.3049 13.6119 53.2751 13.5175 53.2364C13.4235 53.1973 13.3335 53.1491 13.2487 53.0927C13.1631 53.0364 13.0836 52.9715 13.0112 52.8989C12.9402 52.8261 12.8764 52.7466 12.8206 52.6614C12.7645 52.576 12.7164 52.4855 12.6769 52.3911C12.6378 52.2968 12.608 52.199 12.5878 52.0989C12.5482 51.8972 12.5482 51.6897 12.5878 51.488C12.608 51.388 12.6378 51.2901 12.6769 51.1958C12.7164 51.1015 12.7645 51.011 12.8206 50.9255C12.8778 50.8402 12.9433 50.7606 13.0159 50.688C13.0888 50.6159 13.1689 50.5515 13.255 50.4958C13.4249 50.3823 13.6155 50.3032 13.8159 50.263C14.0175 50.2224 14.2252 50.2224 14.4269 50.263C14.5269 50.2832 14.6248 50.313 14.7191 50.3521C14.8135 50.3912 14.9041 50.4394 14.9894 50.4958C15.075 50.5521 15.1545 50.617 15.2269 50.6896C15.2991 50.7622 15.364 50.8417 15.4206 50.9271C15.4768 51.0126 15.5249 51.103 15.5644 51.1974C15.6034 51.2917 15.6333 51.3895 15.6534 51.4896C15.6951 51.6911 15.6951 51.899 15.6534 52.1005C15.6333 52.2005 15.6034 52.2984 15.5644 52.3927C15.5249 52.487 15.4768 52.5775 15.4206 52.663C15.3075 52.8344 15.1608 52.9811 14.9894 53.0943C14.9041 53.1507 14.8135 53.1988 14.7191 53.238C14.6248 53.2771 14.5269 53.3069 14.4269 53.3271C14.3265 53.3471 14.2245 53.357 14.1222 53.3568Z" fill="#00C71C"/>
<path d="M7.84326 65.9079C7.74097 65.9082 7.6389 65.8982 7.53857 65.8782C7.43853 65.8581 7.34067 65.8282 7.24639 65.7892C7.15174 65.7503 7.06119 65.7022 6.97608 65.6454C6.8908 65.5881 6.81127 65.5227 6.73858 65.4501C6.66603 65.3778 6.6011 65.2982 6.54482 65.2126C6.48839 65.1279 6.44025 65.0379 6.40108 64.9439C6.36243 64.8494 6.33262 64.7516 6.31201 64.6517C6.29113 64.5488 6.28066 64.4441 6.28076 64.3392C6.28102 64.2368 6.29149 64.1348 6.31201 64.0345C6.33218 63.9344 6.36201 63.8366 6.40108 63.7423C6.43991 63.6476 6.48806 63.5571 6.54482 63.472C6.65794 63.3006 6.80464 63.1538 6.97608 63.0407C7.06119 62.984 7.15174 62.9358 7.24639 62.897C7.34067 62.8579 7.43853 62.8281 7.53857 62.8079C7.7402 62.7673 7.94789 62.7673 8.14951 62.8079C8.24945 62.8285 8.34726 62.8583 8.4417 62.897C8.53569 62.9362 8.62569 62.9843 8.71045 63.0407C8.79604 63.097 8.87563 63.1619 8.94795 63.2345C9.02055 63.3072 9.08596 63.3867 9.14326 63.472C9.20003 63.5571 9.24818 63.6476 9.28701 63.7423C9.32608 63.8366 9.35591 63.9344 9.37608 64.0345C9.39608 64.1348 9.40603 64.2369 9.40576 64.3392C9.40638 64.4441 9.39644 64.5488 9.37608 64.6517C9.35547 64.7516 9.32565 64.8494 9.28701 64.9439C9.1288 65.3262 8.82535 65.6303 8.44326 65.7892C8.34882 65.8278 8.25101 65.8576 8.15108 65.8782C8.04971 65.8983 7.9466 65.9082 7.84326 65.9079Z" fill="#00C71C"/>
<path d="M14.1206 69.0454C14.0157 69.0461 13.911 69.0362 13.8081 69.0157C13.6096 68.9734 13.4212 68.8927 13.2535 68.7782C12.996 68.6066 12.7954 68.3625 12.6769 68.0767C12.6378 67.9824 12.608 67.8845 12.5878 67.7845C12.5674 67.6816 12.5575 67.5769 12.5581 67.472C12.5579 67.3697 12.5678 67.2676 12.5878 67.1673C12.608 67.0673 12.6378 66.9694 12.6769 66.8751C12.7157 66.7805 12.7639 66.6899 12.8206 66.6048C12.8774 66.5196 12.9423 66.44 13.0144 66.3673C13.1599 66.2225 13.3324 66.1079 13.5222 66.0298C13.6165 65.9907 13.7143 65.9609 13.8144 65.9407C14.016 65.9001 14.2237 65.9001 14.4253 65.9407C14.5254 65.9609 14.6232 65.9907 14.7175 66.0298C14.8122 66.0686 14.9027 66.1168 14.9878 66.1736C15.0734 66.2298 15.153 66.2948 15.2253 66.3673C15.2975 66.4399 15.3624 66.5195 15.4191 66.6048C15.4758 66.6899 15.524 66.7805 15.5628 66.8751C15.6019 66.9694 15.6317 67.0673 15.6519 67.1673C15.6724 67.2676 15.6829 67.3696 15.6831 67.472C15.6832 67.5769 15.6728 67.6816 15.6519 67.7845C15.6117 67.9849 15.5326 68.1755 15.4191 68.3454C15.3628 68.431 15.2979 68.5106 15.2253 68.5829C15.0807 68.7289 14.9086 68.8449 14.7191 68.9242C14.5295 69.0036 14.3261 69.0448 14.1206 69.0454Z" fill="#00C71C"/>
</g>
<defs>
<clipPath id="clip0_351_853">
<rect width="80" height="80" fill="white" transform="translate(0.00732422 0.0274658)"/>
</clipPath>
</defs>
</svg>
