<svg width="196" height="196" viewBox="0 0 196 196" fill="none" xmlns="http://www.w3.org/2000/svg">
<g clip-path="url(#clip0_351_783)">
<path d="M170.765 122.142C165.142 122.142 159.824 124.03 155.509 127.506C155.362 127.393 155.216 127.277 155.067 127.164C161.355 115.324 164.666 102.05 164.666 88.5989C164.666 43.1997 127.732 6.26569 82.3329 6.26569C36.9338 6.26569 -0.000244141 43.1997 -0.000244141 88.5989C-0.000244141 133.998 36.9338 170.932 82.3329 170.932C95.7289 170.932 108.945 167.651 120.749 161.412C130.794 177.086 153.155 188.408 154.155 188.908C154.582 189.122 155.051 189.228 155.518 189.228C155.985 189.228 156.454 189.122 156.881 188.908C158.445 188.124 195.16 169.502 195.16 146.537C195.16 133.086 184.216 122.142 170.765 122.142Z" fill="url(#paint0_linear_351_783)"/>
<path d="M170.765 122.143C165.148 122.143 159.829 124.027 155.518 127.5C151.206 124.027 145.888 122.143 140.271 122.143C126.82 122.143 115.876 133.087 115.876 146.538C115.876 169.503 152.59 188.125 154.155 188.909C154.581 189.122 155.051 189.229 155.518 189.229C155.984 189.229 156.454 189.122 156.881 188.909C158.445 188.125 195.16 169.503 195.16 146.538C195.16 133.087 184.215 122.143 170.765 122.143Z" fill="#1C9842"/>
<path d="M164.59 85.5494C163.315 50.7285 140.32 21.3783 108.777 10.6506L100.629 21.5125H70.1355L64.0367 30.6606H48.7899L38.2665 42.8581H60.9874L76.8228 55.0556H94.5305V67.2531H71.3156L57.938 58.105L33.543 64.2037L21.3455 76.4012V94.6975L33.543 109.944L45.7405 106.895H60.9874V121.355L70.1355 128.241V143.488L76.2342 155.685H85.3824L103.679 140.438V125.191L125.024 109.944V100.796H106.728L97.5799 88.5988L106.728 79.4506L115.876 88.5988L131.123 85.5494L137.222 76.4012V64.2037H146.37V85.5494H164.59Z" fill="url(#paint1_linear_351_783)"/>
</g>
<defs>
<linearGradient id="paint0_linear_351_783" x1="97.5798" y1="6.26569" x2="97.5798" y2="189.228" gradientUnits="userSpaceOnUse">
<stop offset="0.0024" stop-color="#C9F001"/>
<stop offset="1" stop-color="#66CF59"/>
</linearGradient>
<linearGradient id="paint1_linear_351_783" x1="92.9662" y1="10.6506" x2="92.9662" y2="155.685" gradientUnits="userSpaceOnUse">
<stop stop-color="#3FAF61"/>
<stop offset="1" stop-color="#0E8E35"/>
</linearGradient>
<clipPath id="clip0_351_783">
<rect width="195.16" height="195.16" fill="white" transform="translate(-0.000244141 0.166016)"/>
</clipPath>
</defs>
</svg>
