<svg width="64" height="64" viewBox="0 0 64 64" fill="none" xmlns="http://www.w3.org/2000/svg">
<path d="M56 40C54.156 40 52.412 40.619 50.997 41.759C50.949 41.722 50.901 41.684 50.852 41.647C52.914 37.764 54 33.411 54 29C54 14.112 41.888 2 27 2C12.112 2 0 14.112 0 29C0 43.888 12.112 56 27 56C31.393 56 35.727 54.924 39.598 52.878C42.892 58.018 50.225 61.731 50.553 61.895C50.693 61.965 50.847 62 51 62C51.153 62 51.307 61.965 51.447 61.895C51.96 61.638 64 55.531 64 48C64 43.589 60.411 40 56 40Z" fill="url(#paint0_linear_48_898)"/>
<path d="M56 40C54.158 40 52.414 40.618 51 41.757C49.586 40.618 47.842 40 46 40C41.589 40 38 43.589 38 48C38 55.531 50.04 61.638 50.553 61.895C50.693 61.965 50.847 62 51 62C51.153 62 51.307 61.965 51.447 61.895C51.96 61.638 64 55.531 64 48C64 43.589 60.411 40 56 40Z" fill="#1C9842"/>
<path d="M53.975 28C53.557 16.581 46.016 6.95599 35.672 3.43799L33 6.99999H23L21 9.99999H16L12.549 14H20L25.193 18H31V22H23.387L19 19L11 21L7 25V31L11 36L15 35H20V39.742L23 42V47L25 51H28L34 46V41L41 36V33H35L32 29L35 26L38 29L43 28L45 25V21H48V28H53.975Z" fill="url(#paint1_linear_48_898)"/>
<defs>
<linearGradient id="paint0_linear_48_898" x1="32" y1="2" x2="32" y2="62" gradientUnits="userSpaceOnUse">
<stop offset="0.0024" stop-color="#C9F001"/>
<stop offset="1" stop-color="#66CF59"/>
</linearGradient>
<linearGradient id="paint1_linear_48_898" x1="30.487" y1="3.43799" x2="30.487" y2="51" gradientUnits="userSpaceOnUse">
<stop stop-color="#3FAF61"/>
<stop offset="1" stop-color="#0E8E35"/>
</linearGradient>
</defs>
</svg>
