<svg width="24" height="25" viewBox="0 0 24 25" fill="none" xmlns="http://www.w3.org/2000/svg">
<path d="M6 7.01904H11C11.2652 7.01904 11.5196 7.1244 11.7071 7.31194C11.8946 7.49947 12 7.75383 12 8.01904C12 8.28426 11.8946 8.53861 11.7071 8.72615C11.5196 8.91369 11.2652 9.01904 11 9.01904H6C5.73478 9.01904 5.48043 8.91369 5.29289 8.72615C5.10536 8.53861 5 8.28426 5 8.01904C5 7.75383 5.10536 7.49947 5.29289 7.31194C5.48043 7.1244 5.73478 7.01904 6 7.01904ZM13 15.019H18C18.2652 15.019 18.5196 15.1244 18.7071 15.3119C18.8946 15.4995 19 15.7538 19 16.019C19 16.2843 18.8946 16.5386 18.7071 16.7261C18.5196 16.9137 18.2652 17.019 18 17.019H13C12.7348 17.019 12.4804 16.9137 12.2929 16.7261C12.1054 16.5386 12 16.2843 12 16.019C12 15.7538 12.1054 15.4995 12.2929 15.3119C12.4804 15.1244 12.7348 15.019 13 15.019ZM6 11.019H18C18.2652 11.019 18.5196 11.1244 18.7071 11.3119C18.8946 11.4995 19 11.7538 19 12.019C19 12.2843 18.8946 12.5386 18.7071 12.7261C18.5196 12.9137 18.2652 13.019 18 13.019H6C5.73478 13.019 5.48043 12.9137 5.29289 12.7261C5.10536 12.5386 5 12.2843 5 12.019C5 11.7538 5.10536 11.4995 5.29289 11.3119C5.48043 11.1244 5.73478 11.019 6 11.019Z" fill="#C9F001"/>
</svg>
