<svg width="28" height="21" viewBox="0 0 28 21" fill="none" xmlns="http://www.w3.org/2000/svg">
<path d="M13.0723 20.1689C9.74189 20.1673 6.54821 18.8444 4.19208 16.4906C1.83596 14.1369 0.50987 10.9446 0.504827 7.61419L0.504827 0.187966C3.83411 0.18964 7.02683 1.51165 9.38277 3.86402C11.7387 6.21639 13.0655 9.4071 13.0723 12.7364L13.0723 20.1626L13.0723 20.1689Z" fill="#00C71C"/>
<path d="M15.1033 20.1689L15.1033 12.7427C15.1033 9.40905 16.4272 6.21181 18.7839 3.85395C21.1405 1.49609 24.3371 0.170628 27.6708 0.168945L27.6708 7.61419C27.6657 10.9446 26.3396 14.1369 23.9835 16.4906C21.6274 18.8444 18.4337 20.1673 15.1033 20.1689Z" fill="#C9F001"/>
</svg>
