<svg width="714" height="714" viewBox="0 0 714 714" fill="none" xmlns="http://www.w3.org/2000/svg">
<path d="M9.80283 656.663C3.47761 662.989 -0.00292969 671.389 -0.00292969 680.336C-0.00292969 689.282 3.47761 697.683 9.80283 703.997C16.1169 710.322 24.5282 713.802 33.4638 713.802C42.3994 713.802 50.8108 710.322 57.1248 703.997L223.109 538.013L175.787 490.691L9.80283 656.663Z" fill="url(#paint0_linear_48_940)"/>
<path d="M457.375 370.679L414.102 413.951C407.788 420.277 399.377 423.757 390.441 423.757C381.506 423.757 373.094 420.277 366.78 413.951C360.455 407.626 356.975 399.226 356.975 390.29C356.975 381.355 360.455 372.943 366.78 366.618L403.716 329.693L384.105 310.082L347.169 347.018C334.529 359.668 312.486 359.668 299.847 347.018C293.522 340.693 290.041 332.292 290.041 323.357C290.041 314.421 293.522 306.01 299.847 299.685L343.119 256.423L457.375 370.679Z" fill="url(#paint1_linear_48_940)"/>
<path d="M704.147 9.64993C691.508 -3.0005 669.464 -3.0005 656.825 9.64993L476.986 189.489L524.308 236.811L704.147 56.9719C710.461 50.6467 713.953 42.2466 713.953 33.3109C713.953 24.3753 710.461 15.964 704.147 9.64993Z" fill="url(#paint2_linear_48_940)"/>
<path d="M376.012 482.802L230.99 337.78C226.628 333.418 219.577 333.418 215.216 337.78L138.476 414.519C121.085 431.922 121.085 460.223 138.476 477.615L236.177 575.316C244.577 583.716 255.777 588.345 267.725 588.345C279.673 588.345 290.873 583.716 299.273 575.316L376.012 498.576C380.374 494.214 380.374 487.153 376.012 482.802Z" fill="url(#paint3_linear_48_940)"/>
<path d="M553.161 258.342L455.461 160.641C447.06 152.241 435.86 147.611 423.913 147.611C411.965 147.611 400.765 152.241 392.365 160.641L315.625 237.38C311.264 241.742 311.264 248.792 315.625 253.154L460.648 398.177C462.823 400.352 465.679 401.446 468.535 401.446C471.391 401.446 474.247 400.352 476.422 398.177L553.161 321.438C570.542 304.035 570.542 275.733 553.161 258.342Z" fill="url(#paint4_linear_48_940)"/>
<path d="M313.204 241.028C313.75 239.701 314.553 238.451 315.624 237.38C314.565 238.429 313.75 239.678 313.204 241.028Z" fill="url(#paint5_linear_48_940)"/>
<path d="M315.624 253.153C314.542 252.071 313.739 250.833 313.204 249.505C313.75 250.855 314.565 252.093 315.624 253.153Z" fill="url(#paint6_linear_48_940)"/>
<path d="M490.846 524.156C487.99 524.156 485.134 523.063 482.959 520.888L460.647 498.576C456.286 494.215 456.286 487.164 460.647 482.802C465.009 478.441 472.06 478.441 476.421 482.802L498.733 505.114C503.094 509.475 503.094 516.526 498.733 520.888C496.557 523.063 493.701 524.156 490.846 524.156Z" fill="#C9F001"/>
<path d="M412.753 546.469C406.584 546.469 401.598 541.471 401.598 535.313V501.846C401.598 495.688 406.584 490.691 412.753 490.691C418.922 490.691 423.909 495.688 423.909 501.846V535.313C423.909 541.471 418.922 546.469 412.753 546.469Z" fill="#C9F001"/>
<path d="M513.154 446.068H479.687C473.518 446.068 468.531 441.071 468.531 434.913C468.531 428.755 473.518 423.757 479.687 423.757H513.154C519.323 423.757 524.309 428.755 524.309 434.913C524.309 441.071 519.323 446.068 513.154 446.068Z" fill="#C9F001"/>
<path d="M223.112 256.422C220.256 256.422 217.4 255.329 215.225 253.153L192.913 230.842C188.552 226.48 188.552 219.43 192.913 215.068C197.275 210.706 204.326 210.706 208.687 215.068L230.999 237.379C235.36 241.741 235.36 248.792 230.999 253.153C228.823 255.329 225.967 256.422 223.112 256.422Z" fill="#C9F001"/>
<path d="M278.887 245.268C272.718 245.268 267.731 240.27 267.731 234.112V200.645C267.731 194.487 272.718 189.49 278.887 189.49C285.056 189.49 290.042 194.487 290.042 200.645V234.112C290.042 240.27 285.056 245.268 278.887 245.268Z" fill="#C9F001"/>
<path d="M211.954 312.201H178.488C172.319 312.201 167.332 307.204 167.332 301.046C167.332 294.888 172.319 289.89 178.488 289.89H211.954C218.123 289.89 223.11 294.888 223.11 301.046C223.11 307.204 218.123 312.201 211.954 312.201Z" fill="#C9F001"/>
<path d="M234.263 490.69C231.363 490.69 228.451 489.463 226.343 487.455C224.324 485.335 223.108 482.435 223.108 479.534C223.108 476.634 224.324 473.734 226.343 471.614C230.471 467.486 237.945 467.486 242.184 471.614C244.192 473.734 245.419 476.634 245.419 479.534C245.419 482.435 244.192 485.335 242.184 487.455C240.053 489.452 237.164 490.69 234.263 490.69Z" fill="url(#paint7_linear_48_940)"/>
<path d="M462.953 262.001C459.93 262.001 457.141 260.773 455.032 258.765C453.013 256.646 451.797 253.745 451.797 250.845C451.797 247.945 453.013 245.044 455.032 242.925C459.16 238.797 466.746 238.797 470.873 242.925C472.881 245.044 474.109 247.945 474.109 250.845C474.109 253.745 472.881 256.646 470.873 258.765C468.743 260.762 465.954 262.001 462.953 262.001Z" fill="url(#paint8_linear_48_940)"/>
<defs>
<linearGradient id="paint0_linear_48_940" x1="111.553" y1="713.802" x2="111.553" y2="490.691" gradientUnits="userSpaceOnUse">
<stop stop-color="#3FAF61"/>
<stop offset="1" stop-color="#0E8E35"/>
</linearGradient>
<linearGradient id="paint1_linear_48_940" x1="373.708" y1="423.757" x2="373.708" y2="256.423" gradientUnits="userSpaceOnUse">
<stop stop-color="#3FAF61"/>
<stop offset="1" stop-color="#0E8E35"/>
</linearGradient>
<linearGradient id="paint2_linear_48_940" x1="595.469" y1="236.811" x2="595.469" y2="0.156538" gradientUnits="userSpaceOnUse">
<stop stop-color="#3FAF61"/>
<stop offset="1" stop-color="#0E8E35"/>
</linearGradient>
<linearGradient id="paint3_linear_48_940" x1="252.364" y1="334.511" x2="252.364" y2="588.345" gradientUnits="userSpaceOnUse">
<stop offset="0.0024" stop-color="#8AE37F"/>
<stop offset="1" stop-color="#66CF59"/>
</linearGradient>
<linearGradient id="paint4_linear_48_940" x1="439.274" y1="147.611" x2="439.274" y2="401.446" gradientUnits="userSpaceOnUse">
<stop offset="0.0024" stop-color="#8AE37F"/>
<stop offset="1" stop-color="#66CF59"/>
</linearGradient>
<linearGradient id="paint5_linear_48_940" x1="314.408" y1="241.028" x2="314.408" y2="237.38" gradientUnits="userSpaceOnUse">
<stop stop-color="#3FAF61"/>
<stop offset="1" stop-color="#0E8E35"/>
</linearGradient>
<linearGradient id="paint6_linear_48_940" x1="314.408" y1="253.153" x2="314.408" y2="249.505" gradientUnits="userSpaceOnUse">
<stop stop-color="#3FAF61"/>
<stop offset="1" stop-color="#0E8E35"/>
</linearGradient>
<linearGradient id="paint7_linear_48_940" x1="234.263" y1="490.69" x2="234.263" y2="468.513" gradientUnits="userSpaceOnUse">
<stop stop-color="#3FAF61"/>
<stop offset="1" stop-color="#0E8E35"/>
</linearGradient>
<linearGradient id="paint8_linear_48_940" x1="462.953" y1="262.001" x2="462.953" y2="239.823" gradientUnits="userSpaceOnUse">
<stop stop-color="#3FAF61"/>
<stop offset="1" stop-color="#0E8E35"/>
</linearGradient>
</defs>
</svg>
