<svg width="379" height="301" viewBox="0 0 379 301" fill="none" xmlns="http://www.w3.org/2000/svg">
<path d="M0 0.421875H378.829V292.422C378.829 296.84 375.247 300.422 370.829 300.422H7.99999C3.58171 300.422 0 296.84 0 292.422V0.421875Z" fill="#1465A0"/>
<mask id="mask0_467_726" style="mask-type:alpha" maskUnits="userSpaceOnUse" x="0" y="0" width="379" height="301">
<path d="M0 0.421875H378.829V292.422C378.829 296.84 375.247 300.422 370.829 300.422H7.99999C3.58171 300.422 0 296.84 0 292.422V0.421875Z" fill="#001033"/>
</mask>
<g mask="url(#mask0_467_726)">
<g filter="url(#filter0_b_467_726)">
<rect x="-109.098" y="96.8428" width="597.025" height="107.158" rx="29.9788" fill="url(#paint0_linear_467_726)" fill-opacity="0.6"/>
<rect x="-108.723" y="97.2176" width="596.276" height="106.409" rx="29.604" stroke="url(#paint1_linear_467_726)" stroke-width="0.749657"/>
<g filter="url(#filter1_ii_467_726)">
<rect x="3.16443" y="109.599" width="81.6445" height="81.6445" rx="17.955" fill="url(#paint2_linear_467_726)"/>
<rect x="3.16443" y="109.599" width="81.6445" height="81.6445" rx="17.955" fill="url(#paint3_linear_467_726)" fill-opacity="0.1" style="mix-blend-mode:soft-light"/>
</g>
<g filter="url(#filter2_dd_467_726)">
<g filter="url(#filter3_iiii_467_726)">
<path d="M22.6228 170.514H49.2857C54.2804 170.514 57.2622 167.644 57.2622 162.695V138.174C57.2622 133.2 54.5288 130.33 49.5342 130.33H22.6228C17.8518 130.33 14.6463 133.2 14.6463 138.174V162.695C14.6463 167.644 17.6282 170.514 22.6228 170.514ZM58.573 157.722L67.618 165.516C68.4628 166.258 69.4568 166.728 70.3514 166.728C72.2896 166.728 73.5569 165.318 73.5569 163.289V137.555C73.5569 135.526 72.2896 134.116 70.3514 134.116C69.4568 134.116 68.4628 134.586 67.618 135.328L58.573 143.098V157.722Z" fill="white"/>
<path d="M22.6228 170.514H49.2857C54.2804 170.514 57.2622 167.644 57.2622 162.695V138.174C57.2622 133.2 54.5288 130.33 49.5342 130.33H22.6228C17.8518 130.33 14.6463 133.2 14.6463 138.174V162.695C14.6463 167.644 17.6282 170.514 22.6228 170.514ZM58.573 157.722L67.618 165.516C68.4628 166.258 69.4568 166.728 70.3514 166.728C72.2896 166.728 73.5569 165.318 73.5569 163.289V137.555C73.5569 135.526 72.2896 134.116 70.3514 134.116C69.4568 134.116 68.4628 134.586 67.618 135.328L58.573 143.098V157.722Z" fill="url(#paint4_linear_467_726)"/>
</g>
</g>
<g filter="url(#filter4_ii_467_726)">
<circle cx="140.939" cy="150.421" r="34.4438" fill="#737472"/>
</g>
<g filter="url(#filter5_ddii_467_726)">
<path fill-rule="evenodd" clip-rule="evenodd" d="M121.05 149.379L118.49 148.927L121.085 148.739C121.12 148.283 121.17 147.833 121.234 147.388L118.756 146.686L121.335 146.756C121.415 146.305 121.511 145.86 121.621 145.419L119.247 144.477L121.785 144.802C121.912 144.361 122.053 143.925 122.209 143.496L119.96 142.33L122.435 142.908C122.607 142.479 122.793 142.058 122.993 141.646L120.894 140.263L123.281 141.084C123.497 140.675 123.726 140.274 123.969 139.881L122.016 138.305L124.301 139.358C124.558 138.971 124.828 138.595 125.11 138.229L123.339 136.47L125.496 137.743C125.791 137.384 126.099 137.037 126.418 136.701L124.84 134.778L126.851 136.259C127.181 135.932 127.522 135.616 127.875 135.313L126.504 133.252L128.348 134.923C128.712 134.631 129.084 134.352 129.467 134.086L128.314 131.901L129.977 133.745C130.368 133.49 130.767 133.25 131.176 133.025L130.253 130.734L131.717 132.735C132.129 132.523 132.552 132.324 132.986 132.141L132.299 129.771L133.554 131.91C133.988 131.741 134.429 131.587 134.877 131.45L134.432 129.02L135.467 131.279C135.914 131.153 136.368 131.044 136.828 130.953L136.631 128.484L137.434 130.844C137.89 130.768 138.351 130.708 138.818 130.665L138.872 128.177L139.435 130.617C139.844 130.591 140.255 130.577 140.67 130.577H140.825L141.133 128.097L141.448 130.591C141.914 130.609 142.374 130.643 142.83 130.694L143.39 128.247L143.451 130.772C143.911 130.837 144.365 130.918 144.812 131.014L145.62 128.628L145.424 131.159C145.874 131.268 146.315 131.394 146.749 131.539L147.804 129.23L147.349 131.744C147.781 131.899 148.205 132.07 148.622 132.256L149.911 130.049L149.2 132.521C149.611 132.72 150.014 132.932 150.408 133.158L151.927 131.076L150.958 133.483C151.344 133.72 151.721 133.971 152.089 134.234L153.825 132.298L152.608 134.618C152.965 134.891 153.314 135.177 153.65 135.474L155.592 133.708L154.129 135.92C154.455 136.226 154.77 136.543 155.073 136.871L157.208 135.301L155.519 137.361C155.809 137.697 156.089 138.042 156.357 138.397L158.654 137.034L156.748 138.938C157.001 139.298 157.243 139.667 157.473 140.046L159.916 138.913L157.811 140.623C158.025 141.005 158.226 141.394 158.415 141.791L160.983 140.903L158.695 142.408C158.87 142.806 159.03 143.211 159.175 143.624L161.843 142.994L159.389 144.271C159.519 144.683 159.636 145.1 159.739 145.521L162.487 145.161L159.9 146.194C159.985 146.612 160.057 147.036 160.117 147.465L162.908 147.382L160.202 148.153C160.245 148.572 160.275 148.998 160.292 149.432L163.103 149.634L160.309 150.126V150.199C160.309 150.602 160.294 151.002 160.271 151.399L163.068 151.888L160.216 152.105C160.175 152.528 160.121 152.946 160.054 153.36L162.805 154.136L159.928 154.061C159.845 154.474 159.75 154.884 159.641 155.287L162.316 156.348L159.439 155.976C159.317 156.376 159.18 156.772 159.033 157.161L161.602 158.489L158.766 157.83C158.602 158.214 158.428 158.592 158.243 158.962L160.677 160.553L157.907 159.604C157.708 159.969 157.497 160.326 157.276 160.675L159.555 162.518L156.88 161.289C156.646 161.629 156.403 161.962 156.149 162.287L158.235 164.354L155.684 162.848C155.419 163.163 155.144 163.469 154.86 163.766L156.732 166.044L154.345 164.288C154.05 164.577 153.747 164.855 153.436 165.121L155.073 167.58L152.869 165.588C152.549 165.843 152.219 166.087 151.882 166.321L153.264 168.937L151.272 166.731C150.928 166.952 150.575 167.163 150.217 167.362L151.327 170.104L149.568 167.708C149.203 167.894 148.831 168.068 148.455 168.231L149.277 171.069L147.771 168.51C147.39 168.657 147.003 168.793 146.61 168.918L147.153 171.822L145.906 169.127C145.514 169.236 145.116 169.333 144.713 169.417L144.95 172.357L143.987 169.554C143.584 169.623 143.177 169.679 142.765 169.723L142.704 172.666L142.041 169.786C141.619 169.818 141.193 169.834 140.763 169.834L140.399 172.746L140.03 169.822C139.615 169.808 139.202 169.782 138.793 169.744L138.142 172.591L138.075 169.663C137.661 169.609 137.251 169.542 136.845 169.462L135.912 172.212L136.14 169.308C135.732 169.212 135.329 169.104 134.932 168.982L133.732 171.61L134.25 168.761C133.852 168.623 133.46 168.473 133.075 168.312L131.624 170.789L132.423 168.024C132.04 167.846 131.662 167.658 131.293 167.457L129.61 169.76L130.678 167.107C130.313 166.891 129.955 166.663 129.606 166.424L127.712 168.531L129.032 166.018C128.689 165.765 128.355 165.502 128.029 165.227L125.946 167.118L127.502 164.768C127.184 164.48 126.876 164.182 126.578 163.876L124.334 165.533L126.105 163.372C125.815 163.052 125.537 162.723 125.269 162.385L122.89 163.795L124.853 161.843C124.595 161.493 124.348 161.137 124.114 160.77L121.628 161.92L123.759 160.191C123.536 159.815 123.326 159.432 123.128 159.042L120.564 159.925L122.836 158.434C122.652 158.036 122.481 157.631 122.322 157.219L119.706 157.834L122.093 156.592C121.95 156.174 121.821 155.75 121.705 155.321L119.064 155.665L121.543 154.68C121.443 154.249 121.357 153.812 121.285 153.369L118.645 153.444L121.191 152.722C121.134 152.279 121.093 151.833 121.067 151.384L118.453 151.187L121.038 150.73C121.031 150.556 121.031 150.382 121.031 150.207V150.207C121.031 149.929 121.039 149.653 121.05 149.379ZM140.776 167.206C150.046 167.206 157.562 159.691 157.562 150.421C157.562 141.151 150.046 133.635 140.776 133.635C131.506 133.635 123.991 141.151 123.991 150.421C123.991 159.691 131.506 167.206 140.776 167.206Z" fill="url(#paint5_linear_467_726)"/>
<path fill-rule="evenodd" clip-rule="evenodd" d="M121.05 149.379L118.49 148.927L121.085 148.739C121.12 148.283 121.17 147.833 121.234 147.388L118.756 146.686L121.335 146.756C121.415 146.305 121.511 145.86 121.621 145.419L119.247 144.477L121.785 144.802C121.912 144.361 122.053 143.925 122.209 143.496L119.96 142.33L122.435 142.908C122.607 142.479 122.793 142.058 122.993 141.646L120.894 140.263L123.281 141.084C123.497 140.675 123.726 140.274 123.969 139.881L122.016 138.305L124.301 139.358C124.558 138.971 124.828 138.595 125.11 138.229L123.339 136.47L125.496 137.743C125.791 137.384 126.099 137.037 126.418 136.701L124.84 134.778L126.851 136.259C127.181 135.932 127.522 135.616 127.875 135.313L126.504 133.252L128.348 134.923C128.712 134.631 129.084 134.352 129.467 134.086L128.314 131.901L129.977 133.745C130.368 133.49 130.767 133.25 131.176 133.025L130.253 130.734L131.717 132.735C132.129 132.523 132.552 132.324 132.986 132.141L132.299 129.771L133.554 131.91C133.988 131.741 134.429 131.587 134.877 131.45L134.432 129.02L135.467 131.279C135.914 131.153 136.368 131.044 136.828 130.953L136.631 128.484L137.434 130.844C137.89 130.768 138.351 130.708 138.818 130.665L138.872 128.177L139.435 130.617C139.844 130.591 140.255 130.577 140.67 130.577H140.825L141.133 128.097L141.448 130.591C141.914 130.609 142.374 130.643 142.83 130.694L143.39 128.247L143.451 130.772C143.911 130.837 144.365 130.918 144.812 131.014L145.62 128.628L145.424 131.159C145.874 131.268 146.315 131.394 146.749 131.539L147.804 129.23L147.349 131.744C147.781 131.899 148.205 132.07 148.622 132.256L149.911 130.049L149.2 132.521C149.611 132.72 150.014 132.932 150.408 133.158L151.927 131.076L150.958 133.483C151.344 133.72 151.721 133.971 152.089 134.234L153.825 132.298L152.608 134.618C152.965 134.891 153.314 135.177 153.65 135.474L155.592 133.708L154.129 135.92C154.455 136.226 154.77 136.543 155.073 136.871L157.208 135.301L155.519 137.361C155.809 137.697 156.089 138.042 156.357 138.397L158.654 137.034L156.748 138.938C157.001 139.298 157.243 139.667 157.473 140.046L159.916 138.913L157.811 140.623C158.025 141.005 158.226 141.394 158.415 141.791L160.983 140.903L158.695 142.408C158.87 142.806 159.03 143.211 159.175 143.624L161.843 142.994L159.389 144.271C159.519 144.683 159.636 145.1 159.739 145.521L162.487 145.161L159.9 146.194C159.985 146.612 160.057 147.036 160.117 147.465L162.908 147.382L160.202 148.153C160.245 148.572 160.275 148.998 160.292 149.432L163.103 149.634L160.309 150.126V150.199C160.309 150.602 160.294 151.002 160.271 151.399L163.068 151.888L160.216 152.105C160.175 152.528 160.121 152.946 160.054 153.36L162.805 154.136L159.928 154.061C159.845 154.474 159.75 154.884 159.641 155.287L162.316 156.348L159.439 155.976C159.317 156.376 159.18 156.772 159.033 157.161L161.602 158.489L158.766 157.83C158.602 158.214 158.428 158.592 158.243 158.962L160.677 160.553L157.907 159.604C157.708 159.969 157.497 160.326 157.276 160.675L159.555 162.518L156.88 161.289C156.646 161.629 156.403 161.962 156.149 162.287L158.235 164.354L155.684 162.848C155.419 163.163 155.144 163.469 154.86 163.766L156.732 166.044L154.345 164.288C154.05 164.577 153.747 164.855 153.436 165.121L155.073 167.58L152.869 165.588C152.549 165.843 152.219 166.087 151.882 166.321L153.264 168.937L151.272 166.731C150.928 166.952 150.575 167.163 150.217 167.362L151.327 170.104L149.568 167.708C149.203 167.894 148.831 168.068 148.455 168.231L149.277 171.069L147.771 168.51C147.39 168.657 147.003 168.793 146.61 168.918L147.153 171.822L145.906 169.127C145.514 169.236 145.116 169.333 144.713 169.417L144.95 172.357L143.987 169.554C143.584 169.623 143.177 169.679 142.765 169.723L142.704 172.666L142.041 169.786C141.619 169.818 141.193 169.834 140.763 169.834L140.399 172.746L140.03 169.822C139.615 169.808 139.202 169.782 138.793 169.744L138.142 172.591L138.075 169.663C137.661 169.609 137.251 169.542 136.845 169.462L135.912 172.212L136.14 169.308C135.732 169.212 135.329 169.104 134.932 168.982L133.732 171.61L134.25 168.761C133.852 168.623 133.46 168.473 133.075 168.312L131.624 170.789L132.423 168.024C132.04 167.846 131.662 167.658 131.293 167.457L129.61 169.76L130.678 167.107C130.313 166.891 129.955 166.663 129.606 166.424L127.712 168.531L129.032 166.018C128.689 165.765 128.355 165.502 128.029 165.227L125.946 167.118L127.502 164.768C127.184 164.48 126.876 164.182 126.578 163.876L124.334 165.533L126.105 163.372C125.815 163.052 125.537 162.723 125.269 162.385L122.89 163.795L124.853 161.843C124.595 161.493 124.348 161.137 124.114 160.77L121.628 161.92L123.759 160.191C123.536 159.815 123.326 159.432 123.128 159.042L120.564 159.925L122.836 158.434C122.652 158.036 122.481 157.631 122.322 157.219L119.706 157.834L122.093 156.592C121.95 156.174 121.821 155.75 121.705 155.321L119.064 155.665L121.543 154.68C121.443 154.249 121.357 153.812 121.285 153.369L118.645 153.444L121.191 152.722C121.134 152.279 121.093 151.833 121.067 151.384L118.453 151.187L121.038 150.73C121.031 150.556 121.031 150.382 121.031 150.207V150.207C121.031 149.929 121.039 149.653 121.05 149.379ZM140.776 167.206C150.046 167.206 157.562 159.691 157.562 150.421C157.562 141.151 150.046 133.635 140.776 133.635C131.506 133.635 123.991 141.151 123.991 150.421C123.991 159.691 131.506 167.206 140.776 167.206Z" fill="url(#paint6_linear_467_726)" fill-opacity="0.1" style="mix-blend-mode:soft-light"/>
</g>
<g filter="url(#filter6_ddii_467_726)">
<path fill-rule="evenodd" clip-rule="evenodd" d="M111.905 148.866L108.144 148.202L111.958 147.925C112.009 147.255 112.082 146.593 112.176 145.938L108.534 144.906L112.325 145.01C112.443 144.346 112.583 143.691 112.746 143.044L109.257 141.658L112.986 142.136C113.172 141.487 113.38 140.846 113.61 140.215L110.304 138.501L113.942 139.35C114.195 138.72 114.468 138.101 114.761 137.494L111.677 135.461L115.185 136.668C115.502 136.067 115.839 135.477 116.196 134.9L113.326 132.581L116.684 134.13C117.062 133.562 117.458 133.009 117.872 132.47L115.27 129.883L118.44 131.755C118.874 131.228 119.326 130.717 119.795 130.223L117.475 127.396L120.432 129.574C120.916 129.092 121.418 128.628 121.937 128.182L119.921 125.152L122.632 127.609C123.166 127.179 123.714 126.768 124.276 126.378L122.581 123.165L125.026 125.876C125.6 125.502 126.187 125.149 126.788 124.817L125.431 121.449L127.584 124.391C128.188 124.079 128.81 123.788 129.448 123.517L128.438 120.033L130.283 123.178C130.921 122.929 131.569 122.704 132.227 122.502L131.573 118.928L133.095 122.25C133.751 122.065 134.418 121.905 135.094 121.771L134.806 118.14L135.986 121.61C136.655 121.499 137.333 121.411 138.019 121.347L138.098 117.689L138.926 121.277C139.527 121.239 140.132 121.218 140.741 121.218H140.969L141.422 117.571L141.884 121.239C142.569 121.264 143.246 121.315 143.916 121.39L144.738 117.791L144.828 121.505C145.504 121.601 146.171 121.719 146.829 121.861L148.015 118.353L147.728 122.074C148.388 122.234 149.038 122.42 149.675 122.632L151.225 119.238L150.557 122.934C151.192 123.162 151.815 123.413 152.428 123.687L154.322 120.441L153.278 124.077C153.881 124.37 154.473 124.682 155.052 125.013L157.285 121.952L155.861 125.492C156.429 125.84 156.982 126.208 157.522 126.595L160.074 123.749L158.286 127.16C158.811 127.561 159.323 127.982 159.817 128.419L162.671 125.822L160.522 129.075C161 129.525 161.463 129.992 161.909 130.473L165.046 128.164L162.565 131.194C162.991 131.688 163.401 132.196 163.796 132.717L167.171 130.712L164.37 133.513C164.743 134.042 165.098 134.585 165.437 135.142L169.026 133.476L165.932 135.991C166.247 136.552 166.543 137.124 166.821 137.708L170.595 136.402L167.232 138.615C167.489 139.201 167.724 139.797 167.937 140.403L171.858 139.476L168.251 141.355C168.443 141.961 168.615 142.574 168.766 143.193L172.805 142.664L169.002 144.182C169.128 144.798 169.234 145.421 169.321 146.051L173.424 145.93L169.447 147.064C169.51 147.679 169.554 148.306 169.579 148.944L173.709 149.242L169.603 149.964V150.073C169.603 150.664 169.583 151.253 169.547 151.836L173.658 152.556L169.468 152.874C169.407 153.496 169.327 154.112 169.229 154.721L173.273 155.861L169.044 155.751C168.922 156.359 168.782 156.961 168.623 157.555L172.553 159.114L168.326 158.567C168.146 159.156 167.945 159.738 167.728 160.31L171.504 162.262L167.336 161.294C167.095 161.859 166.839 162.413 166.567 162.959L170.145 165.298L166.074 163.903C165.781 164.439 165.472 164.963 165.146 165.477L168.495 168.188L164.564 166.379C164.221 166.88 163.863 167.37 163.49 167.848L166.556 170.887L162.807 168.672C162.417 169.136 162.013 169.586 161.595 170.023L164.347 173.372L160.839 170.79C160.406 171.215 159.96 171.623 159.503 172.015L161.909 175.631L158.669 172.702C158.199 173.077 157.714 173.435 157.219 173.78L159.249 177.626L156.322 174.383C155.816 174.708 155.298 175.017 154.772 175.311L156.403 179.342L153.818 175.819C153.282 176.092 152.735 176.349 152.182 176.588L153.391 180.761L151.177 176.998C150.617 177.215 150.048 177.415 149.471 177.599L150.269 181.869L148.436 177.905C147.86 178.066 147.275 178.208 146.682 178.333L147.031 182.656L145.615 178.533C145.023 178.634 144.425 178.717 143.82 178.782L143.731 183.11L142.756 178.875C142.135 178.921 141.509 178.945 140.878 178.945L140.342 183.228L139.8 178.927C139.19 178.907 138.584 178.869 137.982 178.812L137.025 183L136.926 178.694C136.318 178.615 135.716 178.516 135.12 178.398L133.748 182.442L134.083 178.171C133.484 178.031 132.892 177.872 132.308 177.693L130.545 181.557L131.305 177.368C130.721 177.165 130.145 176.945 129.578 176.708L127.446 180.35L128.62 176.283C128.057 176.022 127.502 175.746 126.96 175.449L124.487 178.836L126.056 174.936C125.519 174.617 124.994 174.282 124.48 173.931L121.696 177.03L123.637 173.333C123.133 172.962 122.642 172.575 122.163 172.171L119.102 174.952L121.388 171.496C120.921 171.072 120.468 170.635 120.03 170.184L116.732 172.621L119.335 169.443C118.909 168.973 118.5 168.489 118.107 167.991L114.61 170.064L117.494 167.194C117.116 166.681 116.753 166.156 116.408 165.617L112.755 167.307L115.887 164.765C115.56 164.213 115.251 163.649 114.961 163.075L111.191 164.375L114.53 162.182C114.26 161.596 114.009 161.001 113.776 160.395L109.931 161.299L113.439 159.473C113.229 158.858 113.038 158.236 112.868 157.604L108.987 158.11L112.631 156.662C112.484 156.027 112.358 155.384 112.251 154.734L108.372 154.844L112.113 153.782C112.03 153.131 111.969 152.475 111.931 151.814L108.089 151.525L111.888 150.852C111.878 150.597 111.878 150.341 111.878 150.084V150.084C111.878 149.676 111.889 149.269 111.905 148.866ZM132.031 131.231L140.676 146.035C141.554 147.538 143.164 148.463 144.905 148.463L160.963 148.463C163.901 148.463 166.215 145.861 165.449 143.024C160.691 125.416 144.839 122.689 134.396 124.949C131.589 125.556 130.582 128.75 132.031 131.231ZM161.49 151.359L144.347 151.444C142.606 151.452 141 152.385 140.13 153.892L132.101 167.799C130.632 170.344 131.728 173.648 134.568 174.403C152.196 179.087 162.484 166.722 165.748 156.549C166.625 153.814 164.363 151.345 161.49 151.359ZM137.813 152.02L129.315 166.909C127.891 169.404 124.622 170.129 122.691 168.002C115.513 160.088 109.949 144.997 122.819 132.072C124.893 129.989 128.303 130.693 129.772 133.238L137.801 147.144C138.672 148.652 138.676 150.508 137.813 152.02ZM142.254 149.818C142.254 150.611 141.612 151.253 140.819 151.253C140.026 151.253 139.384 150.611 139.384 149.818C139.384 149.025 140.026 148.383 140.819 148.383C141.612 148.383 142.254 149.025 142.254 149.818Z" fill="url(#paint7_linear_467_726)"/>
<path fill-rule="evenodd" clip-rule="evenodd" d="M111.905 148.866L108.144 148.202L111.958 147.925C112.009 147.255 112.082 146.593 112.176 145.938L108.534 144.906L112.325 145.01C112.443 144.346 112.583 143.691 112.746 143.044L109.257 141.658L112.986 142.136C113.172 141.487 113.38 140.846 113.61 140.215L110.304 138.501L113.942 139.35C114.195 138.72 114.468 138.101 114.761 137.494L111.677 135.461L115.185 136.668C115.502 136.067 115.839 135.477 116.196 134.9L113.326 132.581L116.684 134.13C117.062 133.562 117.458 133.009 117.872 132.47L115.27 129.883L118.44 131.755C118.874 131.228 119.326 130.717 119.795 130.223L117.475 127.396L120.432 129.574C120.916 129.092 121.418 128.628 121.937 128.182L119.921 125.152L122.632 127.609C123.166 127.179 123.714 126.768 124.276 126.378L122.581 123.165L125.026 125.876C125.6 125.502 126.187 125.149 126.788 124.817L125.431 121.449L127.584 124.391C128.188 124.079 128.81 123.788 129.448 123.517L128.438 120.033L130.283 123.178C130.921 122.929 131.569 122.704 132.227 122.502L131.573 118.928L133.095 122.25C133.751 122.065 134.418 121.905 135.094 121.771L134.806 118.14L135.986 121.61C136.655 121.499 137.333 121.411 138.019 121.347L138.098 117.689L138.926 121.277C139.527 121.239 140.132 121.218 140.741 121.218H140.969L141.422 117.571L141.884 121.239C142.569 121.264 143.246 121.315 143.916 121.39L144.738 117.791L144.828 121.505C145.504 121.601 146.171 121.719 146.829 121.861L148.015 118.353L147.728 122.074C148.388 122.234 149.038 122.42 149.675 122.632L151.225 119.238L150.557 122.934C151.192 123.162 151.815 123.413 152.428 123.687L154.322 120.441L153.278 124.077C153.881 124.37 154.473 124.682 155.052 125.013L157.285 121.952L155.861 125.492C156.429 125.84 156.982 126.208 157.522 126.595L160.074 123.749L158.286 127.16C158.811 127.561 159.323 127.982 159.817 128.419L162.671 125.822L160.522 129.075C161 129.525 161.463 129.992 161.909 130.473L165.046 128.164L162.565 131.194C162.991 131.688 163.401 132.196 163.796 132.717L167.171 130.712L164.37 133.513C164.743 134.042 165.098 134.585 165.437 135.142L169.026 133.476L165.932 135.991C166.247 136.552 166.543 137.124 166.821 137.708L170.595 136.402L167.232 138.615C167.489 139.201 167.724 139.797 167.937 140.403L171.858 139.476L168.251 141.355C168.443 141.961 168.615 142.574 168.766 143.193L172.805 142.664L169.002 144.182C169.128 144.798 169.234 145.421 169.321 146.051L173.424 145.93L169.447 147.064C169.51 147.679 169.554 148.306 169.579 148.944L173.709 149.242L169.603 149.964V150.073C169.603 150.664 169.583 151.253 169.547 151.836L173.658 152.556L169.468 152.874C169.407 153.496 169.327 154.112 169.229 154.721L173.273 155.861L169.044 155.751C168.922 156.359 168.782 156.961 168.623 157.555L172.553 159.114L168.326 158.567C168.146 159.156 167.945 159.738 167.728 160.31L171.504 162.262L167.336 161.294C167.095 161.859 166.839 162.413 166.567 162.959L170.145 165.298L166.074 163.903C165.781 164.439 165.472 164.963 165.146 165.477L168.495 168.188L164.564 166.379C164.221 166.88 163.863 167.37 163.49 167.848L166.556 170.887L162.807 168.672C162.417 169.136 162.013 169.586 161.595 170.023L164.347 173.372L160.839 170.79C160.406 171.215 159.96 171.623 159.503 172.015L161.909 175.631L158.669 172.702C158.199 173.077 157.714 173.435 157.219 173.78L159.249 177.626L156.322 174.383C155.816 174.708 155.298 175.017 154.772 175.311L156.403 179.342L153.818 175.819C153.282 176.092 152.735 176.349 152.182 176.588L153.391 180.761L151.177 176.998C150.617 177.215 150.048 177.415 149.471 177.599L150.269 181.869L148.436 177.905C147.86 178.066 147.275 178.208 146.682 178.333L147.031 182.656L145.615 178.533C145.023 178.634 144.425 178.717 143.82 178.782L143.731 183.11L142.756 178.875C142.135 178.921 141.509 178.945 140.878 178.945L140.342 183.228L139.8 178.927C139.19 178.907 138.584 178.869 137.982 178.812L137.025 183L136.926 178.694C136.318 178.615 135.716 178.516 135.12 178.398L133.748 182.442L134.083 178.171C133.484 178.031 132.892 177.872 132.308 177.693L130.545 181.557L131.305 177.368C130.721 177.165 130.145 176.945 129.578 176.708L127.446 180.35L128.62 176.283C128.057 176.022 127.502 175.746 126.96 175.449L124.487 178.836L126.056 174.936C125.519 174.617 124.994 174.282 124.48 173.931L121.696 177.03L123.637 173.333C123.133 172.962 122.642 172.575 122.163 172.171L119.102 174.952L121.388 171.496C120.921 171.072 120.468 170.635 120.03 170.184L116.732 172.621L119.335 169.443C118.909 168.973 118.5 168.489 118.107 167.991L114.61 170.064L117.494 167.194C117.116 166.681 116.753 166.156 116.408 165.617L112.755 167.307L115.887 164.765C115.56 164.213 115.251 163.649 114.961 163.075L111.191 164.375L114.53 162.182C114.26 161.596 114.009 161.001 113.776 160.395L109.931 161.299L113.439 159.473C113.229 158.858 113.038 158.236 112.868 157.604L108.987 158.11L112.631 156.662C112.484 156.027 112.358 155.384 112.251 154.734L108.372 154.844L112.113 153.782C112.03 153.131 111.969 152.475 111.931 151.814L108.089 151.525L111.888 150.852C111.878 150.597 111.878 150.341 111.878 150.084V150.084C111.878 149.676 111.889 149.269 111.905 148.866ZM132.031 131.231L140.676 146.035C141.554 147.538 143.164 148.463 144.905 148.463L160.963 148.463C163.901 148.463 166.215 145.861 165.449 143.024C160.691 125.416 144.839 122.689 134.396 124.949C131.589 125.556 130.582 128.75 132.031 131.231ZM161.49 151.359L144.347 151.444C142.606 151.452 141 152.385 140.13 153.892L132.101 167.799C130.632 170.344 131.728 173.648 134.568 174.403C152.196 179.087 162.484 166.722 165.748 156.549C166.625 153.814 164.363 151.345 161.49 151.359ZM137.813 152.02L129.315 166.909C127.891 169.404 124.622 170.129 122.691 168.002C115.513 160.088 109.949 144.997 122.819 132.072C124.893 129.989 128.303 130.693 129.772 133.238L137.801 147.144C138.672 148.652 138.676 150.508 137.813 152.02ZM142.254 149.818C142.254 150.611 141.612 151.253 140.819 151.253C140.026 151.253 139.384 150.611 139.384 149.818C139.384 149.025 140.026 148.383 140.819 148.383C141.612 148.383 142.254 149.025 142.254 149.818Z" fill="url(#paint8_linear_467_726)" fill-opacity="0.1" style="mix-blend-mode:soft-light"/>
</g>
<g filter="url(#filter7_i_467_726)">
<circle cx="140.939" cy="150.421" r="34.4438" fill="#737472" fill-opacity="0.01"/>
</g>
<g filter="url(#filter8_ii_467_726)">
<path fill-rule="evenodd" clip-rule="evenodd" d="M102.072 119.403C100.115 123.244 100.115 128.271 100.115 138.327V162.516C100.115 172.571 100.115 177.599 102.072 181.44C103.793 184.819 106.54 187.565 109.919 189.287C113.759 191.244 118.787 191.244 128.843 191.244H153.031C163.087 191.244 168.115 191.244 171.956 189.287C175.334 187.565 178.081 184.819 179.802 181.44C181.759 177.599 181.759 172.571 181.759 162.516V138.327C181.759 128.271 181.759 123.244 179.802 119.403C178.081 116.024 175.334 113.278 171.956 111.556C168.115 109.599 163.087 109.599 153.031 109.599H128.843C118.787 109.599 113.759 109.599 109.919 111.556C106.54 113.278 103.793 116.024 102.072 119.403ZM140.939 184.865C159.961 184.865 175.382 169.444 175.382 150.421C175.382 131.399 159.961 115.978 140.939 115.978C121.916 115.978 106.495 131.399 106.495 150.421C106.495 169.444 121.916 184.865 140.939 184.865Z" fill="url(#paint9_linear_467_726)"/>
<path fill-rule="evenodd" clip-rule="evenodd" d="M102.072 119.403C100.115 123.244 100.115 128.271 100.115 138.327V162.516C100.115 172.571 100.115 177.599 102.072 181.44C103.793 184.819 106.54 187.565 109.919 189.287C113.759 191.244 118.787 191.244 128.843 191.244H153.031C163.087 191.244 168.115 191.244 171.956 189.287C175.334 187.565 178.081 184.819 179.802 181.44C181.759 177.599 181.759 172.571 181.759 162.516V138.327C181.759 128.271 181.759 123.244 179.802 119.403C178.081 116.024 175.334 113.278 171.956 111.556C168.115 109.599 163.087 109.599 153.031 109.599H128.843C118.787 109.599 113.759 109.599 109.919 111.556C106.54 113.278 103.793 116.024 102.072 119.403ZM140.939 184.865C159.961 184.865 175.382 169.444 175.382 150.421C175.382 131.399 159.961 115.978 140.939 115.978C121.916 115.978 106.495 131.399 106.495 150.421C106.495 169.444 121.916 184.865 140.939 184.865Z" fill="url(#paint10_linear_467_726)" fill-opacity="0.1" style="mix-blend-mode:soft-light"/>
</g>
<g filter="url(#filter9_ii_467_726)">
<rect x="291.843" y="109.6" width="81.6445" height="81.6445" rx="17.955" fill="url(#paint11_linear_467_726)"/>
<rect x="291.843" y="109.6" width="81.6445" height="81.6445" rx="17.955" fill="url(#paint12_linear_467_726)" fill-opacity="0.2" style="mix-blend-mode:soft-light"/>
</g>
<g filter="url(#filter10_ddi_467_726)">
<g filter="url(#filter11_i_467_726)">
<path fill-rule="evenodd" clip-rule="evenodd" d="M336.685 140.967C335.302 143.425 335.307 146.426 336.696 148.88L350.566 173.377C351.738 175.447 354.374 176.166 356.435 174.976C358.476 173.797 359.182 171.19 358.013 169.143L354.758 163.442H359.131C361.501 163.442 363.422 161.521 363.422 159.151C363.422 156.781 361.501 154.86 359.131 154.86H349.857L340.169 137.894C339.78 137.212 338.795 137.215 338.41 137.9L336.685 140.967Z" fill="white"/>
</g>
<g filter="url(#filter12_i_467_726)">
<path d="M340.422 124.008C338.369 122.823 335.745 123.526 334.56 125.579L333.7 127.068L332.944 125.758C331.759 123.705 329.135 123.002 327.082 124.187C325.03 125.372 324.327 127.996 325.512 130.049L328.73 135.623L328.777 135.596L315.251 159.024L322.683 163.315L341.993 129.87C343.177 127.817 342.474 125.193 340.422 124.008Z" fill="white"/>
</g>
<g filter="url(#filter13_i_467_726)">
<path d="M336.412 154.86C337.857 154.86 339.189 155.64 339.897 156.899L342.791 162.043C343.143 162.669 342.691 163.442 341.973 163.442L308.714 163.442C306.344 163.442 304.423 161.521 304.423 159.151C304.423 156.781 306.344 154.86 308.714 154.86H336.412Z" fill="white"/>
</g>
<g filter="url(#filter14_i_467_726)">
<path d="M319.978 166.918L316.239 173.378C315.044 175.442 312.405 176.154 310.334 174.97C308.255 173.782 307.532 171.133 308.72 169.054L310.621 165.728C310.778 165.453 310.994 165.212 311.273 165.062C313.978 163.612 318.96 163.863 319.978 166.918Z" fill="white"/>
</g>
</g>
<rect x="197.069" y="109.514" width="81.773" height="81.773" rx="20.4432" fill="url(#paint13_linear_467_726)"/>
<path d="M236.116 149.557C240.716 156.098 245.506 157.36 250.485 153.343L259.448 140.172C260.38 138.808 258.225 137.462 257.294 138.826L251.654 147.116C251.532 147.246 251.365 147.331 251.183 147.353C251.002 147.376 250.818 147.336 250.665 147.24C250.512 147.144 250.399 146.999 250.348 146.831C250.297 146.662 250.31 146.482 250.385 146.322L258.67 134.15C259.494 132.941 257.554 131.279 256.515 132.805L244.726 150.123C244.213 150.88 242.855 150.222 243.461 149.333L253.667 134.338C254.591 132.981 252.436 131.632 251.512 132.989L243.845 144.271C243.721 144.397 243.556 144.477 243.377 144.498C243.198 144.519 243.017 144.478 242.866 144.384C242.716 144.29 242.604 144.147 242.552 143.982C242.499 143.817 242.509 143.639 242.579 143.48L247.126 136.782C248.054 135.415 245.903 134.069 244.972 135.433L235.736 149.002L236.119 149.557H236.116Z" fill="url(#paint14_linear_467_726)"/>
<path d="M236.219 147.969L229.859 138.628C229.328 137.846 228.642 137.172 227.84 136.644C227.037 136.116 226.134 135.744 225.182 135.551C224.23 135.357 223.247 135.346 222.291 135.517C221.334 135.687 220.421 136.037 219.605 136.546C218.79 137.055 218.086 137.713 217.535 138.482C216.985 139.252 216.598 140.117 216.396 141.03C216.194 141.943 216.182 142.886 216.36 143.803C216.538 144.72 216.903 145.595 217.434 146.378V146.4L229.667 164.369C232.458 168.453 237.465 169.85 241.349 166.402C242.645 165.247 244.363 162.358 245.306 160.976L251.083 152.484C246.092 156.498 241.302 155.237 236.714 148.701L236.331 148.142L236.219 147.969ZM236.714 148.705L236.331 148.146C236.456 148.335 236.584 148.518 236.714 148.697V148.705Z" fill="url(#paint15_linear_467_726)"/>
</g>
</g>
<defs>
<filter id="filter0_b_467_726" x="-193.06" y="12.8812" width="764.948" height="275.081" filterUnits="userSpaceOnUse" color-interpolation-filters="sRGB">
<feFlood flood-opacity="0" result="BackgroundImageFix"/>
<feGaussianBlur in="BackgroundImageFix" stdDeviation="41.9808"/>
<feComposite in2="SourceAlpha" operator="in" result="effect1_backgroundBlur_467_726"/>
<feBlend mode="normal" in="SourceGraphic" in2="effect1_backgroundBlur_467_726" result="shape"/>
</filter>
<filter id="filter1_ii_467_726" x="2.51152" y="108.946" width="82.9503" height="82.9502" filterUnits="userSpaceOnUse" color-interpolation-filters="sRGB">
<feFlood flood-opacity="0" result="BackgroundImageFix"/>
<feBlend mode="normal" in="SourceGraphic" in2="BackgroundImageFix" result="shape"/>
<feColorMatrix in="SourceAlpha" type="matrix" values="0 0 0 0 0 0 0 0 0 0 0 0 0 0 0 0 0 0 127 0" result="hardAlpha"/>
<feOffset dx="0.652908" dy="0.652908"/>
<feGaussianBlur stdDeviation="0.326454"/>
<feComposite in2="hardAlpha" operator="arithmetic" k2="-1" k3="1"/>
<feColorMatrix type="matrix" values="0 0 0 0 1 0 0 0 0 1 0 0 0 0 1 0 0 0 0.2 0"/>
<feBlend mode="normal" in2="shape" result="effect1_innerShadow_467_726"/>
<feColorMatrix in="SourceAlpha" type="matrix" values="0 0 0 0 0 0 0 0 0 0 0 0 0 0 0 0 0 0 127 0" result="hardAlpha"/>
<feOffset dx="-0.652908" dy="-0.652908"/>
<feGaussianBlur stdDeviation="0.326454"/>
<feComposite in2="hardAlpha" operator="arithmetic" k2="-1" k3="1"/>
<feColorMatrix type="matrix" values="0 0 0 0 0 0 0 0 0 0 0 0 0 0 0 0 0 0 0.05 0"/>
<feBlend mode="normal" in2="effect1_innerShadow_467_726" result="effect2_innerShadow_467_726"/>
</filter>
<filter id="filter2_dd_467_726" x="7.46431" y="128.698" width="73.2746" height="54.5483" filterUnits="userSpaceOnUse" color-interpolation-filters="sRGB">
<feFlood flood-opacity="0" result="BackgroundImageFix"/>
<feColorMatrix in="SourceAlpha" type="matrix" values="0 0 0 0 0 0 0 0 0 0 0 0 0 0 0 0 0 0 127 0" result="hardAlpha"/>
<feOffset dy="1.63227"/>
<feGaussianBlur stdDeviation="1.30582"/>
<feColorMatrix type="matrix" values="0 0 0 0 0 0 0 0 0 0 0 0 0 0 0 0 0 0 0.2 0"/>
<feBlend mode="normal" in2="BackgroundImageFix" result="effect1_dropShadow_467_726"/>
<feColorMatrix in="SourceAlpha" type="matrix" values="0 0 0 0 0 0 0 0 0 0 0 0 0 0 0 0 0 0 127 0" result="hardAlpha"/>
<feOffset dy="5.54972"/>
<feGaussianBlur stdDeviation="3.591"/>
<feColorMatrix type="matrix" values="0 0 0 0 0 0 0 0 0 0 0 0 0 0 0 0 0 0 0.2 0"/>
<feBlend mode="normal" in2="effect1_dropShadow_467_726" result="effect2_dropShadow_467_726"/>
<feBlend mode="normal" in="SourceGraphic" in2="effect2_dropShadow_467_726" result="shape"/>
</filter>
<filter id="filter3_iiii_467_726" x="14.6463" y="121.189" width="58.9106" height="49.325" filterUnits="userSpaceOnUse" color-interpolation-filters="sRGB">
<feFlood flood-opacity="0" result="BackgroundImageFix"/>
<feBlend mode="normal" in="SourceGraphic" in2="BackgroundImageFix" result="shape"/>
<feColorMatrix in="SourceAlpha" type="matrix" values="0 0 0 0 0 0 0 0 0 0 0 0 0 0 0 0 0 0 127 0" result="hardAlpha"/>
<feOffset dy="-9.14071"/>
<feGaussianBlur stdDeviation="8.16135"/>
<feComposite in2="hardAlpha" operator="arithmetic" k2="-1" k3="1"/>
<feColorMatrix type="matrix" values="0 0 0 0 0 0 0 0 0 0 0 0 0 0 0 0 0 0 0.2 0"/>
<feBlend mode="normal" in2="shape" result="effect1_innerShadow_467_726"/>
<feColorMatrix in="SourceAlpha" type="matrix" values="0 0 0 0 0 0 0 0 0 0 0 0 0 0 0 0 0 0 127 0" result="hardAlpha"/>
<feOffset dy="-2.44841"/>
<feGaussianBlur stdDeviation="0.816135"/>
<feComposite in2="hardAlpha" operator="arithmetic" k2="-1" k3="1"/>
<feColorMatrix type="matrix" values="0 0 0 0 1 0 0 0 0 1 0 0 0 0 1 0 0 0 0.45 0"/>
<feBlend mode="normal" in2="effect1_innerShadow_467_726" result="effect2_innerShadow_467_726"/>
<feColorMatrix in="SourceAlpha" type="matrix" values="0 0 0 0 0 0 0 0 0 0 0 0 0 0 0 0 0 0 127 0" result="hardAlpha"/>
<feOffset dy="-4.08068"/>
<feGaussianBlur stdDeviation="3.26454"/>
<feComposite in2="hardAlpha" operator="arithmetic" k2="-1" k3="1"/>
<feColorMatrix type="matrix" values="0 0 0 0 0.476471 0 0 0 0 0.9 0 0 0 0 0.45 0 0 0 1 0"/>
<feBlend mode="normal" in2="effect2_innerShadow_467_726" result="effect3_innerShadow_467_726"/>
<feColorMatrix in="SourceAlpha" type="matrix" values="0 0 0 0 0 0 0 0 0 0 0 0 0 0 0 0 0 0 127 0" result="hardAlpha"/>
<feOffset dy="-1.63227"/>
<feGaussianBlur stdDeviation="1.63227"/>
<feComposite in2="hardAlpha" operator="arithmetic" k2="-1" k3="1"/>
<feColorMatrix type="matrix" values="0 0 0 0 1 0 0 0 0 1 0 0 0 0 1 0 0 0 0.3 0"/>
<feBlend mode="normal" in2="effect3_innerShadow_467_726" result="effect4_innerShadow_467_726"/>
</filter>
<filter id="filter4_ii_467_726" x="106.495" y="115.814" width="68.8875" height="75.5799" filterUnits="userSpaceOnUse" color-interpolation-filters="sRGB">
<feFlood flood-opacity="0" result="BackgroundImageFix"/>
<feBlend mode="normal" in="SourceGraphic" in2="BackgroundImageFix" result="shape"/>
<feColorMatrix in="SourceAlpha" type="matrix" values="0 0 0 0 0 0 0 0 0 0 0 0 0 0 0 0 0 0 127 0" result="hardAlpha"/>
<feOffset dy="-0.652908"/>
<feGaussianBlur stdDeviation="0.0816135"/>
<feComposite in2="hardAlpha" operator="arithmetic" k2="-1" k3="1"/>
<feColorMatrix type="matrix" values="0 0 0 0 1 0 0 0 0 1 0 0 0 0 1 0 0 0 0.8 0"/>
<feBlend mode="overlay" in2="shape" result="effect1_innerShadow_467_726"/>
<feColorMatrix in="SourceAlpha" type="matrix" values="0 0 0 0 0 0 0 0 0 0 0 0 0 0 0 0 0 0 127 0" result="hardAlpha"/>
<feOffset dy="6.52908"/>
<feGaussianBlur stdDeviation="4.89681"/>
<feComposite in2="hardAlpha" operator="arithmetic" k2="-1" k3="1"/>
<feColorMatrix type="matrix" values="0 0 0 0 0 0 0 0 0 0 0 0 0 0 0 0 0 0 0.6 0"/>
<feBlend mode="normal" in2="effect1_innerShadow_467_726" result="effect2_innerShadow_467_726"/>
</filter>
<filter id="filter5_ddii_467_726" x="111.924" y="127.118" width="57.7075" height="59.3397" filterUnits="userSpaceOnUse" color-interpolation-filters="sRGB">
<feFlood flood-opacity="0" result="BackgroundImageFix"/>
<feColorMatrix in="SourceAlpha" type="matrix" values="0 0 0 0 0 0 0 0 0 0 0 0 0 0 0 0 0 0 127 0" result="hardAlpha"/>
<feOffset dy="3.26454"/>
<feGaussianBlur stdDeviation="2.12195"/>
<feColorMatrix type="matrix" values="0 0 0 0 0 0 0 0 0 0 0 0 0 0 0 0 0 0 1 0"/>
<feBlend mode="normal" in2="BackgroundImageFix" result="effect1_dropShadow_467_726"/>
<feColorMatrix in="SourceAlpha" type="matrix" values="0 0 0 0 0 0 0 0 0 0 0 0 0 0 0 0 0 0 127 0" result="hardAlpha"/>
<feOffset dy="7.18199"/>
<feGaussianBlur stdDeviation="3.26454"/>
<feColorMatrix type="matrix" values="0 0 0 0 0 0 0 0 0 0 0 0 0 0 0 0 0 0 0.5 0"/>
<feBlend mode="normal" in2="effect1_dropShadow_467_726" result="effect2_dropShadow_467_726"/>
<feBlend mode="normal" in="SourceGraphic" in2="effect2_dropShadow_467_726" result="shape"/>
<feColorMatrix in="SourceAlpha" type="matrix" values="0 0 0 0 0 0 0 0 0 0 0 0 0 0 0 0 0 0 127 0" result="hardAlpha"/>
<feOffset dy="1.30582"/>
<feGaussianBlur stdDeviation="1.63227"/>
<feComposite in2="hardAlpha" operator="arithmetic" k2="-1" k3="1"/>
<feColorMatrix type="matrix" values="0 0 0 0 0 0 0 0 0 0 0 0 0 0 0 0 0 0 0.16 0"/>
<feBlend mode="normal" in2="shape" result="effect3_innerShadow_467_726"/>
<feColorMatrix in="SourceAlpha" type="matrix" values="0 0 0 0 0 0 0 0 0 0 0 0 0 0 0 0 0 0 127 0" result="hardAlpha"/>
<feOffset dy="0.489681"/>
<feGaussianBlur stdDeviation="0.163227"/>
<feComposite in2="hardAlpha" operator="arithmetic" k2="-1" k3="1"/>
<feColorMatrix type="matrix" values="0 0 0 0 1 0 0 0 0 1 0 0 0 0 1 0 0 0 0.6 0"/>
<feBlend mode="normal" in2="effect3_innerShadow_467_726" result="effect4_innerShadow_467_726"/>
</filter>
<filter id="filter6_ddii_467_726" x="101.56" y="115.939" width="78.6783" height="78.715" filterUnits="userSpaceOnUse" color-interpolation-filters="sRGB">
<feFlood flood-opacity="0" result="BackgroundImageFix"/>
<feColorMatrix in="SourceAlpha" type="matrix" values="0 0 0 0 0 0 0 0 0 0 0 0 0 0 0 0 0 0 127 0" result="hardAlpha"/>
<feOffset dy="4.08068"/>
<feGaussianBlur stdDeviation="2.12195"/>
<feColorMatrix type="matrix" values="0 0 0 0 0 0 0 0 0 0 0 0 0 0 0 0 0 0 1 0"/>
<feBlend mode="normal" in2="BackgroundImageFix" result="effect1_dropShadow_467_726"/>
<feColorMatrix in="SourceAlpha" type="matrix" values="0 0 0 0 0 0 0 0 0 0 0 0 0 0 0 0 0 0 127 0" result="hardAlpha"/>
<feOffset dy="4.89681"/>
<feGaussianBlur stdDeviation="3.26454"/>
<feColorMatrix type="matrix" values="0 0 0 0 0 0 0 0 0 0 0 0 0 0 0 0 0 0 0.6 0"/>
<feBlend mode="normal" in2="effect1_dropShadow_467_726" result="effect2_dropShadow_467_726"/>
<feBlend mode="normal" in="SourceGraphic" in2="effect2_dropShadow_467_726" result="shape"/>
<feColorMatrix in="SourceAlpha" type="matrix" values="0 0 0 0 0 0 0 0 0 0 0 0 0 0 0 0 0 0 127 0" result="hardAlpha"/>
<feOffset dy="1.30582"/>
<feGaussianBlur stdDeviation="1.63227"/>
<feComposite in2="hardAlpha" operator="arithmetic" k2="-1" k3="1"/>
<feColorMatrix type="matrix" values="0 0 0 0 0 0 0 0 0 0 0 0 0 0 0 0 0 0 0.16 0"/>
<feBlend mode="normal" in2="shape" result="effect3_innerShadow_467_726"/>
<feColorMatrix in="SourceAlpha" type="matrix" values="0 0 0 0 0 0 0 0 0 0 0 0 0 0 0 0 0 0 127 0" result="hardAlpha"/>
<feOffset dy="0.489681"/>
<feGaussianBlur stdDeviation="0.163227"/>
<feComposite in2="hardAlpha" operator="arithmetic" k2="-1" k3="1"/>
<feColorMatrix type="matrix" values="0 0 0 0 1 0 0 0 0 1 0 0 0 0 1 0 0 0 0.6 0"/>
<feBlend mode="normal" in2="effect3_innerShadow_467_726" result="effect4_innerShadow_467_726"/>
</filter>
<filter id="filter7_i_467_726" x="106.495" y="115.978" width="68.8875" height="73.7844" filterUnits="userSpaceOnUse" color-interpolation-filters="sRGB">
<feFlood flood-opacity="0" result="BackgroundImageFix"/>
<feBlend mode="normal" in="SourceGraphic" in2="BackgroundImageFix" result="shape"/>
<feColorMatrix in="SourceAlpha" type="matrix" values="0 0 0 0 0 0 0 0 0 0 0 0 0 0 0 0 0 0 127 0" result="hardAlpha"/>
<feOffset dy="4.89681"/>
<feGaussianBlur stdDeviation="4.89681"/>
<feComposite in2="hardAlpha" operator="arithmetic" k2="-1" k3="1"/>
<feColorMatrix type="matrix" values="0 0 0 0 0 0 0 0 0 0 0 0 0 0 0 0 0 0 0.7 0"/>
<feBlend mode="normal" in2="shape" result="effect1_innerShadow_467_726"/>
</filter>
<filter id="filter8_ii_467_726" x="98.8092" y="108.293" width="82.9502" height="83.2767" filterUnits="userSpaceOnUse" color-interpolation-filters="sRGB">
<feFlood flood-opacity="0" result="BackgroundImageFix"/>
<feBlend mode="normal" in="SourceGraphic" in2="BackgroundImageFix" result="shape"/>
<feColorMatrix in="SourceAlpha" type="matrix" values="0 0 0 0 0 0 0 0 0 0 0 0 0 0 0 0 0 0 127 0" result="hardAlpha"/>
<feOffset dx="-1.30582" dy="-1.30582"/>
<feGaussianBlur stdDeviation="0.652908"/>
<feComposite in2="hardAlpha" operator="arithmetic" k2="-1" k3="1"/>
<feColorMatrix type="matrix" values="0 0 0 0 0 0 0 0 0 0 0 0 0 0 0 0 0 0 0.05 0"/>
<feBlend mode="normal" in2="shape" result="effect1_innerShadow_467_726"/>
<feColorMatrix in="SourceAlpha" type="matrix" values="0 0 0 0 0 0 0 0 0 0 0 0 0 0 0 0 0 0 127 0" result="hardAlpha"/>
<feOffset dy="0.326454"/>
<feGaussianBlur stdDeviation="0.163227"/>
<feComposite in2="hardAlpha" operator="arithmetic" k2="-1" k3="1"/>
<feColorMatrix type="matrix" values="0 0 0 0 1 0 0 0 0 1 0 0 0 0 1 0 0 0 0.8 0"/>
<feBlend mode="normal" in2="effect1_innerShadow_467_726" result="effect2_innerShadow_467_726"/>
</filter>
<filter id="filter9_ii_467_726" x="291.19" y="108.947" width="82.9502" height="82.9502" filterUnits="userSpaceOnUse" color-interpolation-filters="sRGB">
<feFlood flood-opacity="0" result="BackgroundImageFix"/>
<feBlend mode="normal" in="SourceGraphic" in2="BackgroundImageFix" result="shape"/>
<feColorMatrix in="SourceAlpha" type="matrix" values="0 0 0 0 0 0 0 0 0 0 0 0 0 0 0 0 0 0 127 0" result="hardAlpha"/>
<feOffset dx="0.652908" dy="0.652908"/>
<feGaussianBlur stdDeviation="0.326454"/>
<feComposite in2="hardAlpha" operator="arithmetic" k2="-1" k3="1"/>
<feColorMatrix type="matrix" values="0 0 0 0 1 0 0 0 0 1 0 0 0 0 1 0 0 0 0.2 0"/>
<feBlend mode="normal" in2="shape" result="effect1_innerShadow_467_726"/>
<feColorMatrix in="SourceAlpha" type="matrix" values="0 0 0 0 0 0 0 0 0 0 0 0 0 0 0 0 0 0 127 0" result="hardAlpha"/>
<feOffset dx="-0.652908" dy="-0.652908"/>
<feGaussianBlur stdDeviation="0.326454"/>
<feComposite in2="hardAlpha" operator="arithmetic" k2="-1" k3="1"/>
<feColorMatrix type="matrix" values="0 0 0 0 0 0 0 0 0 0 0 0 0 0 0 0 0 0 0.05 0"/>
<feBlend mode="normal" in2="effect1_innerShadow_467_726" result="effect2_innerShadow_467_726"/>
</filter>
<filter id="filter10_ddi_467_726" x="297.241" y="121.8" width="73.3629" height="66.4817" filterUnits="userSpaceOnUse" color-interpolation-filters="sRGB">
<feFlood flood-opacity="0" result="BackgroundImageFix"/>
<feColorMatrix in="SourceAlpha" type="matrix" values="0 0 0 0 0 0 0 0 0 0 0 0 0 0 0 0 0 0 127 0" result="hardAlpha"/>
<feOffset dy="1.63227"/>
<feGaussianBlur stdDeviation="1.30582"/>
<feColorMatrix type="matrix" values="0 0 0 0 0 0 0 0 0 0 0 0 0 0 0 0 0 0 0.4 0"/>
<feBlend mode="normal" in2="BackgroundImageFix" result="effect1_dropShadow_467_726"/>
<feColorMatrix in="SourceAlpha" type="matrix" values="0 0 0 0 0 0 0 0 0 0 0 0 0 0 0 0 0 0 127 0" result="hardAlpha"/>
<feOffset dy="5.54972"/>
<feGaussianBlur stdDeviation="3.591"/>
<feColorMatrix type="matrix" values="0 0 0 0 0 0 0 0 0 0 0 0 0 0 0 0 0 0 0.2 0"/>
<feBlend mode="normal" in2="effect1_dropShadow_467_726" result="effect2_dropShadow_467_726"/>
<feBlend mode="normal" in="SourceGraphic" in2="effect2_dropShadow_467_726" result="shape"/>
<feColorMatrix in="SourceAlpha" type="matrix" values="0 0 0 0 0 0 0 0 0 0 0 0 0 0 0 0 0 0 127 0" result="hardAlpha"/>
<feOffset dy="-0.979362"/>
<feGaussianBlur stdDeviation="0.816135"/>
<feComposite in2="hardAlpha" operator="arithmetic" k2="-1" k3="1"/>
<feColorMatrix type="matrix" values="0 0 0 0 0.3 0 0 0 0 0.604785 0 0 0 0 1 0 0 0 0.3 0"/>
<feBlend mode="normal" in2="shape" result="effect3_innerShadow_467_726"/>
</filter>
<filter id="filter11_i_467_726" x="335.651" y="134.773" width="27.7709" height="40.7776" filterUnits="userSpaceOnUse" color-interpolation-filters="sRGB">
<feFlood flood-opacity="0" result="BackgroundImageFix"/>
<feBlend mode="normal" in="SourceGraphic" in2="BackgroundImageFix" result="shape"/>
<feColorMatrix in="SourceAlpha" type="matrix" values="0 0 0 0 0 0 0 0 0 0 0 0 0 0 0 0 0 0 127 0" result="hardAlpha"/>
<feOffset dy="-2.61163"/>
<feGaussianBlur stdDeviation="1.63227"/>
<feComposite in2="hardAlpha" operator="arithmetic" k2="-1" k3="1"/>
<feColorMatrix type="matrix" values="0 0 0 0 0 0 0 0 0 0 0 0 0 0 0 0 0 0 0.25 0"/>
<feBlend mode="normal" in2="shape" result="effect1_innerShadow_467_726"/>
</filter>
<filter id="filter12_i_467_726" x="315.251" y="120.821" width="27.3171" height="42.4936" filterUnits="userSpaceOnUse" color-interpolation-filters="sRGB">
<feFlood flood-opacity="0" result="BackgroundImageFix"/>
<feBlend mode="normal" in="SourceGraphic" in2="BackgroundImageFix" result="shape"/>
<feColorMatrix in="SourceAlpha" type="matrix" values="0 0 0 0 0 0 0 0 0 0 0 0 0 0 0 0 0 0 127 0" result="hardAlpha"/>
<feOffset dy="-2.61163"/>
<feGaussianBlur stdDeviation="1.63227"/>
<feComposite in2="hardAlpha" operator="arithmetic" k2="-1" k3="1"/>
<feColorMatrix type="matrix" values="0 0 0 0 0 0 0 0 0 0 0 0 0 0 0 0 0 0 0.25 0"/>
<feBlend mode="normal" in2="shape" result="effect1_innerShadow_467_726"/>
</filter>
<filter id="filter13_i_467_726" x="304.423" y="152.249" width="38.4901" height="11.1935" filterUnits="userSpaceOnUse" color-interpolation-filters="sRGB">
<feFlood flood-opacity="0" result="BackgroundImageFix"/>
<feBlend mode="normal" in="SourceGraphic" in2="BackgroundImageFix" result="shape"/>
<feColorMatrix in="SourceAlpha" type="matrix" values="0 0 0 0 0 0 0 0 0 0 0 0 0 0 0 0 0 0 127 0" result="hardAlpha"/>
<feOffset dy="-2.61163"/>
<feGaussianBlur stdDeviation="1.63227"/>
<feComposite in2="hardAlpha" operator="arithmetic" k2="-1" k3="1"/>
<feColorMatrix type="matrix" values="0 0 0 0 0 0 0 0 0 0 0 0 0 0 0 0 0 0 0.25 0"/>
<feBlend mode="normal" in2="shape" result="effect1_innerShadow_467_726"/>
</filter>
<filter id="filter14_i_467_726" x="308.148" y="161.595" width="11.83" height="13.9477" filterUnits="userSpaceOnUse" color-interpolation-filters="sRGB">
<feFlood flood-opacity="0" result="BackgroundImageFix"/>
<feBlend mode="normal" in="SourceGraphic" in2="BackgroundImageFix" result="shape"/>
<feColorMatrix in="SourceAlpha" type="matrix" values="0 0 0 0 0 0 0 0 0 0 0 0 0 0 0 0 0 0 127 0" result="hardAlpha"/>
<feOffset dy="-2.61163"/>
<feGaussianBlur stdDeviation="1.63227"/>
<feComposite in2="hardAlpha" operator="arithmetic" k2="-1" k3="1"/>
<feColorMatrix type="matrix" values="0 0 0 0 0 0 0 0 0 0 0 0 0 0 0 0 0 0 0.25 0"/>
<feBlend mode="normal" in2="shape" result="effect1_innerShadow_467_726"/>
</filter>
<linearGradient id="paint0_linear_467_726" x1="-30.6423" y1="84.2827" x2="2.12489" y2="234.668" gradientUnits="userSpaceOnUse">
<stop stop-color="white" stop-opacity="0.13"/>
<stop offset="1" stop-color="white" stop-opacity="0.71"/>
</linearGradient>
<linearGradient id="paint1_linear_467_726" x1="51.2967" y1="91.8531" x2="190.734" y2="347.75" gradientUnits="userSpaceOnUse">
<stop stop-color="white" stop-opacity="0.4"/>
<stop offset="1" stop-color="#F4B0FF" stop-opacity="0.76"/>
</linearGradient>
<linearGradient id="paint2_linear_467_726" x1="43.9867" y1="109.599" x2="43.9867" y2="191.244" gradientUnits="userSpaceOnUse">
<stop stop-color="#83F180"/>
<stop offset="1" stop-color="#5BC34E"/>
</linearGradient>
<linearGradient id="paint3_linear_467_726" x1="43.9867" y1="109.599" x2="43.9867" y2="191.244" gradientUnits="userSpaceOnUse">
<stop offset="0.151042" stop-color="white"/>
<stop offset="1" stop-opacity="0.1"/>
</linearGradient>
<linearGradient id="paint4_linear_467_726" x1="44.1467" y1="115.899" x2="44.1467" y2="161.584" gradientUnits="userSpaceOnUse">
<stop offset="0.00520833" stop-color="white" stop-opacity="0.08"/>
<stop offset="0.0851933" stop-opacity="0.08"/>
<stop offset="0.336988" stop-color="white" stop-opacity="0.1"/>
<stop offset="0.660917" stop-color="white" stop-opacity="0.1"/>
<stop offset="1" stop-opacity="0.1"/>
</linearGradient>
<linearGradient id="paint5_linear_467_726" x1="140.778" y1="128.097" x2="140.778" y2="172.746" gradientUnits="userSpaceOnUse">
<stop stop-color="#D2E2E8"/>
<stop offset="1" stop-color="#949491"/>
</linearGradient>
<linearGradient id="paint6_linear_467_726" x1="140.778" y1="128.097" x2="140.778" y2="172.746" gradientUnits="userSpaceOnUse">
<stop offset="0.151042" stop-color="white"/>
<stop offset="1" stop-opacity="0.1"/>
</linearGradient>
<linearGradient id="paint7_linear_467_726" x1="140.899" y1="117.571" x2="140.899" y2="183.228" gradientUnits="userSpaceOnUse">
<stop stop-color="#D2E2E8"/>
<stop offset="1" stop-color="#949491"/>
</linearGradient>
<linearGradient id="paint8_linear_467_726" x1="140.899" y1="117.571" x2="140.899" y2="183.228" gradientUnits="userSpaceOnUse">
<stop offset="0.151042" stop-color="white"/>
<stop offset="1" stop-opacity="0.1"/>
</linearGradient>
<linearGradient id="paint9_linear_467_726" x1="140.937" y1="109.599" x2="140.937" y2="191.244" gradientUnits="userSpaceOnUse">
<stop stop-color="#D2E2E8"/>
<stop offset="1" stop-color="#949491"/>
</linearGradient>
<linearGradient id="paint10_linear_467_726" x1="140.937" y1="109.599" x2="140.937" y2="191.244" gradientUnits="userSpaceOnUse">
<stop offset="0.151042" stop-color="white"/>
<stop offset="1" stop-opacity="0.1"/>
</linearGradient>
<linearGradient id="paint11_linear_467_726" x1="332.665" y1="109.6" x2="332.665" y2="191.244" gradientUnits="userSpaceOnUse">
<stop stop-color="#1BB3F3"/>
<stop offset="1" stop-color="#186CE6"/>
</linearGradient>
<linearGradient id="paint12_linear_467_726" x1="332.665" y1="109.6" x2="332.665" y2="191.244" gradientUnits="userSpaceOnUse">
<stop offset="0.328125" stop-color="white"/>
<stop offset="1" stop-opacity="0.1"/>
</linearGradient>
<linearGradient id="paint13_linear_467_726" x1="237.956" y1="109.514" x2="237.956" y2="191.287" gradientUnits="userSpaceOnUse">
<stop stop-color="#F2FCF3"/>
<stop offset="0.4052" stop-color="#EFF9F0"/>
<stop offset="1" stop-color="#EBF5EC"/>
</linearGradient>
<linearGradient id="paint14_linear_467_726" x1="257.029" y1="129.91" x2="244.161" y2="153.318" gradientUnits="userSpaceOnUse">
<stop stop-color="#EC3939"/>
<stop offset="0.6" stop-color="#C83443"/>
<stop offset="1" stop-color="#00157D"/>
</linearGradient>
<linearGradient id="paint15_linear_467_726" x1="224.327" y1="135.252" x2="240.986" y2="165.787" gradientUnits="userSpaceOnUse">
<stop stop-color="#1C9EDC"/>
<stop offset="1" stop-color="#0E3C91"/>
</linearGradient>
</defs>
</svg>
