<svg width="341" height="177" viewBox="0 0 341 177" fill="none" xmlns="http://www.w3.org/2000/svg">
<path d="M335.578 171.139C335.578 149.472 331.311 128.016 323.019 107.998C314.727 87.9801 302.574 69.7911 287.252 54.4699C271.931 39.1487 253.742 26.9952 233.724 18.7034C213.706 10.4116 192.251 6.14392 170.583 6.14392C148.916 6.14392 127.46 10.4116 107.442 18.7034C87.424 26.9952 69.2351 39.1487 53.9139 54.4699C38.5926 69.7911 26.4392 87.9801 18.1474 107.998C9.85561 128.016 5.58789 149.472 5.58789 171.139" stroke="url(#paint0_linear_510_100)" stroke-width="10.3329" stroke-linecap="round"/>
<path d="M311.778 171.692H324.113" stroke="black" stroke-width="0.738063"/>
<path d="M293.056 101.817L303.739 95.6493" stroke="black" stroke-width="0.738063"/>
<path d="M241.903 50.6646L248.071 39.9822" stroke="black" stroke-width="0.738063"/>
<path d="M32.2795 171.692H19.9445" stroke="black" stroke-width="0.738063"/>
<path d="M51.0012 101.817L40.3188 95.6493" stroke="black" stroke-width="0.738063"/>
<path d="M102.154 50.6646L95.9865 39.9822" stroke="black" stroke-width="0.738063"/>
<path d="M172.029 31.9414L172.029 19.6064" stroke="black" stroke-width="0.738063"/>
<defs>
<linearGradient id="paint0_linear_510_100" x1="-35.1059" y1="171.139" x2="391.152" y2="171.139" gradientUnits="userSpaceOnUse">
<stop stop-color="white"/>
<stop offset="0.3" stop-color="#DEDEDE"/>
<stop offset="1" stop-color="#00C71C"/>
</linearGradient>
</defs>
</svg>
