<svg width="189" height="81" viewBox="0 0 189 81" fill="none" xmlns="http://www.w3.org/2000/svg">
<path d="M0.466309 42.7057C6.80683 31.7363 17.2403 23.7305 29.4769 20.4451C41.7136 17.1597 54.7538 18.8631 65.7359 25.1815L90.203 39.3076C83.8646 50.2733 73.4358 58.2776 61.204 61.565C48.9723 64.8524 35.936 63.1546 24.9543 56.8438L0.487241 42.7178L0.466309 42.7057Z" fill="#00C71C"/>
<path d="M189.002 42.0957L164.535 56.2217C153.552 62.563 140.5 64.283 128.248 61.0036C115.997 57.7242 105.55 49.7139 99.203 38.7337L123.733 24.5714C134.715 18.2531 147.755 16.5497 159.992 19.8351C172.228 23.1205 182.662 31.1263 189.002 42.0957Z" fill="#00C71C"/>
</svg>
