<svg width="104" height="77" viewBox="0 0 104 77" fill="none" xmlns="http://www.w3.org/2000/svg">
<path d="M47.9414 76.2999C35.2714 76.2935 23.1215 71.2608 14.1579 62.3063C5.19432 53.3518 0.149382 41.2069 0.130194 28.5369L0.130192 0.284746C12.796 0.291116 24.9423 5.32053 33.9052 14.2698C42.8681 23.2192 47.9158 35.3578 47.9414 48.0236L47.9414 76.2758L47.9414 76.2999Z" fill="#00C71C"/>
<path d="M55.6693 76.2998L55.6693 48.0477C55.6693 35.3652 60.7057 23.2017 69.6714 14.2315C78.637 5.26132 90.7979 0.218766 103.48 0.212364L103.48 28.5368C103.461 41.2068 98.4163 53.3517 89.4528 62.3062C80.4892 71.2607 68.3393 76.2934 55.6693 76.2998Z" fill="#00C71C"/>
</svg>
