<svg width="25" height="25" viewBox="0 0 25 25" fill="none" xmlns="http://www.w3.org/2000/svg">
<path fill-rule="evenodd" clip-rule="evenodd" d="M12.0605 21.5C13.2424 21.5 14.4128 21.2672 15.5047 20.8149C16.5966 20.3626 17.5888 19.6997 18.4245 18.864C19.2602 18.0282 19.9232 17.0361 20.3755 15.9442C20.8278 14.8522 21.0605 13.6819 21.0605 12.5C21.0605 11.3181 20.8278 10.1478 20.3755 9.05585C19.9232 7.96392 19.2602 6.97177 18.4245 6.13604C17.5888 5.30031 16.5966 4.63738 15.5047 4.18508C14.4128 3.73279 13.2424 3.5 12.0605 3.5C9.6736 3.5 7.38441 4.44821 5.69659 6.13604C4.00876 7.82387 3.06055 10.1131 3.06055 12.5C3.06055 14.8869 4.00876 17.1761 5.69659 18.864C7.38441 20.5518 9.6736 21.5 12.0605 21.5ZM11.8285 16.14L16.8285 10.14L15.2925 8.86L10.9925 14.019L8.76755 11.793L7.35355 13.207L10.3535 16.207L11.1275 16.981L11.8285 16.14Z" fill="#00A217"/>
</svg>
