<svg width="61" height="61" viewBox="0 0 61 61" fill="none" xmlns="http://www.w3.org/2000/svg">
<path d="M30.455 2.46837C26.3177 2.46837 22.3828 3.35907 18.8424 4.96592C18.3578 5.18596 18.1532 5.76472 18.392 6.24038L20.0674 9.59672C20.2923 10.0475 20.8333 10.2399 21.2924 10.0325C24.0909 8.78295 27.1883 8.09519 30.455 8.09519C42.8925 8.09519 52.9531 18.1559 52.9531 30.5934C52.9531 35.2722 51.513 39.5958 49.0713 43.1965L46.116 40.2394C45.914 40.0371 45.6309 39.9381 45.3469 39.97C44.8732 40.0249 44.5162 40.4269 44.5175 40.9039V51.2164C44.5156 51.7342 44.9335 52.1556 45.4513 52.1576H55.762C56.6043 52.1647 57.027 51.1426 56.4266 50.5518L53.1033 47.2284C56.5319 42.5672 58.5799 36.8189 58.5799 30.5933C58.5799 15.0714 45.9768 2.46837 30.455 2.46837ZM5.13879 9.02902C4.30506 9.02934 3.88642 10.0362 4.47412 10.6276L7.79932 13.9528C4.37013 18.6143 2.32996 24.3667 2.32996 30.5934C2.32996 46.1153 14.9331 58.7184 30.455 58.7184C34.5922 58.7184 38.5271 57.8203 42.0675 56.2135C42.5514 55.9927 42.7551 55.4143 42.5161 54.9391L40.8352 51.5828C40.6105 51.136 40.0747 50.9443 39.6176 51.147C36.8191 52.3965 33.7216 53.0916 30.455 53.0916C18.0175 53.0915 7.95679 43.0309 7.95679 30.5934C7.95679 25.9163 9.38841 21.5874 11.8276 17.9866L14.794 20.9455C15.3853 21.5332 16.3921 21.1146 16.3925 20.2809V9.97022C16.3943 9.4496 15.9719 9.02704 15.4513 9.02902H5.13879ZM32.2823 14.654C31.9765 14.6682 31.697 14.8329 31.5334 15.0916L20.2889 32.9042C19.8948 33.5266 20.3396 34.3397 21.0763 34.3434H28.503L27.6443 45.5202C27.5754 46.4877 28.8413 46.9102 29.3673 46.0951L40.621 28.2807C41.0174 27.6548 40.5654 26.838 39.8245 26.8415H32.3995L33.2638 15.6647C33.3086 15.1007 32.8475 14.6248 32.2823 14.654Z" fill="#1C9842"/>
</svg>
