<svg width="412" height="142" viewBox="0 0 412 142" fill="none" xmlns="http://www.w3.org/2000/svg">
<rect x="5.1431" y="38.3931" width="39.405" height="69.5396" rx="6.17191" stroke="black" stroke-width="2.84857"/>
<path d="M21.0476 45.0695H28.6438" stroke="black" stroke-width="1.89905" stroke-linecap="round"/>
<path d="M18.3716 102.234H31.3215" stroke="black" stroke-width="1.89905" stroke-linecap="round"/>
<path d="M2.21611 138.499V128.831H5.66218C6.41434 128.831 7.03747 128.968 7.53156 129.242C8.02565 129.516 8.39544 129.89 8.64091 130.365C8.88638 130.837 9.00912 131.369 9.00912 131.961C9.00912 132.556 8.88481 133.091 8.63619 133.566C8.39072 134.038 8.01936 134.412 7.52212 134.689C7.02802 134.963 6.40647 135.1 5.65746 135.1H3.2877V133.863H5.52529C6.0005 133.863 6.38602 133.781 6.68184 133.618C6.97767 133.451 7.19482 133.224 7.33329 132.938C7.47176 132.652 7.541 132.326 7.541 131.961C7.541 131.596 7.47176 131.272 7.33329 130.988C7.19482 130.705 6.9761 130.483 6.67712 130.323C6.3813 130.162 5.99106 130.082 5.5064 130.082H3.67479V138.499H2.21611ZM12.0174 134.194V138.499H10.6059V128.831H11.9985V132.428H12.0882C12.2581 132.038 12.5177 131.728 12.8671 131.498C13.2164 131.268 13.6727 131.154 14.2361 131.154C14.7333 131.154 15.1676 131.256 15.539 131.46C15.9135 131.665 16.203 131.97 16.4076 132.376C16.6153 132.779 16.7191 133.283 16.7191 133.887V138.499H15.3076V134.057C15.3076 133.525 15.1707 133.113 14.8969 132.82C14.6231 132.524 14.2423 132.376 13.7545 132.376C13.421 132.376 13.122 132.447 12.8576 132.589C12.5964 132.73 12.3903 132.938 12.2392 133.212C12.0913 133.482 12.0174 133.81 12.0174 134.194ZM21.6569 138.645C20.9771 138.645 20.3839 138.489 19.8772 138.178C19.3705 137.866 18.9772 137.43 18.6971 136.87C18.417 136.31 18.2769 135.655 18.2769 134.906C18.2769 134.154 18.417 133.497 18.6971 132.933C18.9772 132.37 19.3705 131.932 19.8772 131.621C20.3839 131.309 20.9771 131.154 21.6569 131.154C22.3367 131.154 22.9299 131.309 23.4366 131.621C23.9433 131.932 24.3367 132.37 24.6168 132.933C24.8968 133.497 25.0369 134.154 25.0369 134.906C25.0369 135.655 24.8968 136.31 24.6168 136.87C24.3367 137.43 23.9433 137.866 23.4366 138.178C22.9299 138.489 22.3367 138.645 21.6569 138.645ZM21.6616 137.46C22.1022 137.46 22.4673 137.344 22.7568 137.111C23.0464 136.878 23.2604 136.568 23.3988 136.181C23.5404 135.794 23.6113 135.368 23.6113 134.902C23.6113 134.439 23.5404 134.014 23.3988 133.627C23.2604 133.237 23.0464 132.924 22.7568 132.688C22.4673 132.452 22.1022 132.334 21.6616 132.334C21.2179 132.334 20.8497 132.452 20.557 132.688C20.2675 132.924 20.0519 133.237 19.9103 133.627C19.7718 134.014 19.7026 134.439 19.7026 134.902C19.7026 135.368 19.7718 135.794 19.9103 136.181C20.0519 136.568 20.2675 136.878 20.557 137.111C20.8497 137.344 21.2179 137.46 21.6616 137.46ZM28.0239 134.194V138.499H26.6124V131.248H27.9672V132.428H28.0569C28.2237 132.044 28.4849 131.736 28.8405 131.503C29.1993 131.27 29.6509 131.154 30.1954 131.154C30.6895 131.154 31.1222 131.257 31.4935 131.465C31.8649 131.67 32.1529 131.975 32.3574 132.381C32.562 132.787 32.6643 133.289 32.6643 133.887V138.499H31.2528V134.057C31.2528 133.531 31.1159 133.121 30.8421 132.825C30.5683 132.526 30.1922 132.376 29.7139 132.376C29.3866 132.376 29.0955 132.447 28.8405 132.589C28.5888 132.73 28.3889 132.938 28.241 133.212C28.0963 133.482 28.0239 133.81 28.0239 134.194ZM37.6823 138.645C36.9679 138.645 36.3527 138.493 35.8365 138.187C35.3236 137.879 34.927 137.446 34.6469 136.889C34.37 136.329 34.2315 135.673 34.2315 134.921C34.2315 134.178 34.37 133.523 34.6469 132.957C34.927 132.39 35.3173 131.948 35.8177 131.63C36.3212 131.313 36.9097 131.154 37.5832 131.154C37.9923 131.154 38.3888 131.221 38.7728 131.357C39.1567 131.492 39.5013 131.704 39.8066 131.994C40.1119 132.283 40.3526 132.659 40.5289 133.122C40.7051 133.582 40.7932 134.14 40.7932 134.798V135.298H35.0293V134.241H39.4101C39.4101 133.87 39.3345 133.541 39.1835 133.254C39.0324 132.965 38.82 132.737 38.5462 132.57C38.2755 132.403 37.9577 132.32 37.5926 132.32C37.1961 132.32 36.8499 132.417 36.5541 132.612C36.2614 132.804 36.0348 133.056 35.8743 133.368C35.717 133.676 35.6383 134.011 35.6383 134.373V135.199C35.6383 135.684 35.7232 136.096 35.8932 136.436C36.0663 136.776 36.307 137.036 36.6154 137.215C36.9239 137.391 37.2842 137.479 37.6965 137.479C37.964 137.479 38.2079 137.441 38.4282 137.366C38.6485 137.287 38.8389 137.171 38.9994 137.017C39.1599 136.862 39.2826 136.672 39.3676 136.445L40.7035 136.686C40.5965 137.08 40.4046 137.424 40.1276 137.72C39.8538 138.013 39.5092 138.241 39.0938 138.404C38.6815 138.565 38.211 138.645 37.6823 138.645ZM47.7928 133.018L46.5135 133.245C46.46 133.081 46.375 132.925 46.2585 132.777C46.1452 132.63 45.991 132.508 45.7959 132.414C45.6008 132.32 45.3569 132.272 45.0642 132.272C44.6645 132.272 44.3309 132.362 44.0634 132.541C43.7959 132.718 43.6622 132.946 43.6622 133.226C43.6622 133.468 43.7519 133.663 43.9313 133.811C44.1107 133.959 44.4002 134.08 44.7999 134.175L45.9517 134.439C46.6189 134.593 47.1161 134.831 47.4434 135.152C47.7707 135.473 47.9344 135.89 47.9344 136.403C47.9344 136.837 47.8085 137.224 47.5567 137.564C47.3081 137.901 46.9603 138.165 46.5135 138.357C46.0697 138.549 45.5552 138.645 44.9698 138.645C44.1579 138.645 43.4954 138.472 42.9824 138.126C42.4694 137.777 42.1547 137.281 42.0383 136.639L43.4026 136.431C43.4875 136.787 43.6622 137.056 43.9265 137.238C44.1909 137.418 44.5355 137.508 44.9604 137.508C45.423 137.508 45.7928 137.412 46.0697 137.22C46.3467 137.024 46.4851 136.787 46.4851 136.507C46.4851 136.28 46.4002 136.09 46.2302 135.936C46.0634 135.781 45.8069 135.665 45.4608 135.586L44.2334 135.317C43.5568 135.163 43.0564 134.918 42.7322 134.581C42.4112 134.244 42.2507 133.818 42.2507 133.301C42.2507 132.873 42.3703 132.499 42.6095 132.178C42.8487 131.857 43.1791 131.607 43.6008 131.427C44.0225 131.245 44.5056 131.154 45.0501 131.154C45.8337 131.154 46.4505 131.324 46.9006 131.663C47.3506 132 47.648 132.452 47.7928 133.018Z" fill="black"/>
<path d="M265.593 104.215H267.492V102.316V10.0177C267.492 6.01864 264.25 2.77673 260.251 2.77673H138.678C134.679 2.77673 131.437 6.01864 131.437 10.0177V102.316V104.215H133.336H265.593Z" stroke="black" stroke-width="3.7981"/>
<rect x="105.644" y="104.074" width="187.645" height="1.55" rx="0.775" transform="rotate(0.0331891 105.644 104.074)" fill="black" stroke="black" stroke-width="1.55"/>
<path d="M174.785 138.499V128.831H176.244V137.243H180.625V138.499H174.785ZM184.286 138.659C183.826 138.659 183.411 138.574 183.039 138.404C182.668 138.231 182.374 137.981 182.157 137.654C181.943 137.327 181.836 136.925 181.836 136.45C181.836 136.041 181.914 135.704 182.072 135.44C182.229 135.176 182.441 134.966 182.709 134.812C182.976 134.658 183.275 134.541 183.606 134.463C183.936 134.384 184.273 134.324 184.616 134.283C185.05 134.233 185.403 134.192 185.674 134.161C185.944 134.126 186.141 134.071 186.264 133.995C186.386 133.92 186.448 133.797 186.448 133.627V133.594C186.448 133.182 186.331 132.862 186.098 132.636C185.869 132.409 185.526 132.296 185.069 132.296C184.594 132.296 184.22 132.401 183.946 132.612C183.675 132.82 183.488 133.051 183.384 133.306L182.058 133.004C182.215 132.563 182.445 132.208 182.747 131.937C183.052 131.663 183.403 131.465 183.799 131.342C184.196 131.217 184.613 131.154 185.05 131.154C185.34 131.154 185.647 131.188 185.971 131.257C186.298 131.324 186.603 131.446 186.887 131.626C187.173 131.805 187.408 132.062 187.59 132.395C187.773 132.726 187.864 133.155 187.864 133.684V138.499H186.485V137.508H186.429C186.338 137.69 186.201 137.869 186.018 138.046C185.836 138.222 185.601 138.368 185.315 138.485C185.028 138.601 184.685 138.659 184.286 138.659ZM184.592 137.526C184.983 137.526 185.316 137.449 185.593 137.295C185.873 137.141 186.086 136.94 186.231 136.691C186.378 136.439 186.452 136.17 186.452 135.884V134.949C186.402 134.999 186.305 135.047 186.16 135.091C186.018 135.132 185.856 135.168 185.674 135.199C185.491 135.227 185.313 135.254 185.14 135.279C184.967 135.301 184.822 135.32 184.706 135.336C184.432 135.371 184.182 135.429 183.955 135.511C183.732 135.593 183.552 135.711 183.417 135.865C183.285 136.016 183.219 136.217 183.219 136.469C183.219 136.818 183.348 137.083 183.606 137.262C183.864 137.438 184.193 137.526 184.592 137.526ZM189.744 141.218V131.248H191.122V132.423H191.24C191.322 132.272 191.44 132.098 191.594 131.899C191.749 131.701 191.963 131.528 192.236 131.38C192.51 131.229 192.872 131.154 193.322 131.154C193.908 131.154 194.43 131.301 194.889 131.597C195.349 131.893 195.709 132.32 195.97 132.877C196.235 133.434 196.367 134.104 196.367 134.888C196.367 135.671 196.236 136.343 195.975 136.903C195.714 137.46 195.355 137.89 194.899 138.192C194.443 138.491 193.922 138.641 193.336 138.641C192.896 138.641 192.535 138.567 192.255 138.419C191.978 138.271 191.761 138.098 191.604 137.899C191.446 137.701 191.325 137.525 191.24 137.371H191.155V141.218H189.744ZM191.127 134.873C191.127 135.383 191.201 135.83 191.349 136.214C191.497 136.598 191.711 136.899 191.991 137.116C192.271 137.33 192.614 137.437 193.02 137.437C193.442 137.437 193.794 137.325 194.077 137.102C194.361 136.875 194.575 136.568 194.719 136.181C194.867 135.794 194.941 135.358 194.941 134.873C194.941 134.395 194.869 133.966 194.724 133.585C194.583 133.204 194.369 132.903 194.082 132.683C193.799 132.463 193.445 132.353 193.02 132.353C192.611 132.353 192.265 132.458 191.981 132.669C191.701 132.88 191.489 133.174 191.344 133.552C191.199 133.929 191.127 134.37 191.127 134.873ZM201.333 131.248V132.381H197.372V131.248H201.333ZM198.435 129.511H199.846V136.37C199.846 136.644 199.887 136.85 199.969 136.988C200.051 137.124 200.156 137.216 200.285 137.267C200.417 137.314 200.56 137.338 200.715 137.338C200.828 137.338 200.927 137.33 201.012 137.314C201.097 137.298 201.163 137.286 201.21 137.276L201.465 138.442C201.383 138.474 201.267 138.505 201.116 138.537C200.965 138.571 200.776 138.59 200.549 138.593C200.178 138.6 199.832 138.534 199.511 138.395C199.19 138.257 198.93 138.043 198.732 137.753C198.534 137.464 198.435 137.1 198.435 136.663V129.511ZM205.871 138.645C205.191 138.645 204.598 138.489 204.091 138.178C203.584 137.866 203.191 137.43 202.911 136.87C202.631 136.31 202.491 135.655 202.491 134.906C202.491 134.154 202.631 133.497 202.911 132.933C203.191 132.37 203.584 131.932 204.091 131.621C204.598 131.309 205.191 131.154 205.871 131.154C206.551 131.154 207.144 131.309 207.65 131.621C208.157 131.932 208.551 132.37 208.831 132.933C209.111 133.497 209.251 134.154 209.251 134.906C209.251 135.655 209.111 136.31 208.831 136.87C208.551 137.43 208.157 137.866 207.65 138.178C207.144 138.489 206.551 138.645 205.871 138.645ZM205.876 137.46C206.316 137.46 206.681 137.344 206.971 137.111C207.26 136.878 207.474 136.568 207.613 136.181C207.754 135.794 207.825 135.368 207.825 134.902C207.825 134.439 207.754 134.014 207.613 133.627C207.474 133.237 207.26 132.924 206.971 132.688C206.681 132.452 206.316 132.334 205.876 132.334C205.432 132.334 205.064 132.452 204.771 132.688C204.481 132.924 204.266 133.237 204.124 133.627C203.986 134.014 203.916 134.439 203.916 134.902C203.916 135.368 203.986 135.794 204.124 136.181C204.266 136.568 204.481 136.878 204.771 137.111C205.064 137.344 205.432 137.46 205.876 137.46ZM210.826 141.218V131.248H212.205V132.423H212.323C212.405 132.272 212.523 132.098 212.677 131.899C212.831 131.701 213.045 131.528 213.319 131.38C213.593 131.229 213.955 131.154 214.405 131.154C214.99 131.154 215.512 131.301 215.972 131.597C216.431 131.893 216.792 132.32 217.053 132.877C217.317 133.434 217.449 134.104 217.449 134.888C217.449 135.671 217.319 136.343 217.058 136.903C216.796 137.46 216.438 137.89 215.981 138.192C215.525 138.491 215.004 138.641 214.419 138.641C213.978 138.641 213.618 138.567 213.338 138.419C213.061 138.271 212.844 138.098 212.686 137.899C212.529 137.701 212.408 137.525 212.323 137.371H212.238V141.218H210.826ZM212.209 134.873C212.209 135.383 212.283 135.83 212.431 136.214C212.579 136.598 212.793 136.899 213.073 137.116C213.353 137.33 213.696 137.437 214.102 137.437C214.524 137.437 214.877 137.325 215.16 137.102C215.443 136.875 215.657 136.568 215.802 136.181C215.95 135.794 216.024 135.358 216.024 134.873C216.024 134.395 215.951 133.966 215.807 133.585C215.665 133.204 215.451 132.903 215.165 132.683C214.881 132.463 214.527 132.353 214.102 132.353C213.693 132.353 213.347 132.458 213.064 132.669C212.784 132.88 212.571 133.174 212.427 133.552C212.282 133.929 212.209 134.37 212.209 134.873ZM224.464 133.018L223.185 133.245C223.131 133.081 223.046 132.925 222.93 132.777C222.817 132.63 222.663 132.508 222.467 132.414C222.272 132.32 222.028 132.272 221.736 132.272C221.336 132.272 221.002 132.362 220.735 132.541C220.467 132.718 220.334 132.946 220.334 133.226C220.334 133.468 220.423 133.663 220.603 133.811C220.782 133.959 221.072 134.08 221.471 134.175L222.623 134.439C223.29 134.593 223.788 134.831 224.115 135.152C224.442 135.473 224.606 135.89 224.606 136.403C224.606 136.837 224.48 137.224 224.228 137.564C223.98 137.901 223.632 138.165 223.185 138.357C222.741 138.549 222.227 138.645 221.641 138.645C220.829 138.645 220.167 138.472 219.654 138.126C219.141 137.777 218.826 137.281 218.71 136.639L220.074 136.431C220.159 136.787 220.334 137.056 220.598 137.238C220.862 137.418 221.207 137.508 221.632 137.508C222.094 137.508 222.464 137.412 222.741 137.22C223.018 137.024 223.157 136.787 223.157 136.507C223.157 136.28 223.072 136.09 222.902 135.936C222.735 135.781 222.478 135.665 222.132 135.586L220.905 135.317C220.228 135.163 219.728 134.918 219.404 134.581C219.083 134.244 218.922 133.818 218.922 133.301C218.922 132.873 219.042 132.499 219.281 132.178C219.52 131.857 219.851 131.607 220.272 131.427C220.694 131.245 221.177 131.154 221.722 131.154C222.505 131.154 223.122 131.324 223.572 131.663C224.022 132 224.319 132.452 224.464 133.018Z" fill="black"/>
<rect x="348.385" y="19.0865" width="61.8328" height="89.1235" rx="5.95519" stroke="black" stroke-width="3.40297"/>
<path d="M368.953 102.458H389.651" stroke="black" stroke-width="1.70148" stroke-linecap="round"/>
<path d="M356.571 130.087V128.831H364.054V130.087H361.037V138.499H359.583V130.087H356.571ZM366.717 138.659C366.258 138.659 365.842 138.574 365.471 138.404C365.1 138.231 364.805 137.981 364.588 137.654C364.374 137.327 364.267 136.925 364.267 136.45C364.267 136.041 364.346 135.704 364.503 135.44C364.661 135.176 364.873 134.966 365.141 134.812C365.408 134.658 365.707 134.541 366.037 134.463C366.368 134.384 366.705 134.324 367.048 134.283C367.482 134.233 367.834 134.192 368.105 134.161C368.376 134.126 368.572 134.071 368.695 133.995C368.818 133.92 368.879 133.797 368.879 133.627V133.594C368.879 133.182 368.763 132.862 368.53 132.636C368.3 132.409 367.957 132.296 367.501 132.296C367.026 132.296 366.651 132.401 366.377 132.612C366.107 132.82 365.919 133.051 365.816 133.306L364.489 133.004C364.646 132.563 364.876 132.208 365.178 131.937C365.484 131.663 365.834 131.465 366.231 131.342C366.628 131.217 367.045 131.154 367.482 131.154C367.771 131.154 368.078 131.188 368.402 131.257C368.73 131.324 369.035 131.446 369.318 131.626C369.605 131.805 369.839 132.062 370.022 132.395C370.204 132.726 370.295 133.155 370.295 133.684V138.499H368.917V137.508H368.86C368.769 137.69 368.632 137.869 368.45 138.046C368.267 138.222 368.033 138.368 367.746 138.485C367.46 138.601 367.117 138.659 366.717 138.659ZM367.024 137.526C367.414 137.526 367.748 137.449 368.025 137.295C368.305 137.141 368.517 136.94 368.662 136.691C368.81 136.439 368.884 136.17 368.884 135.884V134.949C368.834 134.999 368.736 135.047 368.591 135.091C368.45 135.132 368.288 135.168 368.105 135.199C367.923 135.227 367.745 135.254 367.572 135.279C367.399 135.301 367.254 135.32 367.137 135.336C366.864 135.371 366.613 135.429 366.387 135.511C366.163 135.593 365.984 135.711 365.849 135.865C365.716 136.016 365.65 136.217 365.65 136.469C365.65 136.818 365.779 137.083 366.037 137.262C366.296 137.438 366.624 137.526 367.024 137.526ZM372.289 138.499V128.831H373.7V132.423H373.785C373.867 132.272 373.985 132.098 374.139 131.899C374.293 131.701 374.507 131.528 374.781 131.38C375.055 131.229 375.417 131.154 375.867 131.154C376.452 131.154 376.975 131.301 377.434 131.597C377.894 131.893 378.254 132.32 378.515 132.877C378.78 133.434 378.912 134.104 378.912 134.888C378.912 135.671 378.781 136.343 378.52 136.903C378.259 137.46 377.9 137.89 377.444 138.192C376.987 138.491 376.467 138.641 375.881 138.641C375.441 138.641 375.08 138.567 374.8 138.419C374.523 138.271 374.306 138.098 374.149 137.899C373.991 137.701 373.87 137.525 373.785 137.371H373.667V138.499H372.289ZM373.672 134.873C373.672 135.383 373.746 135.83 373.894 136.214C374.042 136.598 374.256 136.899 374.536 137.116C374.816 137.33 375.159 137.437 375.565 137.437C375.987 137.437 376.339 137.325 376.622 137.102C376.906 136.875 377.12 136.568 377.264 136.181C377.412 135.794 377.486 135.358 377.486 134.873C377.486 134.395 377.414 133.966 377.269 133.585C377.127 133.204 376.913 132.903 376.627 132.683C376.344 132.463 375.99 132.353 375.565 132.353C375.156 132.353 374.81 132.458 374.526 132.669C374.246 132.88 374.034 133.174 373.889 133.552C373.744 133.929 373.672 134.37 373.672 134.873ZM381.908 128.831V138.499H380.497V128.831H381.908ZM386.932 138.645C386.218 138.645 385.603 138.493 385.086 138.187C384.573 137.879 384.177 137.446 383.897 136.889C383.62 136.329 383.481 135.673 383.481 134.921C383.481 134.178 383.62 133.523 383.897 132.957C384.177 132.39 384.567 131.948 385.068 131.63C385.571 131.313 386.16 131.154 386.833 131.154C387.242 131.154 387.639 131.221 388.023 131.357C388.407 131.492 388.751 131.704 389.056 131.994C389.362 132.283 389.603 132.659 389.779 133.122C389.955 133.582 390.043 134.14 390.043 134.798V135.298H384.279V134.241H388.66C388.66 133.87 388.584 133.541 388.433 133.254C388.282 132.965 388.07 132.737 387.796 132.57C387.525 132.403 387.208 132.32 386.842 132.32C386.446 132.32 386.1 132.417 385.804 132.612C385.511 132.804 385.285 133.056 385.124 133.368C384.967 133.676 384.888 134.011 384.888 134.373V135.199C384.888 135.684 384.973 136.096 385.143 136.436C385.316 136.776 385.557 137.036 385.865 137.215C386.174 137.391 386.534 137.479 386.946 137.479C387.214 137.479 387.458 137.441 387.678 137.366C387.898 137.287 388.089 137.171 388.249 137.017C388.41 136.862 388.532 136.672 388.617 136.445L389.953 136.686C389.846 137.08 389.654 137.424 389.377 137.72C389.104 138.013 388.759 138.241 388.344 138.404C387.931 138.565 387.461 138.645 386.932 138.645ZM394.994 131.248V132.381H391.033V131.248H394.994ZM392.095 129.511H393.507V136.37C393.507 136.644 393.548 136.85 393.63 136.988C393.711 137.124 393.817 137.216 393.946 137.267C394.078 137.314 394.221 137.338 394.375 137.338C394.489 137.338 394.588 137.33 394.673 137.314C394.758 137.298 394.824 137.286 394.871 137.276L395.126 138.442C395.044 138.474 394.928 138.505 394.777 138.537C394.626 138.571 394.437 138.59 394.21 138.593C393.839 138.6 393.493 138.534 393.172 138.395C392.851 138.257 392.591 138.043 392.393 137.753C392.195 137.464 392.095 137.1 392.095 136.663V129.511ZM401.872 133.018L400.593 133.245C400.539 133.081 400.454 132.925 400.338 132.777C400.224 132.63 400.07 132.508 399.875 132.414C399.68 132.32 399.436 132.272 399.143 132.272C398.744 132.272 398.41 132.362 398.143 132.541C397.875 132.718 397.741 132.946 397.741 133.226C397.741 133.468 397.831 133.663 398.01 133.811C398.19 133.959 398.479 134.08 398.879 134.175L400.031 134.439C400.698 134.593 401.195 134.831 401.523 135.152C401.85 135.473 402.013 135.89 402.013 136.403C402.013 136.837 401.888 137.224 401.636 137.564C401.387 137.901 401.039 138.165 400.593 138.357C400.149 138.549 399.634 138.645 399.049 138.645C398.237 138.645 397.574 138.472 397.062 138.126C396.549 137.777 396.234 137.281 396.117 136.639L397.482 136.431C397.567 136.787 397.741 137.056 398.006 137.238C398.27 137.418 398.615 137.508 399.039 137.508C399.502 137.508 399.872 137.412 400.149 137.22C400.426 137.024 400.564 136.787 400.564 136.507C400.564 136.28 400.479 136.09 400.309 135.936C400.143 135.781 399.886 135.665 399.54 135.586L398.312 135.317C397.636 135.163 397.135 134.918 396.811 134.581C396.49 134.244 396.33 133.818 396.33 133.301C396.33 132.873 396.449 132.499 396.689 132.178C396.928 131.857 397.258 131.607 397.68 131.427C398.102 131.245 398.585 131.154 399.129 131.154C399.913 131.154 400.53 131.324 400.98 131.663C401.43 132 401.727 132.452 401.872 133.018Z" fill="black"/>
</svg>
