<svg width="61" height="61" viewBox="0 0 61 61" fill="none" xmlns="http://www.w3.org/2000/svg">
<g clip-path="url(#clip0_329_724)">
<path d="M36.5809 54.1672C35.8067 54.1674 35.0639 53.8611 34.5148 53.3153L17.3387 36.2446C17.0657 35.9733 16.8489 35.651 16.7006 35.2959C16.5522 34.9409 16.4752 34.5601 16.474 34.1754C16.4728 33.7906 16.5474 33.4093 16.6936 33.0534C16.8397 32.6974 17.0545 32.3737 17.3258 32.1008C17.597 31.8279 17.9194 31.611 18.2744 31.4627C18.6294 31.3143 19.0102 31.2374 19.395 31.2362C19.7798 31.235 20.161 31.3096 20.517 31.4557C20.8729 31.6019 21.1966 31.8167 21.4695 32.0879L34.6824 45.2211L36.5891 34.577C36.6955 33.9844 36.9819 33.4389 37.4094 33.0149L45.4531 25.018C51.118 19.3836 54.3359 12.8668 54.575 6.58323C47.9797 7.48088 41.2742 10.7879 36.5176 15.5176L28.1504 23.8438C27.7362 24.2563 27.2081 24.5354 26.634 24.6453L10.9156 27.6512C10.1525 27.7973 9.36252 27.6342 8.71958 27.1978C8.07665 26.7615 7.63338 26.0876 7.48731 25.3244C7.34123 24.5613 7.50431 23.7713 7.94066 23.1284C8.37701 22.4855 9.05089 22.0422 9.81407 21.8961L24.6535 19.0578L32.3879 11.3633C35.4131 8.38828 38.9145 5.94007 42.7473 4.11995C46.5582 2.30002 50.6785 1.10823 54.657 0.671116C56.6773 0.453148 57.9922 1.21018 58.7445 1.88166C60.3359 3.30666 60.4531 5.26604 60.4531 5.83205C60.4531 13.918 56.5953 22.2055 49.5887 29.1735L42.1941 36.5211L39.4637 51.7555C39.3425 52.4319 38.9873 53.0442 38.4603 53.4853C37.9333 53.9264 37.2681 54.1682 36.5809 54.1684V54.1672Z" fill="#1C9842"/>
<path d="M3.40746 60.561C2.82818 60.5609 2.26194 60.389 1.78031 60.0672C1.29868 59.7453 0.923266 59.2879 0.701528 58.7528C0.479789 58.2176 0.421676 57.6287 0.534533 57.0605C0.647389 56.4924 0.92615 55.9704 1.33558 55.5606L8.76058 48.1356C9.3109 47.5902 10.0549 47.2851 10.8296 47.2869C11.6044 47.2887 12.3469 47.5973 12.8947 48.1452C13.4425 48.6932 13.7509 49.4358 13.7525 50.2106C13.7541 50.9853 13.4487 51.7292 12.9032 52.2794L5.47933 59.7032C5.20746 59.9755 4.88448 60.1915 4.52894 60.3387C4.17339 60.4859 3.79227 60.5615 3.40746 60.561Z" fill="#1C9842"/>
<path d="M3.40741 46.4527C2.82789 46.4528 2.26136 46.2811 1.77947 45.9591C1.29759 45.6372 0.922 45.1796 0.700214 44.6442C0.478428 44.1088 0.420409 43.5197 0.533497 42.9513C0.646585 42.3829 0.925699 41.8609 1.33553 41.4511L5.0785 37.7082C5.35058 37.4361 5.67359 37.2203 6.02909 37.073C6.38458 36.9258 6.76559 36.85 7.15038 36.85C7.53516 36.85 7.91617 36.9258 8.27167 37.073C8.62716 37.2203 8.95017 37.4361 9.22225 37.7082C9.49433 37.9803 9.71016 38.3033 9.85741 38.6588C10.0047 39.0143 10.0805 39.3953 10.0805 39.78C10.0805 40.1648 10.0047 40.5458 9.85741 40.9013C9.71016 41.2568 9.49433 41.5798 9.22225 41.8519L5.47928 45.5926C5.20761 45.8653 4.88472 46.0817 4.52916 46.2293C4.1736 46.3769 3.79239 46.4529 3.40741 46.4527Z" fill="#1C9842"/>
<path d="M18.6418 60.561C18.0626 60.5609 17.4963 60.389 17.0147 60.0672C16.5331 59.7453 16.1576 59.2879 15.9359 58.7527C15.7142 58.2176 15.6561 57.6287 15.7689 57.0605C15.8818 56.4923 16.1605 55.9704 16.57 55.5606L20.3129 51.8164C20.8624 51.267 21.6077 50.9583 22.3848 50.9583C23.1619 50.9583 23.9072 51.267 24.4567 51.8164C25.0062 52.3659 25.3149 53.1112 25.3149 53.8883C25.3149 54.6654 25.0062 55.4107 24.4567 55.9602L20.7137 59.7032C20.4418 59.9755 20.1189 60.1915 19.7633 60.3387C19.4078 60.4859 19.0266 60.5614 18.6418 60.561Z" fill="#1C9842"/>
</g>
<defs>
<clipPath id="clip0_329_724">
<rect width="60" height="60" fill="white" transform="translate(0.453125 0.592651)"/>
</clipPath>
</defs>
</svg>
