<svg width="80" height="81" viewBox="0 0 80 81" fill="none" xmlns="http://www.w3.org/2000/svg">
<g clip-path="url(#clip0_351_837)">
<path d="M14.6248 8.66418C11.7101 8.66418 9.33887 11.0347 9.33887 13.9481C9.33887 16.8615 11.7101 19.232 14.6248 19.232C17.5418 19.232 19.9151 16.8615 19.9151 13.9481C19.9151 11.0347 17.5418 8.66418 14.6248 8.66418ZM14.6248 16.0807C13.4478 16.0807 12.4903 15.124 12.4903 13.9481C12.4903 12.7722 13.4478 11.8156 14.6248 11.8156C15.8042 11.8156 16.7639 12.7723 16.7639 13.9482C16.7639 15.1242 15.8042 16.0807 14.6248 16.0807Z" fill="#00C71C"/>
<path d="M60.8442 8.66418H46.8709C43.9562 8.66418 41.585 11.0347 41.585 13.9481C41.585 16.8615 43.9562 19.232 46.8709 19.232H60.8442C63.7589 19.232 66.1301 16.8615 66.1301 13.9481C66.1301 11.0347 63.7589 8.66418 60.8442 8.66418ZM60.8442 16.0807H46.8709C45.6939 16.0807 44.7364 15.124 44.7364 13.9481C44.7364 12.7722 45.694 11.8154 46.8709 11.8154H60.8442C62.0212 11.8154 62.9787 12.7722 62.9787 13.9481C62.9787 15.124 62.0212 16.0807 60.8442 16.0807Z" fill="#00C71C"/>
<path d="M28.324 8.66418C25.4093 8.66418 23.0381 11.0347 23.0381 13.9481C23.0381 16.8615 25.4093 19.232 28.324 19.232C31.2411 19.232 33.6143 16.8615 33.6143 13.9481C33.6143 11.0347 31.2411 8.66418 28.324 8.66418ZM28.324 16.0807C27.147 16.0807 26.1895 15.124 26.1895 13.9481C26.1895 12.7722 27.1471 11.8154 28.324 11.8154C29.5034 11.8154 30.4631 12.7722 30.4631 13.9481C30.4631 15.124 29.5034 16.0807 28.324 16.0807Z" fill="#00C71C"/>
<path d="M25.7547 34.784C24.9086 34.5813 24.0581 35.1037 23.856 35.9503L20.73 49.0312C20.5278 49.8776 21.0499 50.7278 21.8963 50.9299C22.0194 50.9593 22.1427 50.9735 22.2639 50.9735C22.9763 50.9735 23.6222 50.487 23.795 49.7637L26.921 36.6828C27.1233 35.8363 26.6011 34.9863 25.7547 34.784Z" fill="#00C71C"/>
<path d="M31.5405 49.3923C31.8408 49.6598 32.2152 49.7914 32.588 49.7914C33.0219 49.7914 33.4539 49.6132 33.7653 49.2637L38.1838 44.3037C38.9128 43.4921 38.9128 42.2212 38.1883 41.4148L33.7652 36.4496C33.1861 35.7996 32.19 35.7425 31.5405 36.3211C30.8905 36.9 30.833 37.8961 31.4119 38.5457L35.252 42.8565L31.4119 47.1675C30.8331 47.8175 30.8906 48.8136 31.5405 49.3923Z" fill="#00C71C"/>
<path d="M16.1117 36.321C15.4617 35.7421 14.4659 35.8001 13.887 36.4496L9.46903 41.4091C8.73903 42.2209 8.73902 43.4924 9.46402 44.2985L13.8871 49.2637C14.1986 49.6134 14.6304 49.7913 15.0645 49.7913C15.4373 49.7913 15.8118 49.6598 16.112 49.3923C16.762 48.8134 16.8195 47.8173 16.2406 47.1676L12.4004 42.8568L16.2406 38.5459C16.8192 37.8959 16.7617 36.8998 16.1117 36.321Z" fill="#00C71C"/>
<path d="M76.4742 53.08H75.8892C75.5828 52.0875 75.1857 51.1293 74.7014 50.2137L75.1189 49.7948C75.7856 49.1322 76.1536 48.2473 76.155 47.3032C76.1564 46.357 75.7896 45.4686 75.1221 44.8012L74.3087 43.9882V10.4257C74.3087 5.7259 70.9921 1.90247 66.9153 1.90247H7.40027C3.3234 1.90247 0.00683594 5.7259 0.00683594 10.4257V54.4653C0.00683594 59.1651 3.3234 62.9886 7.40027 62.9886H16.645C17.5151 62.9886 18.2206 62.2831 18.2206 61.4129C18.2206 60.5428 17.5151 59.8373 16.645 59.8373H7.40027C5.1009 59.8373 3.15824 57.3772 3.15824 54.4654V25.8789H71.1572V41.8015C70.9776 41.7739 70.7957 41.7557 70.6106 41.7557C70.6087 41.7557 70.6068 41.7557 70.6051 41.7557C69.6611 41.7573 68.7762 42.1248 68.1187 42.7859L67.6928 43.21C66.7579 42.7161 65.7843 42.3143 64.7804 42.0076V41.4464C64.7804 39.4989 63.1957 37.9147 61.2478 37.9147H58.3964C56.4509 37.9147 54.8682 39.4989 54.8682 41.4464V42.0461C53.8832 42.3556 52.9321 42.7539 52.0231 43.2376L51.615 42.8307C50.9521 42.1647 50.0671 41.7968 49.1231 41.7954C49.1214 41.7954 49.1196 41.7954 49.1178 41.7954C48.1736 41.7954 47.287 42.1618 46.6209 42.8275L44.6064 44.8411C43.9389 45.5082 43.5721 46.3968 43.5736 47.3429C43.575 48.287 43.9428 49.1718 44.6045 49.8293L45.0396 50.2657C44.5673 51.1673 44.1793 52.1078 43.8792 53.0797H43.2807C41.3351 53.0797 39.7525 54.6618 39.7525 56.6068V59.4611C39.7525 59.5879 39.7595 59.7132 39.7726 59.8367H30.6046C29.7345 59.8367 29.029 60.5422 29.029 61.4123C29.029 62.2825 29.7345 62.9879 30.6046 62.9879H43.2806H43.8851C44.1898 63.969 44.5837 64.917 45.0642 65.8245L44.6384 66.2484C43.2676 67.6265 43.2689 69.8639 44.6417 71.2356L46.6573 73.2504C47.3201 73.9165 48.2051 74.2843 49.1492 74.2857H49.1543C50.0987 74.2857 50.9853 73.9193 51.6514 73.2536L52.0734 72.8318C52.989 73.3145 53.9411 73.7089 54.9211 74.0118V74.6217C54.9211 76.5692 56.5037 78.1534 58.4493 78.1534H61.3051C63.2506 78.1534 64.8332 76.5692 64.8332 74.6217V74.0156C65.8225 73.7104 66.7784 73.3145 67.6929 72.8317L68.1131 73.2503C68.7757 73.9165 69.6606 74.2842 70.6046 74.2857H70.6101C71.5543 74.2857 72.4409 73.9193 73.1082 73.2525L75.1184 71.2389C75.7851 70.5762 76.1531 69.6914 76.1545 68.7473C76.1559 67.8011 75.7892 66.9126 75.1215 66.2453L74.7011 65.825C75.1806 64.9167 75.5742 63.9681 75.8784 62.9881H76.4739C78.4218 62.9881 80.0065 61.4059 80.0065 59.4611V56.6068C80.0068 54.6622 78.4221 53.08 76.4742 53.08ZM3.15824 22.7275V10.4257C3.15824 7.51403 5.1009 5.05387 7.40027 5.05387H66.9153C69.2146 5.05387 71.1573 7.51403 71.1573 10.4257V22.7276L3.15824 22.7275ZM76.8554 59.4614C76.8554 59.6615 76.6773 59.837 76.474 59.837H74.6721C73.9375 59.837 73.3003 60.3447 73.1362 61.0607C72.7959 62.5459 72.2114 63.9543 71.3987 65.2473C71.0073 65.87 71.0987 66.6806 71.619 67.2004L72.894 68.4747C72.9893 68.57 73.0034 68.6837 73.0034 68.7431C73.0032 68.814 72.9848 68.917 72.8928 69.0082L70.8796 71.025C70.7842 71.1203 70.6703 71.1347 70.6103 71.1347C70.6101 71.1347 70.61 71.1347 70.61 71.1347C70.5384 71.1347 70.4351 71.1161 70.3428 71.0231L69.0631 69.7487C68.5426 69.2304 67.7336 69.1406 67.1122 69.5312C65.8173 70.3457 64.4029 70.9312 62.9081 71.2714C62.1911 71.4348 61.6821 72.0723 61.6821 72.8079V74.6222C61.6821 74.8247 61.5061 75.0025 61.3054 75.0025H58.4496C58.2489 75.0025 58.0728 74.8248 58.0728 74.6222V72.8034C58.0728 72.0672 57.5628 71.4289 56.8446 71.2665C55.3689 70.9328 53.957 70.3482 52.6486 69.5295C52.3907 69.3681 52.1011 69.2893 51.8131 69.2893C51.4061 69.2893 51.0026 69.4467 50.6987 69.7507L49.4239 71.025C49.3284 71.1203 49.2145 71.1347 49.1545 71.1347C49.1543 71.1347 49.1542 71.1347 49.154 71.1347C49.0826 71.1347 48.9792 71.1161 48.8887 71.0251L46.8698 69.0072C46.7284 68.8659 46.73 68.6156 46.8679 68.4768L48.1475 67.2025C48.6703 66.6818 48.7617 65.8684 48.3678 65.2447C47.5539 63.9559 46.9686 62.5484 46.6279 61.0612C46.4639 60.3451 45.8267 59.8373 45.0918 59.8373H43.2809C43.0767 59.8373 42.904 59.6653 42.904 59.4617V56.6075C42.904 56.4039 43.0767 56.2317 43.2809 56.2317H45.0873C45.8228 56.2317 46.4606 55.7228 46.6239 55.0057C46.9601 53.5281 47.5379 52.1264 48.3412 50.8392C48.729 50.2178 48.6375 49.4111 48.1201 48.8923L46.8311 47.5995C46.7436 47.5126 46.7251 47.4097 46.725 47.3387C46.725 47.2793 46.739 47.1656 46.8343 47.0704L48.8487 45.057C48.9442 44.9617 49.0581 44.9473 49.1181 44.9473H49.1186C49.19 44.9475 49.2934 44.9659 49.3857 45.0589L50.6564 46.3245C51.1784 46.8443 51.9904 46.9334 52.612 46.539C53.8995 45.7228 55.3097 45.1315 56.8031 44.782C57.5156 44.6153 58.0195 43.9797 58.0195 43.2478V41.4468C58.0195 41.2407 58.192 41.0665 58.3962 41.0665H61.2476C61.4543 41.0665 61.629 41.2407 61.629 41.4468V43.2212C61.629 43.9595 62.1415 44.5987 62.8623 44.7592C64.3615 45.0931 65.7918 45.6828 67.1136 46.512C67.7346 46.9014 68.5429 46.8114 69.0629 46.2936L70.3478 45.0139C70.435 44.9262 70.5382 44.9078 70.6096 44.9076H70.6101C70.6701 44.9076 70.784 44.922 70.8793 45.0173L72.8939 47.0306C72.9892 47.1259 73.0032 47.2397 73.0032 47.299C73.0031 47.37 72.9846 47.4729 72.892 47.565L71.6168 48.8439C71.0976 49.3647 71.0076 50.1753 71.4 50.7972C72.2157 52.0904 72.8026 53.5067 73.1445 55.0064C73.3079 55.7232 73.9454 56.2318 74.6809 56.2318H76.474C76.6771 56.2318 76.8554 56.4076 76.8554 56.6076V59.4614Z" fill="#00C71C"/>
<path d="M59.8804 48.4103C54.5707 48.4103 50.251 52.7281 50.251 58.0354C50.251 63.3403 54.5707 67.6562 59.8804 67.6562C65.1877 67.6562 69.5054 63.3404 69.5054 58.0354C69.5054 52.7282 65.1877 48.4103 59.8804 48.4103ZM59.8804 64.5048C56.3085 64.5048 53.4024 61.6026 53.4024 58.0354C53.4024 54.4657 56.3085 51.5617 59.8804 51.5617C63.4499 51.5617 66.354 54.4657 66.354 58.0354C66.354 61.6026 63.4497 64.5048 59.8804 64.5048Z" fill="#00C71C"/>
<path d="M23.672 59.8361H23.6411C22.7709 59.8361 22.0654 60.5415 22.0654 61.4117C22.0654 62.2818 22.7709 62.9873 23.6411 62.9873H23.672C24.5421 62.9873 25.2476 62.2818 25.2476 61.4117C25.2476 60.5415 24.5421 59.8361 23.672 59.8361Z" fill="#00C71C"/>
</g>
<defs>
<clipPath id="clip0_351_837">
<rect width="80" height="80" fill="white" transform="translate(0.00683594 0.0274658)"/>
</clipPath>
</defs>
</svg>
