<svg width="184" height="22" viewBox="0 0 184 22" fill="none" xmlns="http://www.w3.org/2000/svg">
<g style="mix-blend-mode:luminosity">
<g clip-path="url(#clip0_149_543)">
<path d="M21.3262 10.5796C21.3262 4.78064 16.6251 0.0795898 10.8262 0.0795898C5.02722 0.0795898 0.326172 4.78055 0.326172 10.5796C0.326172 15.8204 4.16589 20.1644 9.18555 20.952V13.6147H6.51953V10.5796H9.18555V8.26631C9.18555 5.63475 10.7532 4.18115 13.1515 4.18115C14.3004 4.18115 15.502 4.38623 15.502 4.38623V6.97021H14.178C12.8735 6.97021 12.4668 7.77962 12.4668 8.61002V10.5796H15.3789L14.9134 13.6147H12.4668V20.952C17.4865 20.1644 21.3262 15.8205 21.3262 10.5796Z" fill="#1877F2"/>
<path d="M14.9134 13.6147L15.3789 10.5796H12.4668V8.61002C12.4668 7.77954 12.8736 6.97021 14.178 6.97021H15.502V4.38623C15.502 4.38623 14.3004 4.18115 13.1515 4.18115C10.7532 4.18115 9.18555 5.63475 9.18555 8.26631V10.5796H6.51953V13.6147H9.18555V20.952C9.72828 21.0371 10.2768 21.0797 10.8262 21.0796C11.3755 21.0798 11.9241 21.0371 12.4668 20.952V13.6147H14.9134Z" fill="white"/>
</g>
</g>
<g style="mix-blend-mode:luminosity">
<g clip-path="url(#clip1_149_543)">
<path d="M72.4512 0.548412H56.2012C55.8325 0.54466 55.4773 0.687325 55.2137 0.945104C54.9501 1.20288 54.7995 1.55472 54.7949 1.92341V18.239C54.8003 18.6072 54.9512 18.9582 55.2148 19.2153C55.4783 19.4724 55.833 19.6147 56.2012 19.6109H72.4512C72.8199 19.6138 73.1748 19.4707 73.4383 19.2127C73.7018 18.9548 73.8525 18.6031 73.8574 18.2344V1.91872C73.8508 1.55111 73.6994 1.20095 73.4361 0.944358C73.1728 0.687763 72.8188 0.545471 72.4512 0.548412Z" fill="#0076B2"/>
<path d="M57.6154 7.6936H60.4451V16.7983H57.6154V7.6936ZM59.031 3.16235C59.3556 3.16235 59.6728 3.25861 59.9427 3.43896C60.2125 3.6193 60.4228 3.87562 60.5469 4.1755C60.671 4.47538 60.7034 4.80533 60.64 5.12362C60.5766 5.44192 60.4202 5.73425 60.1905 5.96363C59.9609 6.19301 59.6685 6.34914 59.3501 6.41227C59.0318 6.4754 58.7018 6.44268 58.4021 6.31827C58.1023 6.19385 57.8462 5.98333 57.6661 5.71332C57.486 5.44332 57.3901 5.12597 57.3904 4.80142C57.3908 4.36657 57.5638 3.94967 57.8715 3.64233C58.1791 3.33499 58.5962 3.16235 59.031 3.16235ZM62.2201 7.6936H64.9326V8.9436H64.9701C65.3482 8.22798 66.2701 7.47329 67.6466 7.47329C70.5123 7.46704 71.0435 9.35298 71.0435 11.7983V16.7983H68.2138V12.3686C68.2138 11.3139 68.1951 9.9561 66.7435 9.9561C65.2919 9.9561 65.0451 11.1061 65.0451 12.2999V16.7983H62.2201V7.6936Z" fill="white"/>
</g>
</g>
<g style="mix-blend-mode:luminosity">
<g clip-path="url(#clip2_149_543)">
<path d="M123.639 0.0795898H113.014C110.425 0.0795898 108.326 2.17826 108.326 4.76709V15.3921C108.326 17.9809 110.425 20.0796 113.014 20.0796H123.639C126.228 20.0796 128.326 17.9809 128.326 15.3921V4.76709C128.326 2.17826 126.228 0.0795898 123.639 0.0795898Z" fill="url(#paint0_radial_149_543)"/>
<path d="M123.639 0.0795898H113.014C110.425 0.0795898 108.326 2.17826 108.326 4.76709V15.3921C108.326 17.9809 110.425 20.0796 113.014 20.0796H123.639C126.228 20.0796 128.326 17.9809 128.326 15.3921V4.76709C128.326 2.17826 126.228 0.0795898 123.639 0.0795898Z" fill="url(#paint1_radial_149_543)"/>
<path d="M118.327 2.26709C116.205 2.26709 115.939 2.27639 115.106 2.31428C114.274 2.3524 113.706 2.48404 113.209 2.67725C112.695 2.87678 112.26 3.14373 111.825 3.57811C111.391 4.0124 111.124 4.44826 110.924 4.96193C110.73 5.45881 110.598 6.02678 110.561 6.85811C110.523 7.69146 110.514 7.95787 110.514 10.0797C110.514 12.2015 110.523 12.4669 110.561 13.3002C110.599 14.1319 110.731 14.6997 110.924 15.1964C111.124 15.7103 111.39 16.1462 111.825 16.5804C112.259 17.015 112.695 17.2826 113.208 17.4821C113.705 17.6753 114.273 17.8069 115.105 17.8451C115.938 17.8829 116.204 17.8922 118.326 17.8922C120.448 17.8922 120.713 17.8829 121.547 17.8451C122.378 17.8069 122.947 17.6753 123.444 17.4821C123.957 17.2826 124.393 17.015 124.827 16.5804C125.261 16.1462 125.528 15.7103 125.729 15.1966C125.921 14.6997 126.052 14.1318 126.091 13.3004C126.129 12.4671 126.139 12.2015 126.139 10.0797C126.139 7.95787 126.129 7.69162 126.091 6.85826C126.052 6.02654 125.921 5.45889 125.729 4.96217C125.528 4.44826 125.261 4.0124 124.827 3.57811C124.392 3.14357 123.958 2.87662 123.443 2.67732C122.945 2.48404 122.377 2.35232 121.546 2.31428C120.712 2.27639 120.447 2.26709 118.324 2.26709H118.327ZM117.626 3.67498C117.834 3.67467 118.066 3.67498 118.327 3.67498C120.413 3.67498 120.66 3.68248 121.484 3.7199C122.246 3.75475 122.659 3.88201 122.934 3.98896C123.299 4.13053 123.559 4.29982 123.832 4.57334C124.106 4.84678 124.275 5.10717 124.417 5.47178C124.524 5.74678 124.651 6.16021 124.686 6.92193C124.723 7.74553 124.731 7.99287 124.731 10.0779C124.731 12.1629 124.723 12.4103 124.686 13.2338C124.651 13.9955 124.524 14.409 124.417 14.684C124.275 15.0487 124.106 15.3083 123.832 15.5815C123.559 15.855 123.299 16.0242 122.934 16.1658C122.659 16.2733 122.246 16.4002 121.484 16.4351C120.66 16.4725 120.413 16.4806 118.327 16.4806C116.241 16.4806 115.994 16.4725 115.17 16.4351C114.408 16.3999 113.995 16.2726 113.719 16.1657C113.355 16.024 113.094 15.8548 112.821 15.5814C112.547 15.3079 112.378 15.0482 112.236 14.6834C112.129 14.4083 112.002 13.9949 111.967 13.2332C111.93 12.4096 111.922 12.1622 111.922 10.0759C111.922 7.98967 111.93 7.74357 111.967 6.91998C112.002 6.15826 112.129 5.74482 112.236 5.46943C112.378 5.10482 112.547 4.84443 112.821 4.571C113.094 4.29756 113.355 4.12826 113.719 3.98639C113.995 3.87896 114.408 3.75201 115.17 3.71701C115.891 3.68443 116.17 3.67467 117.626 3.67303V3.67498ZM122.497 4.97217C121.98 4.97217 121.56 5.3917 121.56 5.90936C121.56 6.42693 121.98 6.84686 122.497 6.84686C123.015 6.84686 123.435 6.42693 123.435 5.90936C123.435 5.39178 123.015 4.97186 122.497 4.97186V4.97217ZM118.327 6.06756C116.111 6.06756 114.315 7.86397 114.315 10.0797C114.315 12.2954 116.111 14.0909 118.327 14.0909C120.543 14.0909 122.338 12.2954 122.338 10.0797C122.338 7.86404 120.542 6.06756 118.327 6.06756H118.327ZM118.327 7.47545C119.765 7.47545 120.931 8.64131 120.931 10.0797C120.931 11.5179 119.765 12.6839 118.327 12.6839C116.889 12.6839 115.723 11.5179 115.723 10.0797C115.723 8.64131 116.889 7.47545 118.327 7.47545Z" fill="white"/>
</g>
</g>
<g clip-path="url(#clip3_149_543)">
<path d="M182.84 4.49229C182.714 4.02595 182.468 3.60081 182.126 3.25919C181.785 2.91758 181.36 2.67141 180.893 2.5452C179.186 2.07959 172.315 2.07959 172.315 2.07959C172.315 2.07959 165.444 2.09368 163.736 2.55929C163.27 2.68551 162.845 2.93169 162.503 3.27332C162.162 3.61495 161.916 4.04011 161.789 4.50646C161.273 7.53989 161.073 12.1621 161.804 15.0742C161.93 15.5405 162.176 15.9657 162.518 16.3073C162.859 16.6489 163.284 16.8951 163.751 17.0213C165.458 17.4869 172.329 17.4869 172.329 17.4869C172.329 17.4869 179.2 17.4869 180.907 17.0213C181.374 16.8951 181.799 16.6489 182.14 16.3073C182.482 15.9657 182.728 15.5405 182.854 15.0742C183.399 12.0365 183.567 7.41708 182.84 4.49229Z" fill="#FF0000"/>
<path d="M170.128 13.0848L175.828 9.78324L170.128 6.48169V13.0848Z" fill="white"/>
</g>
<defs>
<radialGradient id="paint0_radial_149_543" cx="0" cy="0" r="1" gradientUnits="userSpaceOnUse" gradientTransform="translate(113.639 21.62) rotate(-90) scale(19.8215 18.4355)">
<stop stop-color="#FFDD55"/>
<stop offset="0.1" stop-color="#FFDD55"/>
<stop offset="0.5" stop-color="#FF543E"/>
<stop offset="1" stop-color="#C837AB"/>
</radialGradient>
<radialGradient id="paint1_radial_149_543" cx="0" cy="0" r="1" gradientUnits="userSpaceOnUse" gradientTransform="translate(104.976 1.52029) rotate(78.681) scale(8.86031 36.5225)">
<stop stop-color="#3771C8"/>
<stop offset="0.128" stop-color="#3771C8"/>
<stop offset="1" stop-color="#6600FF" stop-opacity="0"/>
</radialGradient>
<clipPath id="clip0_149_543">
<rect width="21" height="21" fill="white" transform="translate(0.326172 0.0795898)"/>
</clipPath>
<clipPath id="clip1_149_543">
<rect width="20" height="20" fill="white" transform="translate(54.3262 0.0795898)"/>
</clipPath>
<clipPath id="clip2_149_543">
<rect width="20" height="20" fill="white" transform="translate(108.326 0.0795898)"/>
</clipPath>
<clipPath id="clip3_149_543">
<rect width="22" height="15.4688" fill="white" transform="translate(161.326 2.07959)"/>
</clipPath>
</defs>
</svg>
