<svg width="222" height="255" viewBox="0 0 222 255" fill="none" xmlns="http://www.w3.org/2000/svg">
<path d="M135.217 -19.0844C138.395 -23.721 145.238 -23.721 148.415 -19.0844L190.195 41.8773C191.235 43.3952 192.767 44.508 194.532 45.0283L265.421 65.925C270.812 67.5144 272.927 74.0221 269.499 78.477L224.432 137.05C223.31 138.509 222.725 140.309 222.775 142.149L224.807 216.025C224.962 221.644 219.426 225.666 214.13 223.783L144.497 199.021C142.763 198.405 140.87 198.405 139.136 199.021L69.503 223.783C64.2069 225.666 58.6711 221.644 58.8257 216.025L60.8575 142.149C60.9081 140.309 60.3231 138.509 59.201 137.05L14.1335 78.477C10.7058 74.0221 12.8203 67.5144 18.2119 65.925L89.1007 45.0283C90.8657 44.508 92.3974 43.3952 93.4376 41.8773L135.217 -19.0844Z" fill="white" fill-opacity="0.17"/>
</svg>
