<svg width="280" height="273" viewBox="0 0 280 273" fill="none" xmlns="http://www.w3.org/2000/svg">
<path d="M199.096 -134.868C202.075 -140.649 210.341 -140.649 213.319 -134.868L252.598 -58.6277C254.388 -55.1537 258.426 -53.4812 262.148 -54.6721L343.832 -80.8077C350.027 -82.7896 355.872 -76.9446 353.89 -70.7503L327.754 10.9341C326.563 14.6562 328.236 18.6939 331.71 20.4837L407.95 59.7626C413.731 62.7412 413.731 71.0073 407.95 73.9859L331.71 113.265C328.236 115.055 326.563 119.092 327.754 122.814L353.89 204.499C355.872 210.693 350.027 216.538 343.832 214.556L262.148 188.421C258.426 187.23 254.388 188.902 252.598 192.376L213.319 268.616C210.341 274.398 202.075 274.398 199.096 268.616L159.817 192.376C158.027 188.902 153.99 187.23 150.268 188.421L68.5832 214.556C62.3889 216.538 56.5439 210.693 58.5258 204.499L84.6614 122.814C85.8523 119.092 84.1798 115.055 80.7058 113.265L4.46555 73.9859C-1.31589 71.0073 -1.31587 62.7412 4.46557 59.7626L80.7058 20.4837C84.1798 18.6939 85.8523 14.6562 84.6614 10.9341L58.5258 -70.7503C56.5439 -76.9446 62.3889 -82.7896 68.5832 -80.8077L150.268 -54.6721C153.99 -53.4812 158.027 -55.1537 159.817 -58.6277L199.096 -134.868Z" fill="white" fill-opacity="0.17"/>
</svg>
