<svg width="124" height="39" viewBox="0 0 124 39" fill="none" xmlns="http://www.w3.org/2000/svg">
<rect x="0.640625" y="1.021" width="122" height="37" rx="18.5" stroke="#C9F001"/>
<path d="M27.4276 16.3392C27.3636 15.7994 27.1044 15.3804 26.6499 15.0821C26.1953 14.7838 25.6378 14.6346 24.9773 14.6346C24.4943 14.6346 24.0717 14.7128 23.7095 14.869C23.3509 15.0253 23.0703 15.2401 22.8679 15.5135C22.669 15.787 22.5696 16.0977 22.5696 16.4457C22.5696 16.7369 22.6388 16.9873 22.7773 17.1968C22.9194 17.4027 23.1005 17.575 23.3207 17.7135C23.5408 17.8484 23.7717 17.9603 24.0131 18.049C24.2546 18.1343 24.4766 18.2035 24.679 18.2568L25.7869 18.5551C26.071 18.6297 26.3871 18.7326 26.7351 18.864C27.0866 18.9954 27.4222 19.1748 27.7418 19.402C28.065 19.6258 28.3313 19.9134 28.5408 20.265C28.7504 20.6165 28.8551 21.048 28.8551 21.5593C28.8551 22.1488 28.7006 22.6815 28.3917 23.1574C28.0863 23.6332 27.6388 24.0114 27.0494 24.2919C26.4634 24.5725 25.7514 24.7128 24.9134 24.7128C24.1321 24.7128 23.4556 24.5867 22.8839 24.3346C22.3157 24.0824 21.8683 23.7309 21.5415 23.2799C21.2184 22.8289 21.0355 22.3051 20.9929 21.7085H22.3565C22.392 22.1204 22.5305 22.4613 22.772 22.7312C23.017 22.9976 23.326 23.1964 23.6989 23.3278C24.0753 23.4557 24.4801 23.5196 24.9134 23.5196C25.4176 23.5196 25.8704 23.4379 26.2717 23.2745C26.6729 23.1076 26.9908 22.8768 27.2251 22.5821C27.4595 22.2838 27.5767 21.9358 27.5767 21.538C27.5767 21.1758 27.4755 20.8811 27.2731 20.6538C27.0707 20.4265 26.8043 20.2419 26.4741 20.0998C26.1438 19.9578 25.7869 19.8335 25.4034 19.727L24.0611 19.3434C23.2088 19.0984 22.5341 18.7486 22.0369 18.2941C21.5398 17.8395 21.2912 17.2447 21.2912 16.5096C21.2912 15.8988 21.4563 15.3662 21.7866 14.9116C22.1204 14.4535 22.5678 14.0984 23.1289 13.8463C23.6935 13.5906 24.3239 13.4628 25.0199 13.4628C25.723 13.4628 26.348 13.5888 26.8949 13.841C27.4418 14.0895 27.875 14.4304 28.1946 14.8637C28.5178 15.2969 28.6882 15.7888 28.706 16.3392H27.4276ZM36.0129 21.1758V16.3392H37.27V24.521H36.0129V23.1361H35.9276C35.7359 23.5515 35.4376 23.9049 35.0328 24.1961C34.6279 24.4837 34.1166 24.6275 33.4987 24.6275C32.9873 24.6275 32.5328 24.5157 32.135 24.2919C31.7373 24.0647 31.4248 23.7238 31.1975 23.2692C30.9703 22.8111 30.8566 22.2341 30.8566 21.538V16.3392H32.1137V21.4528C32.1137 22.0494 32.2806 22.5253 32.6144 22.8804C32.9518 23.2355 33.3815 23.413 33.9035 23.413C34.216 23.413 34.5338 23.3331 34.857 23.1733C35.1837 23.0135 35.4571 22.7685 35.6773 22.4383C35.901 22.108 36.0129 21.6872 36.0129 21.1758ZM45.3679 18.1716L44.2386 18.4912C44.1676 18.303 44.0629 18.1201 43.9244 17.9425C43.7894 17.7614 43.6048 17.6123 43.3704 17.4951C43.136 17.3779 42.8359 17.3193 42.4702 17.3193C41.9695 17.3193 41.5522 17.4347 41.2184 17.6655C40.8881 17.8928 40.723 18.1822 40.723 18.5338C40.723 18.8463 40.8366 19.0931 41.0639 19.2742C41.2912 19.4553 41.6463 19.6062 42.1293 19.727L43.3438 20.0253C44.0753 20.2028 44.6204 20.4745 44.979 20.8402C45.3377 21.2025 45.517 21.6694 45.517 22.2412C45.517 22.7099 45.3821 23.129 45.1122 23.4983C44.8459 23.8676 44.473 24.1588 43.9936 24.3718C43.5142 24.5849 42.9567 24.6915 42.321 24.6915C41.4865 24.6915 40.7958 24.5103 40.2489 24.1481C39.7021 23.7859 39.3558 23.2568 39.2102 22.5608L40.4034 22.2625C40.517 22.7028 40.7319 23.0331 41.0479 23.2532C41.3675 23.4734 41.7848 23.5835 42.2997 23.5835C42.8857 23.5835 43.3509 23.4592 43.6953 23.2106C44.0433 22.9585 44.2173 22.6566 44.2173 22.3051C44.2173 22.021 44.1179 21.7831 43.919 21.5913C43.7202 21.396 43.4148 21.2504 43.0028 21.1545L41.6392 20.8349C40.8899 20.6574 40.3395 20.3821 39.9879 20.0093C39.6399 19.6329 39.4659 19.1623 39.4659 18.5977C39.4659 18.1361 39.5955 17.7277 39.8548 17.3726C40.1175 17.0174 40.4744 16.7387 40.9254 16.5363C41.38 16.3339 41.8949 16.2326 42.4702 16.2326C43.2798 16.2326 43.9155 16.4102 44.3771 16.7653C44.8423 17.1204 45.1726 17.5892 45.3679 18.1716ZM50.9676 16.3392V17.4045H46.7275V16.3392H50.9676ZM47.9633 14.379H49.2204V22.1772C49.2204 22.5324 49.2719 22.7987 49.3749 22.9763C49.4814 23.1503 49.6164 23.2674 49.7797 23.3278C49.9466 23.3846 50.1224 23.413 50.3071 23.413C50.4456 23.413 50.5592 23.4059 50.648 23.3917C50.7368 23.374 50.8078 23.3598 50.8611 23.3491L51.1167 24.4784C51.0315 24.5103 50.9126 24.5423 50.7599 24.5743C50.6072 24.6098 50.4136 24.6275 50.1792 24.6275C49.8241 24.6275 49.4761 24.5512 49.1352 24.3985C48.7979 24.2458 48.5173 24.0132 48.2936 23.7007C48.0734 23.3882 47.9633 22.994 47.9633 22.5182V14.379ZM55.2662 24.7128C54.7478 24.7128 54.2773 24.6151 53.8547 24.4198C53.4321 24.2209 53.0965 23.9351 52.8479 23.5622C52.5993 23.1858 52.4751 22.7312 52.4751 22.1986C52.4751 21.7298 52.5674 21.3498 52.752 21.0586C52.9367 20.7639 53.1835 20.5331 53.4925 20.3662C53.8014 20.1993 54.1423 20.075 54.5152 19.9933C54.8916 19.9081 55.2698 19.8406 55.6498 19.7909C56.1469 19.727 56.55 19.679 56.8589 19.6471C57.1714 19.6115 57.3987 19.553 57.5407 19.4713C57.6863 19.3896 57.7591 19.2476 57.7591 19.0451V19.0025C57.7591 18.477 57.6153 18.0686 57.3277 17.7774C57.0436 17.4862 56.6121 17.3406 56.0333 17.3406C55.4331 17.3406 54.9626 17.472 54.6217 17.7348C54.2808 17.9976 54.0411 18.2781 53.9026 18.5764L52.7094 18.1503C52.9225 17.6531 53.2066 17.266 53.5617 16.989C53.9204 16.7085 54.311 16.5132 54.7336 16.4031C55.1597 16.2895 55.5787 16.2326 55.9907 16.2326C56.2535 16.2326 56.5553 16.2646 56.8962 16.3285C57.2407 16.3889 57.5727 16.515 57.8923 16.7067C58.2155 16.8985 58.4836 17.1879 58.6966 17.575C58.9097 17.962 59.0162 18.4805 59.0162 19.1304V24.521H57.7591V23.413H57.6952C57.61 23.5906 57.468 23.7806 57.2691 23.983C57.0702 24.1854 56.8057 24.3576 56.4754 24.4997C56.1452 24.6417 55.7421 24.7128 55.2662 24.7128ZM55.458 23.5835C55.9552 23.5835 56.3742 23.4858 56.7151 23.2905C57.0596 23.0952 57.3188 22.8431 57.4928 22.5341C57.6704 22.2252 57.7591 21.9003 57.7591 21.5593V20.4088C57.7059 20.4727 57.5887 20.5313 57.4076 20.5846C57.23 20.6343 57.0241 20.6787 56.7897 20.7177C56.5589 20.7532 56.3334 20.7852 56.1132 20.8136C55.8966 20.8385 55.7208 20.8598 55.5858 20.8775C55.2591 20.9201 54.9537 20.9894 54.6697 21.0853C54.3891 21.1776 54.1618 21.3179 53.9878 21.5061C53.8174 21.6907 53.7322 21.9429 53.7322 22.2625C53.7322 22.6993 53.8937 23.0295 54.2169 23.2532C54.5436 23.4734 54.9573 23.5835 55.458 23.5835ZM61.3107 24.521V16.3392H62.5678V24.521H61.3107ZM61.9499 14.9755C61.7049 14.9755 61.4936 14.8921 61.3161 14.7252C61.142 14.5583 61.055 14.3576 61.055 14.1233C61.055 13.8889 61.142 13.6883 61.3161 13.5214C61.4936 13.3544 61.7049 13.271 61.9499 13.271C62.195 13.271 62.4045 13.3544 62.5785 13.5214C62.756 13.6883 62.8448 13.8889 62.8448 14.1233C62.8448 14.3576 62.756 14.5583 62.5785 14.7252C62.4045 14.8921 62.195 14.9755 61.9499 14.9755ZM66.1274 19.5991V24.521H64.8703V16.3392H66.0848V17.6176H66.1913C66.3831 17.2021 66.6743 16.8683 67.0649 16.6162C67.4555 16.3605 67.9598 16.2326 68.5777 16.2326C69.1317 16.2326 69.6164 16.3463 70.0319 16.5736C70.4474 16.7973 70.7705 17.1382 71.0013 17.5963C71.2322 18.0508 71.3476 18.6261 71.3476 19.3221V24.521H70.0905V19.4074C70.0905 18.7646 69.9236 18.2639 69.5898 17.9052C69.2559 17.543 68.7979 17.3619 68.2155 17.3619C67.8142 17.3619 67.4555 17.4489 67.1395 17.6229C66.827 17.7969 66.5802 18.0508 66.3991 18.3846C66.218 18.7184 66.1274 19.1233 66.1274 19.5991ZM76.0524 24.7128C75.5339 24.7128 75.0634 24.6151 74.6408 24.4198C74.2182 24.2209 73.8826 23.9351 73.6341 23.5622C73.3855 23.1858 73.2612 22.7312 73.2612 22.1986C73.2612 21.7298 73.3535 21.3498 73.5382 21.0586C73.7228 20.7639 73.9696 20.5331 74.2786 20.3662C74.5875 20.1993 74.9284 20.075 75.3013 19.9933C75.6777 19.9081 76.0559 19.8406 76.4359 19.7909C76.9331 19.727 77.3361 19.679 77.6451 19.6471C77.9576 19.6115 78.1848 19.553 78.3269 19.4713C78.4725 19.3896 78.5453 19.2476 78.5453 19.0451V19.0025C78.5453 18.477 78.4015 18.0686 78.1138 17.7774C77.8297 17.4862 77.3983 17.3406 76.8194 17.3406C76.2193 17.3406 75.7488 17.472 75.4078 17.7348C75.0669 17.9976 74.8272 18.2781 74.6887 18.5764L73.4956 18.1503C73.7086 17.6531 73.9927 17.266 74.3478 16.989C74.7065 16.7085 75.0971 16.5132 75.5197 16.4031C75.9458 16.2895 76.3649 16.2326 76.7768 16.2326C77.0396 16.2326 77.3414 16.2646 77.6824 16.3285C78.0268 16.3889 78.3588 16.515 78.6784 16.7067C79.0016 16.8985 79.2697 17.1879 79.4828 17.575C79.6958 17.962 79.8024 18.4805 79.8024 19.1304V24.521H78.5453V23.413H78.4814C78.3961 23.5906 78.2541 23.7806 78.0552 23.983C77.8564 24.1854 77.5918 24.3576 77.2615 24.4997C76.9313 24.6417 76.5282 24.7128 76.0524 24.7128ZM76.2441 23.5835C76.7413 23.5835 77.1603 23.4858 77.5012 23.2905C77.8457 23.0952 78.1049 22.8431 78.2789 22.5341C78.4565 22.2252 78.5453 21.9003 78.5453 21.5593V20.4088C78.492 20.4727 78.3748 20.5313 78.1937 20.5846C78.0162 20.6343 77.8102 20.6787 77.5758 20.7177C77.345 20.7532 77.1195 20.7852 76.8993 20.8136C76.6827 20.8385 76.5069 20.8598 76.372 20.8775C76.0453 20.9201 75.7399 20.9894 75.4558 21.0853C75.1752 21.1776 74.948 21.3179 74.774 21.5061C74.6035 21.6907 74.5183 21.9429 74.5183 22.2625C74.5183 22.6993 74.6799 23.0295 75.003 23.2532C75.3297 23.4734 75.7434 23.5835 76.2441 23.5835ZM82.2673 24.521V13.6119H83.5244V17.6389H83.6309C83.7233 17.4968 83.8511 17.3157 84.0145 17.0956C84.1814 16.8718 84.4193 16.673 84.7282 16.499C85.0407 16.3214 85.4633 16.2326 85.996 16.2326C86.6849 16.2326 87.2922 16.4049 87.8177 16.7493C88.3433 17.0938 88.7535 17.5821 89.0482 18.2142C89.343 18.8463 89.4903 19.592 89.4903 20.4514C89.4903 21.3179 89.343 22.0689 89.0482 22.7046C88.7535 23.3367 88.3451 23.8267 87.8231 24.1748C87.301 24.5192 86.6991 24.6915 86.0173 24.6915C85.4917 24.6915 85.0709 24.6044 84.7549 24.4304C84.4388 24.2529 84.1956 24.0522 84.0251 23.8285C83.8547 23.6013 83.7233 23.413 83.6309 23.2639H83.4818V24.521H82.2673ZM83.5031 20.4301C83.5031 21.048 83.5937 21.5931 83.7748 22.0654C83.9559 22.5341 84.2204 22.9017 84.5684 23.168C84.9165 23.4308 85.3426 23.5622 85.8469 23.5622C86.3724 23.5622 86.811 23.4237 87.1626 23.1467C87.5177 22.8662 87.784 22.4897 87.9616 22.0174C88.1427 21.5416 88.2332 21.0125 88.2332 20.4301C88.2332 19.8548 88.1444 19.3363 87.9669 18.8747C87.7929 18.4095 87.5283 18.0419 87.1732 17.7721C86.8216 17.4986 86.3795 17.3619 85.8469 17.3619C85.3355 17.3619 84.9058 17.4915 84.5578 17.7508C84.2098 18.0064 83.947 18.3651 83.7694 18.8267C83.5919 19.2848 83.5031 19.8193 83.5031 20.4301ZM92.6704 13.6119V24.521H91.4133V13.6119H92.6704ZM98.4032 24.6915C97.6149 24.6915 96.9348 24.5174 96.3631 24.1694C95.7949 23.8179 95.3564 23.3278 95.0474 22.6993C94.742 22.0672 94.5893 21.3321 94.5893 20.494C94.5893 19.6559 94.742 18.9173 95.0474 18.2781C95.3564 17.6353 95.786 17.1346 96.3365 16.776C96.8904 16.4138 97.5368 16.2326 98.2754 16.2326C98.7015 16.2326 99.1223 16.3037 99.5378 16.4457C99.9533 16.5878 100.331 16.8186 100.672 17.1382C101.013 17.4542 101.285 17.8733 101.487 18.3953C101.69 18.9173 101.791 19.5601 101.791 20.3236V20.8562H95.4842V19.7696H100.513C100.513 19.3079 100.42 18.896 100.236 18.5338C100.055 18.1716 99.7953 17.8857 99.4579 17.6762C99.1241 17.4667 98.7299 17.3619 98.2754 17.3619C97.7747 17.3619 97.3414 17.4862 96.9757 17.7348C96.6135 17.9798 96.3347 18.2994 96.1394 18.6936C95.9441 19.0878 95.8464 19.5103 95.8464 19.9613V20.6858C95.8464 21.3037 95.9529 21.8275 96.166 22.2571C96.3826 22.6833 96.6827 23.0082 97.0662 23.2319C97.4498 23.4521 97.8954 23.5622 98.4032 23.5622C98.7335 23.5622 99.0318 23.516 99.2981 23.4237C99.568 23.3278 99.8006 23.1858 99.9959 22.9976C100.191 22.8058 100.342 22.5679 100.449 22.2838L101.663 22.6247C101.535 23.0366 101.32 23.3988 101.019 23.7113C100.717 24.0203 100.344 24.2618 99.9 24.4358C99.4561 24.6062 98.9572 24.6915 98.4032 24.6915Z" fill="#C9F001"/>
</svg>
