<svg width="379" height="301" viewBox="0 0 379 301" fill="none" xmlns="http://www.w3.org/2000/svg">
<path d="M0 0.649536H378.829V292.65C378.829 297.068 375.247 300.65 370.829 300.65H7.99999C3.58171 300.65 0 297.068 0 292.65V0.649536Z" fill="white"/>
<path d="M107.368 149.641C114.199 159.352 121.31 161.226 128.702 155.263L142.01 135.707C143.393 133.682 140.194 131.685 138.811 133.71L130.438 146.017C130.256 146.211 130.008 146.336 129.739 146.369C129.47 146.403 129.197 146.344 128.969 146.201C128.742 146.059 128.575 145.843 128.499 145.593C128.423 145.343 128.442 145.076 128.554 144.838L140.854 126.767C142.078 124.972 139.198 122.505 137.655 124.77L120.152 150.482C119.39 151.606 117.375 150.629 118.274 149.308L133.426 127.046C134.798 125.032 131.599 123.029 130.227 125.043L118.843 141.793C118.66 141.98 118.415 142.099 118.149 142.13C117.884 142.161 117.615 142.101 117.391 141.961C117.167 141.821 117.002 141.61 116.924 141.364C116.846 141.119 116.86 140.855 116.965 140.619L123.716 130.675C125.093 128.645 121.9 126.647 120.517 128.672L106.805 148.817L107.374 149.641H107.368Z" fill="url(#paint0_linear_467_813)"/>
<path d="M107.523 147.284L98.0799 133.416C97.292 132.254 96.2733 131.253 95.0819 130.469C93.8905 129.685 92.5497 129.134 91.1361 128.847C89.7225 128.56 88.2638 128.542 86.8432 128.796C85.4226 129.049 84.068 129.569 82.8567 130.324C81.6454 131.079 80.6011 132.056 79.7835 133.199C78.966 134.341 78.391 135.627 78.0916 136.982C77.7922 138.338 77.7741 139.736 78.0385 141.098C78.3028 142.461 78.8443 143.759 79.6322 144.921V144.954L97.7953 171.631C101.939 177.695 109.373 179.769 115.139 174.65C117.063 172.936 119.613 168.646 121.013 166.594L129.591 153.986C122.18 159.946 115.069 158.074 108.257 148.37L107.688 147.541L107.523 147.284ZM108.257 148.376L107.688 147.546C107.874 147.826 108.064 148.099 108.257 148.365V148.376Z" fill="url(#paint1_linear_467_813)"/>
<path d="M162.602 174.235C160.883 174.235 159.614 173.351 158.794 171.583L148.549 148.731C148.307 148.297 148.175 147.814 148.164 147.322C148.153 146.829 148.263 146.342 148.486 145.898C148.938 145.076 149.86 144.665 151.253 144.665C151.903 144.643 152.542 144.835 153.063 145.21C153.628 145.705 154.055 146.328 154.303 147.022L162.722 166.933L171.328 147.022C171.579 146.322 172.012 145.695 172.586 145.2C173.169 144.807 173.873 144.615 174.584 144.654C175.05 144.61 175.518 144.705 175.925 144.926C176.333 145.147 176.659 145.482 176.861 145.887C177.063 146.325 177.163 146.801 177.153 147.28C177.144 147.759 177.024 148.23 176.804 148.66L166.422 171.583C165.64 173.351 164.367 174.235 162.602 174.235ZM194.921 174.355C189.988 174.355 186.118 173.029 183.31 170.376C180.502 167.724 179.088 164.102 179.069 159.51C179.012 156.8 179.655 154.119 180.942 151.705C182.123 149.516 183.922 147.689 186.133 146.433C188.447 145.149 191.082 144.496 193.755 144.545C197.894 144.545 201.15 145.818 203.522 148.365C205.894 150.912 207.081 154.398 207.085 158.822C207.085 160.158 206.265 160.825 204.626 160.825H185.091C185.539 166.796 188.837 169.782 194.984 169.782C196.285 169.771 197.581 169.623 198.849 169.339C200.25 169.019 201.581 168.465 202.782 167.702C203.437 167.271 204.238 167.091 205.025 167.2C205.32 167.254 205.599 167.373 205.839 167.547C206.078 167.721 206.273 167.946 206.408 168.204C206.696 168.75 206.751 169.383 206.561 169.967C206.324 170.685 205.806 171.288 205.116 171.648C203.624 172.593 201.971 173.28 200.232 173.678C198.498 174.115 196.714 174.344 194.921 174.361V174.355ZM193.999 148.703C191.415 148.703 189.372 149.473 187.852 151.001C186.259 152.701 185.29 154.853 185.091 157.13H201.86C201.742 154.46 201.006 152.387 199.651 150.914C198.297 149.44 196.413 148.713 193.999 148.731V148.703ZM215.378 174.213C213.329 174.213 212.305 173.209 212.305 171.211V147.666C212.305 145.663 213.312 144.665 215.316 144.665C217.319 144.665 218.327 145.663 218.327 147.666V149.85C219.299 148.169 220.761 146.796 222.533 145.898C224.385 144.981 226.443 144.517 228.527 144.545C235.615 144.545 239.157 148.394 239.154 156.093V171.228C239.154 173.233 238.129 174.235 236.08 174.235C234.031 174.235 232.987 173.233 232.949 171.228V156.443C232.949 153.968 232.447 152.162 231.441 151.023C230.439 149.888 228.874 149.315 226.74 149.315C225.631 149.267 224.524 149.445 223.492 149.836C222.46 150.227 221.526 150.823 220.752 151.585C219.256 153.095 218.509 155.096 218.509 157.589V171.233C218.509 173.234 217.465 174.235 215.378 174.235V174.213ZM247.322 173.798C246.951 173.828 246.577 173.775 246.231 173.642C245.886 173.51 245.577 173.301 245.329 173.034C244.888 172.503 244.684 171.826 244.76 171.151C244.858 170.33 245.236 169.562 245.836 168.968L261.318 149.648H246.952C245.358 149.648 244.561 148.882 244.561 147.35C244.561 145.822 245.358 145.052 246.952 145.052H265.508C265.922 145.018 266.34 145.069 266.732 145.202C267.125 145.334 267.484 145.546 267.784 145.822C268.026 146.068 268.209 146.361 268.321 146.681C268.433 147.002 268.471 147.341 268.433 147.677C268.339 148.479 267.982 149.232 267.414 149.828L251.75 169.263H266.862C268.502 169.263 269.321 170.009 269.321 171.501C269.321 172.993 268.502 173.758 266.862 173.798H247.322ZM285.782 174.344C283.038 174.412 280.324 173.781 277.916 172.516C275.721 171.314 273.94 169.523 272.793 167.364C271.532 164.905 270.913 162.189 270.989 159.45C270.913 156.707 271.534 153.987 272.799 151.525C273.948 149.367 275.728 147.576 277.922 146.373C280.33 145.11 283.044 144.481 285.788 144.55C288.491 144.491 291.162 145.12 293.529 146.373C295.729 147.579 297.52 149.368 298.686 151.525C299.972 153.981 300.605 156.703 300.53 159.45C300.605 162.197 299.972 164.919 298.686 167.375C297.518 169.531 295.728 171.319 293.529 172.527C291.163 173.782 288.492 174.413 285.788 174.355L285.782 174.344ZM285.782 169.749C286.949 169.786 288.11 169.567 289.175 169.107C290.239 168.647 291.18 167.959 291.924 167.096C293.484 165.328 294.261 162.781 294.258 159.455C294.254 156.13 293.476 153.583 291.924 151.814C291.142 150.989 290.189 150.33 289.126 149.879C288.063 149.427 286.914 149.194 285.751 149.194C284.588 149.194 283.439 149.427 282.376 149.879C281.313 150.33 280.36 150.989 279.578 151.814C278.018 153.561 277.239 156.108 277.239 159.455C277.239 162.803 278.018 165.35 279.578 167.096C280.332 167.964 281.283 168.654 282.359 169.114C283.434 169.574 284.606 169.791 285.782 169.749Z" fill="url(#paint2_linear_467_813)"/>
<defs>
<linearGradient id="paint0_linear_467_813" x1="138.418" y1="120.473" x2="119.313" y2="155.225" gradientUnits="userSpaceOnUse">
<stop stop-color="#EC3939"/>
<stop offset="0.6" stop-color="#C83443"/>
<stop offset="1" stop-color="#00157D"/>
</linearGradient>
<linearGradient id="paint1_linear_467_813" x1="89.8665" y1="128.403" x2="114.6" y2="173.737" gradientUnits="userSpaceOnUse">
<stop stop-color="#1C9EDC"/>
<stop offset="1" stop-color="#0E3C91"/>
</linearGradient>
<linearGradient id="paint2_linear_467_813" x1="147.516" y1="159.861" x2="300.817" y2="159.861" gradientUnits="userSpaceOnUse">
<stop stop-color="#0E4698"/>
<stop offset="1" stop-color="#E0373C"/>
</linearGradient>
</defs>
</svg>
