<svg width="239" height="39" viewBox="0 0 239 39" fill="none" xmlns="http://www.w3.org/2000/svg">
<rect x="1.05469" y="1.0957" width="237" height="37" rx="18.5" stroke="#C9F001"/>
<path d="M23.8572 24.5957L20.8743 13.6866H22.2166L24.4964 22.5716H24.603L26.9254 13.6866H28.4169L30.7393 22.5716H30.8459L33.1257 13.6866H34.468L31.4851 24.5957H30.1214L27.7138 15.9025H27.6286L25.2209 24.5957H23.8572ZM38.5057 24.7662C37.767 24.7662 37.119 24.5904 36.5614 24.2388C36.0075 23.8873 35.5742 23.3954 35.2617 22.7633C34.9528 22.1312 34.7983 21.3926 34.7983 20.5474C34.7983 19.6951 34.9528 18.9512 35.2617 18.3155C35.5742 17.6799 36.0075 17.1863 36.5614 16.8347C37.119 16.4831 37.767 16.3074 38.5057 16.3074C39.2443 16.3074 39.8906 16.4831 40.4446 16.8347C41.0021 17.1863 41.4354 17.6799 41.7443 18.3155C42.0568 18.9512 42.2131 19.6951 42.2131 20.5474C42.2131 21.3926 42.0568 22.1312 41.7443 22.7633C41.4354 23.3954 41.0021 23.8873 40.4446 24.2388C39.8906 24.5904 39.2443 24.7662 38.5057 24.7662ZM38.5057 23.6369C39.0668 23.6369 39.5284 23.4931 39.8906 23.2054C40.2528 22.9178 40.521 22.5396 40.695 22.0708C40.869 21.6021 40.956 21.0943 40.956 20.5474C40.956 20.0005 40.869 19.4909 40.695 19.0186C40.521 18.5463 40.2528 18.1646 39.8906 17.8734C39.5284 17.5822 39.0668 17.4366 38.5057 17.4366C37.9446 17.4366 37.483 17.5822 37.1207 17.8734C36.7585 18.1646 36.4904 18.5463 36.3164 19.0186C36.1424 19.4909 36.0554 20.0005 36.0554 20.5474C36.0554 21.0943 36.1424 21.6021 36.3164 22.0708C36.4904 22.5396 36.7585 22.9178 37.1207 23.2054C37.483 23.4931 37.9446 23.6369 38.5057 23.6369ZM44.132 24.5957V16.4139H45.3465V17.6497H45.4317C45.5809 17.2449 45.8508 16.9164 46.2414 16.6642C46.632 16.4121 47.0724 16.286 47.5624 16.286C47.6547 16.286 47.7702 16.2878 47.9086 16.2914C48.0471 16.2949 48.1519 16.3002 48.2229 16.3074V17.5858C48.1803 17.5751 48.0827 17.5591 47.93 17.5378C47.7808 17.513 47.6228 17.5005 47.4559 17.5005C47.0582 17.5005 46.703 17.584 46.3905 17.7509C46.0816 17.9142 45.8366 18.1415 45.6555 18.4327C45.4779 18.7203 45.3891 19.0488 45.3891 19.4181V24.5957H44.132ZM52.5535 24.7662C51.8717 24.7662 51.2698 24.5939 50.7478 24.2495C50.2258 23.9015 49.8174 23.4114 49.5226 22.7793C49.2279 22.1436 49.0805 21.3926 49.0805 20.5261C49.0805 19.6667 49.2279 18.921 49.5226 18.2889C49.8174 17.6568 50.2275 17.1685 50.7531 16.824C51.2787 16.4796 51.8859 16.3074 52.5748 16.3074C53.1075 16.3074 53.5283 16.3961 53.8373 16.5737C54.1498 16.7477 54.3877 16.9466 54.551 17.1703C54.718 17.3904 54.8476 17.5716 54.9399 17.7136H55.0464V13.6866H56.3035V24.5957H55.089V23.3386H54.9399C54.8476 23.4877 54.7162 23.676 54.5457 23.9032C54.3753 24.127 54.132 24.3276 53.816 24.5051C53.4999 24.6792 53.0791 24.7662 52.5535 24.7662ZM52.724 23.6369C53.2282 23.6369 53.6544 23.5055 54.0024 23.2427C54.3504 22.9764 54.615 22.6088 54.7961 22.1401C54.9772 21.6678 55.0677 21.1227 55.0677 20.5048C55.0677 19.894 54.979 19.3596 54.8014 18.9015C54.6238 18.4398 54.3611 18.0811 54.0131 17.8255C53.665 17.5662 53.2354 17.4366 52.724 17.4366C52.1913 17.4366 51.7474 17.5733 51.3923 17.8468C51.0407 18.1167 50.7762 18.4842 50.5986 18.9494C50.4246 19.411 50.3376 19.9295 50.3376 20.5048C50.3376 21.0872 50.4264 21.6163 50.604 22.0922C50.7851 22.5645 51.0514 22.9409 51.403 23.2214C51.7581 23.4984 52.1984 23.6369 52.724 23.6369ZM58.9509 24.5957V13.6866H62.637C63.4928 13.6866 64.1924 13.8411 64.7357 14.15C65.2826 14.4554 65.6874 14.8691 65.9502 15.3912C66.213 15.9132 66.3444 16.4956 66.3444 17.1383C66.3444 17.7811 66.213 18.3652 65.9502 18.8908C65.691 19.4164 65.2897 19.8354 64.7464 20.1479C64.203 20.4569 63.507 20.6113 62.6583 20.6113H60.0162V19.4395H62.6157C63.2016 19.4395 63.6721 19.3382 64.0273 19.1358C64.3824 18.9334 64.6398 18.66 64.7996 18.3155C64.963 17.9675 65.0447 17.5751 65.0447 17.1383C65.0447 16.7015 64.963 16.3109 64.7996 15.9664C64.6398 15.622 64.3806 15.3521 64.0219 15.1568C63.6633 14.9579 63.1874 14.8585 62.5944 14.8585H60.2719V24.5957H58.9509ZM68.3019 24.5957V16.4139H69.5164V17.6497H69.6017C69.7508 17.2449 70.0207 16.9164 70.4113 16.6642C70.8019 16.4121 71.2423 16.286 71.7323 16.286C71.8247 16.286 71.9401 16.2878 72.0786 16.2914C72.2171 16.2949 72.3218 16.3002 72.3928 16.3074V17.5858C72.3502 17.5751 72.2526 17.5591 72.0999 17.5378C71.9507 17.513 71.7927 17.5005 71.6258 17.5005C71.2281 17.5005 70.873 17.584 70.5605 17.7509C70.2515 17.9142 70.0065 18.1415 69.8254 18.4327C69.6478 18.7203 69.559 19.0488 69.559 19.4181V24.5957H68.3019ZM77.0644 24.7662C76.276 24.7662 75.596 24.5922 75.0242 24.2441C74.4561 23.8926 74.0175 23.4025 73.7085 22.774C73.4031 22.1419 73.2504 21.4068 73.2504 20.5687C73.2504 19.7306 73.4031 18.992 73.7085 18.3528C74.0175 17.71 74.4472 17.2093 74.9976 16.8507C75.5516 16.4885 76.1979 16.3074 76.9365 16.3074C77.3627 16.3074 77.7835 16.3784 78.199 16.5204C78.6144 16.6625 78.9926 16.8933 79.3335 17.2129C79.6744 17.5289 79.9461 17.948 80.1485 18.47C80.3509 18.992 80.4521 19.6348 80.4521 20.3983V20.9309H74.1453V19.8443H79.1737C79.1737 19.3826 79.0814 18.9707 78.8968 18.6085C78.7156 18.2463 78.4564 17.9604 78.1191 17.7509C77.7852 17.5414 77.3911 17.4366 76.9365 17.4366C76.4358 17.4366 76.0026 17.5609 75.6368 17.8095C75.2746 18.0545 74.9958 18.3741 74.8005 18.7683C74.6052 19.1625 74.5075 19.585 74.5075 20.036V20.7605C74.5075 21.3784 74.6141 21.9022 74.8271 22.3319C75.0438 22.758 75.3438 23.0829 75.7274 23.3066C76.1109 23.5268 76.5566 23.6369 77.0644 23.6369C77.3946 23.6369 77.6929 23.5907 77.9593 23.4984C78.2291 23.4025 78.4617 23.2605 78.657 23.0723C78.8524 22.8805 79.0033 22.6426 79.1098 22.3585L80.3243 22.6994C80.1965 23.1113 79.9816 23.4735 79.6798 23.786C79.3779 24.095 79.0051 24.3365 78.5612 24.5105C78.1173 24.6809 77.6183 24.7662 77.0644 24.7662ZM88.1599 18.2463L87.0306 18.5659C86.9596 18.3777 86.8548 18.1948 86.7164 18.0172C86.5814 17.8361 86.3968 17.687 86.1624 17.5698C85.928 17.4526 85.6279 17.394 85.2622 17.394C84.7615 17.394 84.3442 17.5094 84.0104 17.7402C83.6801 17.9675 83.515 18.2569 83.515 18.6085C83.515 18.921 83.6286 19.1678 83.8559 19.3489C84.0832 19.53 84.4383 19.6809 84.9213 19.8017L86.1357 20.1C86.8673 20.2775 87.4124 20.5492 87.771 20.915C88.1297 21.2772 88.309 21.7441 88.309 22.3159C88.309 22.7846 88.1741 23.2037 87.9042 23.573C87.6379 23.9423 87.265 24.2335 86.7856 24.4466C86.3062 24.6596 85.7487 24.7662 85.113 24.7662C84.2785 24.7662 83.5878 24.585 83.0409 24.2228C82.4941 23.8606 82.1478 23.3315 82.0022 22.6355L83.1954 22.3372C83.309 22.7775 83.5239 23.1078 83.8399 23.3279C84.1595 23.5481 84.5768 23.6582 85.0917 23.6582C85.6776 23.6582 86.1428 23.5339 86.4873 23.2853C86.8353 23.0332 87.0093 22.7314 87.0093 22.3798C87.0093 22.0957 86.9099 21.8578 86.711 21.666C86.5122 21.4707 86.2068 21.3251 85.7948 21.2292L84.4312 20.9096C83.6819 20.7321 83.1315 20.4569 82.7799 20.084C82.4319 19.7076 82.2579 19.237 82.2579 18.6724C82.2579 18.2108 82.3875 17.8024 82.6468 17.4473C82.9095 17.0922 83.2664 16.8134 83.7174 16.611C84.172 16.4086 84.6869 16.3074 85.2622 16.3074C86.0718 16.3074 86.7075 16.4849 87.1691 16.84C87.6343 17.1951 87.9646 17.6639 88.1599 18.2463ZM95.9968 18.2463L94.8675 18.5659C94.7965 18.3777 94.6918 18.1948 94.5533 18.0172C94.4183 17.8361 94.2337 17.687 93.9993 17.5698C93.7649 17.4526 93.4648 17.394 93.0991 17.394C92.5984 17.394 92.1811 17.5094 91.8473 17.7402C91.517 17.9675 91.3519 18.2569 91.3519 18.6085C91.3519 18.921 91.4656 19.1678 91.6928 19.3489C91.9201 19.53 92.2752 19.6809 92.7582 19.8017L93.9727 20.1C94.7042 20.2775 95.2493 20.5492 95.608 20.915C95.9666 21.2772 96.146 21.7441 96.146 22.3159C96.146 22.7846 96.011 23.2037 95.7411 23.573C95.4748 23.9423 95.1019 24.2335 94.6225 24.4466C94.1431 24.6596 93.5856 24.7662 92.9499 24.7662C92.1154 24.7662 91.4247 24.585 90.8778 24.2228C90.331 23.8606 89.9847 23.3315 89.8391 22.6355L91.0323 22.3372C91.146 22.7775 91.3608 23.1078 91.6768 23.3279C91.9964 23.5481 92.4137 23.6582 92.9286 23.6582C93.5146 23.6582 93.9798 23.5339 94.3242 23.2853C94.6722 23.0332 94.8462 22.7314 94.8462 22.3798C94.8462 22.0957 94.7468 21.8578 94.5479 21.666C94.3491 21.4707 94.0437 21.3251 93.6317 21.2292L92.2681 20.9096C91.5188 20.7321 90.9684 20.4569 90.6168 20.084C90.2688 19.7076 90.0948 19.237 90.0948 18.6724C90.0948 18.2108 90.2244 17.8024 90.4837 17.4473C90.7464 17.0922 91.1033 16.8134 91.5543 16.611C92.0089 16.4086 92.5238 16.3074 93.0991 16.3074C93.9087 16.3074 94.5444 16.4849 95.006 16.84C95.4712 17.1951 95.8015 17.6639 95.9968 18.2463ZM106.945 18.5552V19.7271H102.172V18.5552H106.945ZM115.527 24.5957L112.544 13.6866H113.887L116.166 22.5716H116.273L118.595 13.6866H120.087L122.409 22.5716H122.516L124.796 13.6866H126.138L123.155 24.5957H121.791L119.384 15.9025H119.298L116.891 24.5957H115.527ZM130.176 24.7662C129.437 24.7662 128.789 24.5904 128.231 24.2388C127.677 23.8873 127.244 23.3954 126.932 22.7633C126.623 22.1312 126.468 21.3926 126.468 20.5474C126.468 19.6951 126.623 18.9512 126.932 18.3155C127.244 17.6799 127.677 17.1863 128.231 16.8347C128.789 16.4831 129.437 16.3074 130.176 16.3074C130.914 16.3074 131.561 16.4831 132.115 16.8347C132.672 17.1863 133.105 17.6799 133.414 18.3155C133.727 18.9512 133.883 19.6951 133.883 20.5474C133.883 21.3926 133.727 22.1312 133.414 22.7633C133.105 23.3954 132.672 23.8873 132.115 24.2388C131.561 24.5904 130.914 24.7662 130.176 24.7662ZM130.176 23.6369C130.737 23.6369 131.198 23.4931 131.561 23.2054C131.923 22.9178 132.191 22.5396 132.365 22.0708C132.539 21.6021 132.626 21.0943 132.626 20.5474C132.626 20.0005 132.539 19.4909 132.365 19.0186C132.191 18.5463 131.923 18.1646 131.561 17.8734C131.198 17.5822 130.737 17.4366 130.176 17.4366C129.615 17.4366 129.153 17.5822 128.791 17.8734C128.428 18.1646 128.16 18.5463 127.986 19.0186C127.812 19.4909 127.725 20.0005 127.725 20.5474C127.725 21.0943 127.812 21.6021 127.986 22.0708C128.16 22.5396 128.428 22.9178 128.791 23.2054C129.153 23.4931 129.615 23.6369 130.176 23.6369ZM139.126 24.7662C138.387 24.7662 137.739 24.5904 137.182 24.2388C136.628 23.8873 136.194 23.3954 135.882 22.7633C135.573 22.1312 135.418 21.3926 135.418 20.5474C135.418 19.6951 135.573 18.9512 135.882 18.3155C136.194 17.6799 136.628 17.1863 137.182 16.8347C137.739 16.4831 138.387 16.3074 139.126 16.3074C139.864 16.3074 140.511 16.4831 141.065 16.8347C141.622 17.1863 142.055 17.6799 142.364 18.3155C142.677 18.9512 142.833 19.6951 142.833 20.5474C142.833 21.3926 142.677 22.1312 142.364 22.7633C142.055 23.3954 141.622 23.8873 141.065 24.2388C140.511 24.5904 139.864 24.7662 139.126 24.7662ZM139.126 23.6369C139.687 23.6369 140.149 23.4931 140.511 23.2054C140.873 22.9178 141.141 22.5396 141.315 22.0708C141.489 21.6021 141.576 21.0943 141.576 20.5474C141.576 20.0005 141.489 19.4909 141.315 19.0186C141.141 18.5463 140.873 18.1646 140.511 17.8734C140.149 17.5822 139.687 17.4366 139.126 17.4366C138.565 17.4366 138.103 17.5822 137.741 17.8734C137.379 18.1646 137.111 18.5463 136.937 19.0186C136.763 19.4909 136.676 20.0005 136.676 20.5474C136.676 21.0943 136.763 21.6021 136.937 22.0708C137.111 22.5396 137.379 22.9178 137.741 23.2054C138.103 23.4931 138.565 23.6369 139.126 23.6369ZM148.076 24.7662C147.309 24.7662 146.648 24.585 146.094 24.2228C145.54 23.8606 145.114 23.3617 144.816 22.726C144.518 22.0904 144.369 21.3642 144.369 20.5474C144.369 19.7164 144.521 18.9831 144.827 18.3475C145.136 17.7083 145.565 17.2093 146.116 16.8507C146.67 16.4885 147.316 16.3074 148.055 16.3074C148.63 16.3074 149.148 16.4139 149.61 16.627C150.072 16.84 150.45 17.1383 150.745 17.5218C151.039 17.9054 151.222 18.3528 151.293 18.8642H150.036C149.94 18.4913 149.727 18.161 149.397 17.8734C149.07 17.5822 148.63 17.4366 148.076 17.4366C147.586 17.4366 147.156 17.5645 146.787 17.8201C146.421 18.0723 146.135 18.4292 145.929 18.8908C145.727 19.3489 145.626 19.8869 145.626 20.5048C145.626 21.1369 145.725 21.6873 145.924 22.1561C146.126 22.6248 146.411 22.9888 146.776 23.248C147.146 23.5073 147.579 23.6369 148.076 23.6369C148.403 23.6369 148.699 23.5801 148.966 23.4664C149.232 23.3528 149.457 23.1895 149.642 22.9764C149.827 22.7633 149.958 22.5076 150.036 22.2093H151.293C151.222 22.6923 151.047 23.1273 150.766 23.5144C150.489 23.8979 150.121 24.2033 149.663 24.4306C149.209 24.6543 148.68 24.7662 148.076 24.7662ZM156.455 24.7662C155.716 24.7662 155.068 24.5904 154.511 24.2388C153.957 23.8873 153.523 23.3954 153.211 22.7633C152.902 22.1312 152.748 21.3926 152.748 20.5474C152.748 19.6951 152.902 18.9512 153.211 18.3155C153.523 17.6799 153.957 17.1863 154.511 16.8347C155.068 16.4831 155.716 16.3074 156.455 16.3074C157.194 16.3074 157.84 16.4831 158.394 16.8347C158.951 17.1863 159.385 17.6799 159.694 18.3155C160.006 18.9512 160.162 19.6951 160.162 20.5474C160.162 21.3926 160.006 22.1312 159.694 22.7633C159.385 23.3954 158.951 23.8873 158.394 24.2388C157.84 24.5904 157.194 24.7662 156.455 24.7662ZM156.455 23.6369C157.016 23.6369 157.478 23.4931 157.84 23.2054C158.202 22.9178 158.47 22.5396 158.644 22.0708C158.818 21.6021 158.905 21.0943 158.905 20.5474C158.905 20.0005 158.818 19.4909 158.644 19.0186C158.47 18.5463 158.202 18.1646 157.84 17.8734C157.478 17.5822 157.016 17.4366 156.455 17.4366C155.894 17.4366 155.432 17.5822 155.07 17.8734C154.708 18.1646 154.44 18.5463 154.266 19.0186C154.092 19.4909 154.005 20.0005 154.005 20.5474C154.005 21.0943 154.092 21.6021 154.266 22.0708C154.44 22.5396 154.708 22.9178 155.07 23.2054C155.432 23.4931 155.894 23.6369 156.455 23.6369ZM162.081 24.5957V16.4139H163.296V17.6923H163.402C163.573 17.2555 163.848 16.9164 164.228 16.6749C164.608 16.4299 165.064 16.3074 165.597 16.3074C166.137 16.3074 166.586 16.4299 166.945 16.6749C167.307 16.9164 167.589 17.2555 167.791 17.6923H167.877C168.086 17.2697 168.4 16.9341 168.82 16.6855C169.239 16.4334 169.741 16.3074 170.327 16.3074C171.059 16.3074 171.657 16.5364 172.122 16.9945C172.587 17.449 172.82 18.1575 172.82 19.1199V24.5957H171.563V19.1199C171.563 18.5162 171.398 18.0847 171.067 17.8255C170.737 17.5662 170.348 17.4366 169.901 17.4366C169.326 17.4366 168.88 17.6106 168.564 17.9586C168.248 18.3031 168.09 18.7399 168.09 19.269V24.5957H166.811V18.992C166.811 18.5268 166.66 18.1522 166.359 17.8681C166.057 17.5804 165.668 17.4366 165.192 17.4366C164.865 17.4366 164.56 17.5236 164.276 17.6976C163.995 17.8716 163.768 18.1131 163.594 18.4221C163.424 18.7275 163.338 19.0808 163.338 19.4821V24.5957H162.081ZM175.118 24.5957V16.4139H176.333V17.6923H176.439C176.61 17.2555 176.885 16.9164 177.265 16.6749C177.645 16.4299 178.101 16.3074 178.634 16.3074C179.174 16.3074 179.623 16.4299 179.982 16.6749C180.344 16.9164 180.626 17.2555 180.829 17.6923H180.914C181.123 17.2697 181.438 16.9341 181.857 16.6855C182.276 16.4334 182.778 16.3074 183.364 16.3074C184.096 16.3074 184.694 16.5364 185.159 16.9945C185.624 17.449 185.857 18.1575 185.857 19.1199V24.5957H184.6V19.1199C184.6 18.5162 184.435 18.0847 184.104 17.8255C183.774 17.5662 183.385 17.4366 182.938 17.4366C182.363 17.4366 181.917 17.6106 181.601 17.9586C181.285 18.3031 181.127 18.7399 181.127 19.269V24.5957H179.848V18.992C179.848 18.5268 179.698 18.1522 179.396 17.8681C179.094 17.5804 178.705 17.4366 178.229 17.4366C177.902 17.4366 177.597 17.5236 177.313 17.6976C177.032 17.8716 176.805 18.1131 176.631 18.4221C176.461 18.7275 176.375 19.0808 176.375 19.4821V24.5957H175.118ZM191.586 24.7662C190.797 24.7662 190.117 24.5922 189.546 24.2441C188.978 23.8926 188.539 23.4025 188.23 22.774C187.925 22.1419 187.772 21.4068 187.772 20.5687C187.772 19.7306 187.925 18.992 188.23 18.3528C188.539 17.71 188.969 17.2093 189.519 16.8507C190.073 16.4885 190.719 16.3074 191.458 16.3074C191.884 16.3074 192.305 16.3784 192.72 16.5204C193.136 16.6625 193.514 16.8933 193.855 17.2129C194.196 17.5289 194.468 17.948 194.67 18.47C194.872 18.992 194.974 19.6348 194.974 20.3983V20.9309H188.667V19.8443H193.695C193.695 19.3826 193.603 18.9707 193.418 18.6085C193.237 18.2463 192.978 17.9604 192.641 17.7509C192.307 17.5414 191.913 17.4366 191.458 17.4366C190.957 17.4366 190.524 17.5609 190.158 17.8095C189.796 18.0545 189.517 18.3741 189.322 18.7683C189.127 19.1625 189.029 19.585 189.029 20.036V20.7605C189.029 21.3784 189.136 21.9022 189.349 22.3319C189.565 22.758 189.865 23.0829 190.249 23.3066C190.632 23.5268 191.078 23.6369 191.586 23.6369C191.916 23.6369 192.214 23.5907 192.481 23.4984C192.751 23.4025 192.983 23.2605 193.179 23.0723C193.374 22.8805 193.525 22.6426 193.631 22.3585L194.846 22.6994C194.718 23.1113 194.503 23.4735 194.201 23.786C193.899 24.095 193.527 24.3365 193.083 24.5105C192.639 24.6809 192.14 24.7662 191.586 24.7662ZM196.886 24.5957V16.4139H198.1V17.6497H198.186C198.335 17.2449 198.605 16.9164 198.995 16.6642C199.386 16.4121 199.826 16.286 200.316 16.286C200.409 16.286 200.524 16.2878 200.663 16.2914C200.801 16.2949 200.906 16.3002 200.977 16.3074V17.5858C200.934 17.5751 200.837 17.5591 200.684 17.5378C200.535 17.513 200.377 17.5005 200.21 17.5005C199.812 17.5005 199.457 17.584 199.144 17.7509C198.835 17.9142 198.59 18.1415 198.409 18.4327C198.232 18.7203 198.143 19.0488 198.143 19.4181V24.5957H196.886ZM205.542 24.7662C204.775 24.7662 204.114 24.585 203.56 24.2228C203.006 23.8606 202.58 23.3617 202.282 22.726C201.984 22.0904 201.834 21.3642 201.834 20.5474C201.834 19.7164 201.987 18.9831 202.293 18.3475C202.601 17.7083 203.031 17.2093 203.582 16.8507C204.136 16.4885 204.782 16.3074 205.521 16.3074C206.096 16.3074 206.614 16.4139 207.076 16.627C207.538 16.84 207.916 17.1383 208.21 17.5218C208.505 17.9054 208.688 18.3528 208.759 18.8642H207.502C207.406 18.4913 207.193 18.161 206.863 17.8734C206.536 17.5822 206.096 17.4366 205.542 17.4366C205.052 17.4366 204.622 17.5645 204.253 17.8201C203.887 18.0723 203.601 18.4292 203.395 18.8908C203.193 19.3489 203.092 19.8869 203.092 20.5048C203.092 21.1369 203.191 21.6873 203.39 22.1561C203.592 22.6248 203.876 22.9888 204.242 23.248C204.611 23.5073 205.045 23.6369 205.542 23.6369C205.869 23.6369 206.165 23.5801 206.431 23.4664C206.698 23.3528 206.923 23.1895 207.108 22.9764C207.293 22.7633 207.424 22.5076 207.502 22.2093H208.759C208.688 22.6923 208.512 23.1273 208.232 23.5144C207.955 23.8979 207.587 24.2033 207.129 24.4306C206.675 24.6543 206.146 24.7662 205.542 24.7662ZM214.027 24.7662C213.239 24.7662 212.559 24.5922 211.987 24.2441C211.419 23.8926 210.98 23.4025 210.671 22.774C210.366 22.1419 210.213 21.4068 210.213 20.5687C210.213 19.7306 210.366 18.992 210.671 18.3528C210.98 17.71 211.41 17.2093 211.96 16.8507C212.514 16.4885 213.161 16.3074 213.899 16.3074C214.326 16.3074 214.746 16.3784 215.162 16.5204C215.577 16.6625 215.956 16.8933 216.296 17.2129C216.637 17.5289 216.909 17.948 217.111 18.47C217.314 18.992 217.415 19.6348 217.415 20.3983V20.9309H211.108V19.8443H216.137C216.137 19.3826 216.044 18.9707 215.86 18.6085C215.679 18.2463 215.419 17.9604 215.082 17.7509C214.748 17.5414 214.354 17.4366 213.899 17.4366C213.399 17.4366 212.965 17.5609 212.6 17.8095C212.237 18.0545 211.959 18.3741 211.763 18.7683C211.568 19.1625 211.47 19.585 211.47 20.036V20.7605C211.47 21.3784 211.577 21.9022 211.79 22.3319C212.007 22.758 212.307 23.0829 212.69 23.3066C213.074 23.5268 213.519 23.6369 214.027 23.6369C214.358 23.6369 214.656 23.5907 214.922 23.4984C215.192 23.4025 215.425 23.2605 215.62 23.0723C215.815 22.8805 215.966 22.6426 216.073 22.3585L217.287 22.6994C217.159 23.1113 216.945 23.4735 216.643 23.786C216.341 24.095 215.968 24.3365 215.524 24.5105C215.08 24.6809 214.581 24.7662 214.027 24.7662Z" fill="#C9F001"/>
</svg>
